<svg width="810" height="467" viewBox="0 0 810 467" fill="none" xmlns="http://www.w3.org/2000/svg">
<path d="M356.418 379.598C356.418 381.221 355.627 382.345 354.253 383.136C354.253 383.136 354.253 383.136 354.211 383.136C351.672 384.551 347.217 384.676 342.388 384.468C341.763 384.426 341.222 384.426 340.722 384.426C340.597 384.426 340.473 384.426 340.348 384.426C340.264 384.426 340.139 384.426 340.056 384.426C335.269 384.551 335.768 385.966 326.651 386.757C316.243 387.631 312.412 384.468 311.83 383.011C311.33 381.762 315.785 380.389 320.739 378.807C320.989 378.724 321.238 378.641 321.447 378.558C322.113 378.349 322.779 378.141 323.445 377.892C329.398 375.936 335.227 373.563 336.684 367.57C338.224 361.202 333.603 343.43 333.603 343.43L350.09 341.641C350.09 341.641 351.672 360.203 352.712 366.03C353.254 369.11 354.669 371.565 355.502 374.229C355.543 374.396 355.627 374.604 355.668 374.77C356.001 376.352 356.418 377.933 356.418 379.598Z" fill="#E49963"/>
<path d="M356.418 379.598C356.418 381.221 355.627 382.345 354.253 383.136C354.253 383.136 354.253 383.136 354.211 383.136C351.505 384.384 347.134 384.551 342.388 384.426C341.763 384.426 341.222 384.426 340.722 384.426C340.597 384.426 340.473 384.426 340.348 384.426C340.264 384.426 340.139 384.426 340.056 384.426C335.269 384.551 335.768 385.966 326.651 386.757C316.243 387.631 312.412 384.468 311.83 383.011C311.33 381.762 315.785 380.389 320.739 378.807C322.154 379.348 328.816 381.679 336.684 380.181C343.637 378.891 350.506 375.436 355.46 374.271C355.502 374.437 355.585 374.645 355.627 374.812C356.001 376.352 356.418 377.933 356.418 379.598Z" fill="#C65447"/>
<path d="M249.548 358.58C248.632 363.158 242.096 362.409 234.81 360.619C227.524 358.83 229.273 360.952 218.907 359.828C208.54 358.663 205.376 354.834 205.085 353.294C204.793 351.921 209.914 351.463 215.41 350.797C216.117 350.714 216.783 350.63 217.491 350.547C223.694 349.756 228.232 345.761 233.894 342.473C239.223 339.351 247.216 326.657 247.216 326.657L261.455 327.781C261.455 327.781 254.003 339.102 251.088 344.054C249.381 346.968 249.465 350.797 249.673 353.752C249.756 355.292 249.839 356.957 249.548 358.58Z" fill="#E49963"/>
<path d="M234.81 360.578C227.524 358.788 229.273 360.911 218.907 359.787C208.54 358.622 205.376 354.793 205.085 353.253C204.793 351.879 209.914 351.421 215.41 350.755L215.451 350.88C215.451 350.88 221.654 355.292 230.314 355.5C237.35 355.666 244.802 353.669 249.673 353.752C249.798 355.375 249.881 356.998 249.548 358.622C248.632 363.116 242.096 362.367 234.81 360.578Z" fill="#C65447"/>
<path d="M281.188 149.772C281.188 149.772 277.816 141.49 274.069 141.115C270.322 140.782 258.499 138.91 257.625 140.616C256.792 142.322 257.625 148.399 260.164 150.605C262.704 152.811 278.441 156.348 278.441 156.348L281.188 149.772Z" fill="#FFB27D"/>
<path d="M304.044 267.64L334.686 350.089C334.686 350.089 339.39 350.547 343.928 349.257C348.091 348.05 352.837 344.928 352.837 344.928C352.837 344.928 345.219 265.767 331.313 249.286C317.325 232.804 304.044 267.64 304.044 267.64Z" fill="#365DA4"/>
<path d="M425.235 234.302C425.235 234.302 337.184 204.544 317.533 210.87C297.883 217.197 238.932 334.482 238.932 334.482C238.932 334.482 240.264 336.272 243.886 337.603C247.258 338.852 255.46 338.769 255.46 338.769C255.46 338.769 308.665 293.153 315.035 279.876C321.405 266.6 323.903 253.906 330.231 255.154C336.559 256.403 411.955 286.203 429.066 268.473C446.176 250.742 441.68 227.685 441.68 227.685L425.235 234.302Z" fill="#466AA5"/>
<path d="M371.447 95.791C370.031 92.8776 368.449 87.7167 367.7 78.5603C367.825 79.476 369.407 91.0463 373.861 97.6223C392.18 109.65 427.275 149.772 426.568 157.389C426.568 157.389 438.932 136.412 439.141 136.287C439.141 136.287 461.955 107.278 434.936 90.6718C421.197 82.2229 421.28 71.4017 421.822 61.9956C422.405 52.5895 418.075 12.0516 390.556 22.6647C390.556 22.6647 386.143 20.7085 384.145 20.9999C384.145 20.9999 385.768 21.2912 386.601 22.1652C383.395 21.9571 378.857 22.2068 375.027 24.3711C364.952 30.1146 355.918 81.557 371.447 95.791Z" fill="#B74B42"/>
<path d="M374.944 98.2051C374.861 98.2467 383.77 102.867 390.514 101.035C396.842 99.3288 400.964 91.1297 400.881 91.0881C398.216 90.547 397.425 86.8845 397.509 71.0688L396.301 71.3186L375.943 75.3557C375.943 75.3557 376.401 81.7652 376.401 87.8001C376.401 92.8777 376.11 97.664 374.944 98.2051Z" fill="#FFB27D"/>
<path d="M375.901 75.3973C375.901 75.3973 376.359 81.8068 376.359 87.8417C387.767 87.5087 393.762 77.1454 396.218 71.3602L375.901 75.3973Z" fill="#E8945B"/>
<path d="M398.341 69.1543C398.341 69.1543 404.295 59.7482 405.752 51.6739C406.793 45.9303 403.837 24.5793 382.396 27.6591C382.396 27.6591 376.151 28.2834 370.323 32.2374C365.66 35.4005 358.957 42.1845 366.451 60.7887L368.408 67.0733L398.341 69.1543Z" fill="#B74B42"/>
<path d="M372.113 81.0992C372.113 81.0992 399.049 81.557 399.091 64.7842C399.091 48.0113 402.588 36.7739 385.394 35.775C368.2 34.7761 364.827 41.1856 363.495 46.7627C362.08 52.3398 365.077 80.5582 372.113 81.0992Z" fill="#FFB27D"/>
<path d="M397.55 38.855C397.55 38.855 379.149 26.2857 373.32 34.9843C371.572 33.486 368.408 32.3623 364.245 37.3983C358 44.9731 363.537 58.3331 363.537 58.3331C366.118 58.6245 366.701 49.8427 368.033 45.5558C369.032 42.3511 372.446 39.0631 374.028 37.6064C376.359 42.8921 382.854 55.5862 391.763 57.8753C403.087 60.7887 408 57.7505 408 57.7505C408 57.7505 399.34 50.9248 397.55 38.855Z" fill="#B74B42"/>
<path d="M434.936 170.666C437.6 159.511 428.566 137.911 419.116 120.014C410.539 103.782 401.672 90.6303 400.881 91.1297C378.316 104.531 376.276 93.3772 376.276 93.3772C376.276 93.3772 355.752 96.0825 349.965 106.113C341.93 119.931 333.187 161.426 324.569 160.802C320.614 160.51 280.939 145.61 280.939 145.61C280.939 145.61 274.319 151.812 275.61 159.387C275.61 159.387 295.218 172.497 311.788 180.904C320.572 185.316 328.482 188.437 332.188 187.563C339.723 185.774 351.547 168.293 357.916 157.971C357.916 157.93 357.958 157.93 357.958 157.888C366.076 203.92 355.044 214.408 360.622 219.278C366.534 224.397 374.986 216.822 393.553 224.896C405.752 230.182 422.654 237.84 434.062 239.172C440.015 239.88 444.511 238.839 445.927 234.802C450.132 223.024 429.857 191.933 434.936 170.666Z" fill="#F1A34F"/>
<path d="M378.108 70.9444C378.108 70.9444 377.608 73.0676 372.321 72.7346C372.321 72.7346 367.866 72.4432 367.991 70.1118C367.95 70.1118 372.279 68.4465 378.108 70.9444Z" fill="white"/>
<path d="M445.927 234.76C444.47 238.798 440.015 239.838 434.062 239.13C426.193 235.718 392.138 222.524 392.513 213.576C393.096 200.341 399.049 199.924 394.844 183.609C391.472 170.499 414.494 143.529 419.532 138.244C428.982 156.14 437.642 159.553 434.978 170.707C429.857 191.933 450.132 223.024 445.927 234.76Z" fill="#E58638"/>
<path d="M357.875 157.93C351.505 168.252 339.723 185.732 332.146 187.522C328.441 188.396 320.489 185.316 311.746 180.862C318.158 182.527 324.361 182.486 330.398 181.903C336.934 181.279 338.849 173.246 349.174 161.218C355.876 153.393 357.542 155.391 357.875 157.93Z" fill="#E58638"/>
<path d="M389.432 183.276C389.432 183.276 383.728 178.823 378.358 179.905C372.987 180.946 370.323 184.65 370.531 186.356C370.739 188.063 373.612 192.807 377.692 193.223C381.813 193.64 393.512 190.685 393.512 190.685L389.432 183.276Z" fill="#FFB27D"/>
<path d="M400.839 91.1297C400.839 91.1297 422.779 92.4615 430.398 103.075C441.097 117.975 459.665 178.906 454.628 192.849L387.808 192.558C387.808 192.558 386.185 184.983 388.433 181.32C390.681 177.658 427.276 171.748 428.982 170.041C430.689 168.335 407.875 137.12 407.875 132.042C407.875 127.006 400.839 91.1297 400.839 91.1297Z" fill="#F1A34F"/>
<path d="M487.017 186.939C487.017 186.939 480.898 184.899 477.983 185.524C475.027 186.148 465.91 190.393 465.702 191.309C465.494 192.224 465.702 192.89 465.702 192.89H487.059C487.059 192.89 491.847 191.975 492.638 189.145C493.429 186.356 487.017 186.939 487.017 186.939Z" fill="#FFB27D"/>
<path d="M566.618 455.762C566.451 457.51 565.494 458.634 563.953 459.3C563.953 459.3 563.954 459.3 563.912 459.3C561.081 460.549 556.293 460.257 551.172 459.55C550.506 459.466 549.923 459.383 549.382 459.342C549.257 459.342 549.091 459.3 548.966 459.3C548.841 459.3 548.758 459.3 548.633 459.258C543.512 458.925 543.887 460.507 534.103 460.465C522.946 460.424 519.157 456.636 518.658 455.055C518.241 453.681 523.112 452.641 528.608 451.434C528.858 451.392 529.149 451.309 529.399 451.267C530.107 451.101 530.856 450.934 531.605 450.768C538.142 449.228 544.595 447.313 546.718 441.029C548.966 434.37 548.466 414.683 548.466 414.683H568.242C568.242 414.683 563.038 436.451 563.579 442.735C563.87 446.065 565.494 447.022 566.077 449.935C566.118 450.144 566.16 450.352 566.202 450.56C566.493 452.266 566.784 454.014 566.618 455.762Z" fill="#AD7041"/>
<path d="M589.641 242.793C587.975 252.157 585.602 261.855 583.521 271.927C580.19 288.117 577.692 305.306 580.273 323.827C580.606 326.199 580.773 328.863 580.815 331.652C581.314 364.406 566.66 423.715 566.66 423.715C566.66 423.715 562.705 425.421 556.043 425.088C552.63 424.922 547.342 422.716 547.342 422.716C547.342 422.716 545.968 385.924 545.885 336.438C545.844 300.561 538.766 253.364 537.351 225.604C536.476 208.831 538.35 186.439 538.35 186.439C538.35 186.439 567.534 163.007 577.984 174.994C588.35 186.897 595.885 207.749 589.641 242.793Z" fill="#415DA5"/>
<path d="M580.274 323.827C580.607 326.199 580.773 328.863 580.815 331.652C558.958 300.02 554.129 231.014 554.129 231.014L578.109 242.668C578.109 242.668 580.731 255.612 583.521 271.885C580.232 288.117 577.692 305.306 580.274 323.827Z" fill="#355493"/>
<path d="M629.732 455.762C629.566 457.51 628.608 458.634 627.068 459.3C627.068 459.3 627.068 459.3 627.026 459.3C624.195 460.549 619.408 460.257 614.287 459.55C613.621 459.467 613.038 459.383 612.497 459.342C612.372 459.342 612.205 459.3 612.08 459.3C611.955 459.3 611.872 459.3 611.747 459.258C606.626 458.925 607.001 460.507 597.218 460.465C586.06 460.424 582.272 456.636 581.772 455.055C581.356 453.681 586.227 452.641 591.722 451.434C591.972 451.392 592.263 451.309 592.513 451.267C593.221 451.101 593.97 450.934 594.72 450.768C601.256 449.228 607.709 447.313 609.832 441.029C612.08 434.37 608.875 414.975 608.875 414.975L627.193 413.435C627.193 413.435 626.069 435.535 626.61 441.82C626.901 445.149 628.608 447.022 629.233 449.936C629.274 450.144 629.316 450.352 629.358 450.56C629.607 452.266 629.899 454.014 629.732 455.762Z" fill="#AD7041"/>
<path d="M627.151 425.421C627.151 425.421 622.447 427.669 619.033 428.335C615.619 429.001 608.583 427.669 608.583 427.669C607.293 413.435 604.378 391.127 598.633 365.988C592.097 337.354 582.355 303.558 568.825 271.511C565.91 264.685 554.003 232.305 551.963 224.105C545.844 199.425 552.005 202.088 552.005 202.088L605.544 195.804C605.544 195.804 612.122 199.175 615.161 234.053C616.077 244.499 616.202 289.574 617.534 298.106C618.825 306.18 620.365 312.923 622.114 317.293C632.147 341.765 627.151 425.421 627.151 425.421Z" fill="#415DA5"/>
<path d="M629.732 455.762C629.566 457.51 628.608 458.634 627.068 459.3C627.068 459.3 627.068 459.3 627.026 459.3C624.029 460.382 619.324 460.132 614.287 459.55C613.621 459.466 613.038 459.425 612.497 459.383C612.372 459.383 612.205 459.342 612.08 459.342C611.955 459.342 611.872 459.342 611.747 459.3C606.626 458.967 607.001 460.549 597.218 460.507C586.06 460.465 582.272 456.678 581.772 455.096C581.356 453.723 586.227 452.682 591.722 451.475C593.179 452.183 600.049 455.304 608.583 454.472C616.119 453.764 623.779 450.726 629.191 449.977C629.233 450.185 629.274 450.393 629.316 450.601C629.607 452.266 629.899 454.014 629.732 455.762Z" fill="#B84C42"/>
<path d="M566.618 455.762C566.451 457.51 565.494 458.634 563.953 459.3C563.953 459.3 563.954 459.3 563.912 459.3C560.914 460.382 556.21 460.132 551.172 459.55C550.506 459.466 549.923 459.425 549.382 459.383C549.257 459.383 549.091 459.342 548.966 459.342C548.841 459.342 548.758 459.342 548.633 459.3C543.512 458.967 543.887 460.549 534.103 460.507C522.946 460.465 519.157 456.678 518.658 455.096C518.241 453.723 523.112 452.682 528.608 451.475C530.065 452.183 536.934 455.304 545.469 454.472C553.004 453.764 560.665 450.726 566.077 449.977C566.118 450.185 566.16 450.393 566.202 450.601C566.493 452.266 566.784 454.014 566.618 455.762Z" fill="#B84C42"/>
<path d="M545.219 35.5253C543.429 20.7502 548.009 -2.89002 577.526 0.897405C607.001 4.68483 616.285 33.6523 610.374 46.5129C604.42 59.4151 618.95 62.495 623.488 76.3545C627.401 88.2578 628.775 103.033 635.103 109.651C655.503 131.043 615.494 163.923 591.389 156.972C547.467 144.362 541.805 142.447 543.346 107.944C544.137 90.2556 557.917 83.4299 549.174 78.3106C528.025 65.9911 549.299 68.9461 545.219 35.5253Z" fill="#2B478B"/>
<path d="M588.558 74.2317L580.44 95.2082L562.871 96.0822L554.129 83.0135C564.037 75.4803 563.621 61.1214 563.121 56.0854C562.996 54.9617 562.913 54.2957 562.913 54.2957L584.853 47.6365C585.103 53.4217 585.436 57.9583 585.811 61.496C587.018 73.8988 588.558 74.2317 588.558 74.2317Z" fill="#FFB27D"/>
<path d="M554.087 73.441C555.211 73.441 574.362 69.5287 606.71 77.8111C606.71 77.8111 589.016 158.928 595.011 174.203C601.048 189.478 603.296 203.046 603.296 203.046L538.017 203.837C538.017 203.837 538.933 151.354 535.935 132.791C532.938 114.27 554.087 73.441 554.087 73.441Z" fill="#FFB27D"/>
<path d="M602.214 163.923C603.171 174.661 613.205 199.217 611.04 204.419C608.75 209.913 605.586 212.701 598.675 214.283C593.887 215.365 587.351 215.906 578.067 216.364C558.417 217.321 537.351 214.866 534.478 205.543C533.104 201.048 533.646 183.692 534.353 175.701C535.852 159.136 532.688 135.33 532.23 119.93C531.855 107.07 539.599 77.8526 539.599 77.8526C539.599 77.8526 543.096 75.6468 554.045 73.4409C554.045 73.4409 555.211 88.6322 563.121 89.9224C576.818 92.1699 587.851 79.6423 591.098 74.6063C591.098 74.6063 606.835 78.5602 611.456 83.8459C615.827 88.8403 609.832 125.757 608.5 129.295C607.334 132.333 606.252 135.288 605.336 138.285C602.838 146.109 601.298 154.101 602.214 163.923Z" fill="#F1A34F"/>
<path d="M658.209 187.022C658.209 187.022 664.329 185.024 667.243 185.607C670.199 186.231 679.316 190.435 679.524 191.35C679.733 192.266 679.524 192.89 679.524 192.89H658.167C658.167 192.89 653.38 191.975 652.589 189.186C651.839 186.398 658.209 187.022 658.209 187.022Z" fill="#FFB27D"/>
<path d="M585.811 62.8278C577.817 57.4589 567.742 57.2091 563.163 57.4172C563.038 56.2935 562.954 55.6276 562.954 55.6276L584.895 48.9684C585.144 54.7536 585.477 59.2901 585.811 62.8278Z" fill="#E8945B"/>
<path d="M557.209 55.7524C557.209 55.7524 583.479 61.0382 586.518 44.6399C589.557 28.2416 594.97 17.8782 578.358 13.7995C561.705 9.72071 557.292 15.381 554.961 20.6251C552.63 25.8693 550.465 53.9628 557.209 55.7524Z" fill="#FFB27D"/>
<path d="M591.597 14.8815C587.143 9.88714 580.731 8.92988 576.069 8.9715C578.9 5.55866 567.534 -1.93295 554.586 10.8444C549.008 16.3382 549.84 27.1595 552.838 33.4441C552.838 33.4441 557.417 20.0008 565.786 17.0874C567.659 16.4215 569.407 15.3394 571.031 14.0491C572.03 16.588 574.112 20.2089 578.233 24.7039C586.851 34.1516 585.186 53.2136 585.186 53.2136C585.186 53.2136 599.341 23.6217 591.597 14.8815Z" fill="#2B478B"/>
<path d="M565.369 47.6787C565.369 47.6787 564.661 49.6354 559.707 48.7612C559.707 48.7612 555.544 48.0118 555.919 45.8469C555.96 45.8053 560.207 44.7228 565.369 47.6787Z" fill="white"/>
<path d="M637.434 147.733C627.484 109.401 622.031 87.5085 613.912 80.8909C606.71 75.0225 591.181 74.4814 591.181 74.4814C590.931 79.1012 591.139 83.7211 591.722 88.2993L572.613 124.675C572.613 124.675 562.83 144.028 559.333 165.213C556.71 144.195 554.087 124.675 554.087 124.675C554.087 124.675 551.631 112.231 550.84 100.869C553.129 92.0035 552.921 82.7222 553.962 73.4409L552.755 73.5242C548.966 73.7739 537.226 74.9809 531.231 79.892C523.071 86.5928 521.281 115.935 507.709 147.316C507.709 147.316 491.264 174.952 486.06 185.898C486.06 185.898 487.059 187.397 489.016 188.52C490.931 189.602 493.304 190.06 493.304 190.06C493.304 190.06 522.946 160.885 524.903 156.265C525.527 154.766 529.149 149.439 533.562 141.615C533.562 141.615 534.728 183.318 532.147 201.298C531.605 205.127 533.437 208.872 536.768 210.745C555.086 221.067 609.916 249.244 620.115 221.899C621.24 218.82 601.214 166.753 603.962 155.474C604.836 151.853 606.002 143.654 607.168 134.123C613.454 146.151 619.366 154.6 620.199 156.598C622.155 161.176 651.798 190.102 651.798 190.102C651.798 190.102 654.212 189.686 656.086 188.603C658.042 187.48 659.042 185.981 659.042 185.981C653.879 175.119 637.434 147.733 637.434 147.733Z" fill="#B64C41"/>
<path d="M590.14 74.3983L572.613 124.717L590.14 108.152L588.808 102.991C588.808 102.991 592.846 103.366 594.47 102.284C596.094 101.243 599.924 75.522 599.924 75.522C599.924 75.522 596.343 74.9393 595.178 74.7728C593.929 74.648 590.14 74.3983 590.14 74.3983Z" fill="#A53D38"/>
<path d="M554.045 73.4409C554.045 73.4409 550.34 113.23 554.128 124.675C554.128 124.675 543.304 107.528 545.302 103.948L549.216 101.368C549.216 101.368 541.639 100.369 543.054 96.0406C544.47 91.6705 550.59 74.0236 550.59 74.0236L554.045 73.4409Z" fill="#A53D38"/>
<path d="M167.033 467H772.239V329.862L167.033 328.489V467Z" fill="#699FF0"/>
<path d="M772.198 218.778H167.033V254.655H772.198V218.778Z" fill="#699FF0"/>
<path d="M798.426 218.778H124.985C118.615 218.778 113.453 213.617 113.453 207.249V204.503C113.453 198.135 118.615 192.974 124.985 192.974H798.468C804.838 192.974 810 198.135 810 204.503V207.249C810 213.576 804.838 218.778 798.426 218.778Z" fill="#466AA5"/>
<path d="M249.132 193.016C249.09 193.057 249.007 193.099 248.923 193.141L248.965 193.016H249.132Z" fill="#5F9AA8"/>
<path d="M86.2664 465.502H42.7191C42.1363 464.503 41.8032 462.838 41.5951 460.965C41.1371 456.179 41.8032 450.061 41.8032 450.061C41.8032 450.061 56.2496 437.991 58.4977 446.939C60.7042 455.887 72.7359 459.716 79.5636 460.674C84.3097 461.34 85.8084 463.962 86.2664 465.502Z" fill="#233862"/>
<path d="M47.9647 465.502H3.08527C1.25345 461.423 2.41915 450.061 2.41915 450.061C2.41915 450.061 16.8655 437.991 19.1136 446.939C21.3202 455.887 33.3518 459.716 40.1795 460.674C40.6791 460.757 41.1371 460.84 41.595 460.965C45.1337 461.881 47.0072 464.003 47.9647 465.502Z" fill="#233862"/>
<path d="M22.9022 223.731C22.9022 223.731 22.9439 225.354 22.9855 228.267C23.4018 247.038 24.9838 319.665 26.5242 360.12C26.6075 361.576 26.6491 363.033 26.6908 364.407C26.7324 365.156 26.7324 365.863 26.774 366.612C27.6899 386.174 30.3544 405.361 33.0188 420.677C36.4327 440.238 39.9298 453.515 39.9298 453.515C52.9606 456.137 61.412 451.184 61.412 451.184C61.412 451.184 64.9091 420.843 66.2829 402.489C66.7409 396.537 68.8641 376.227 71.5702 351.463C73.6518 332.359 76.0665 310.592 78.273 290.822C78.3979 289.782 78.5228 288.7 78.606 287.659C82.1864 255.695 85.1423 229.641 85.1423 229.641L62.0781 227.435L22.9022 223.731Z" fill="#2B478B"/>
<path d="M33.0188 420.677L71.5286 351.504C73.6102 332.401 76.0249 310.634 78.2314 290.864C78.3563 289.824 78.4811 288.741 78.5644 287.701C82.1448 255.737 85.1007 229.683 85.1007 229.683L62.0364 227.477L22.9022 228.268L33.0188 420.677Z" fill="#233862"/>
<path d="M80.8958 229.849C80.8958 229.849 59.3303 336.355 41.7616 387.755C24.1928 439.156 23.9846 453.432 23.9846 453.432C23.9846 453.432 7.873 456.928 0.753898 452.849C0.753898 452.849 -3.28443 355.375 7.33177 329.529C14.3676 312.423 19.7382 275.964 17.9063 262.854C16.0745 249.743 14.3676 223.398 14.3676 223.398L80.8958 229.849Z" fill="#2B478B"/>
<path d="M55.5002 84.4288L34.2261 78.4355C34.2261 78.4355 37.8481 69.612 39.0971 60.3724C39.8048 55.2531 39.7632 50.009 37.973 46.1384C37.8481 45.8887 37.7232 45.6389 37.64 45.4308C36.849 43.9325 37.3069 43.225 38.3894 43.0585C40.3044 42.7255 44.1346 44.099 45.7166 45.4308C48.1729 47.4702 59.9132 53.4219 60.5377 53.7548C60.5793 53.7548 60.5793 53.7548 60.5793 53.7548C60.5793 53.7548 60.5793 53.8381 60.6209 54.0045C60.7042 54.4207 60.8291 55.2948 60.954 56.5017C61.4952 62.1621 62.0364 75.3556 55.5002 84.4288Z" fill="#FFB27D"/>
<path d="M20.1545 235.551C25.2336 239.172 33.2686 240.462 42.1362 240.337C52.461 240.171 63.9099 238.048 73.0273 235.301C77.9399 233.845 82.1864 232.18 85.2671 230.598C98.9225 223.481 96.9658 213.992 96.6327 178.573C96.2997 142.405 74.0265 95.6245 70.0298 87.8C62.9107 73.8573 30.8539 79.0182 30.8539 79.0182C23.8181 82.3894 21.3202 93.6268 20.654 108.277C19.9047 124.55 21.3618 145.111 21.3618 163.84C21.3618 179.322 18.4475 193.015 16.3243 204.378C13.5349 219.028 12.0778 229.849 20.1545 235.551Z" fill="#699FF0"/>
<path d="M16.2827 204.294C22.4443 217.28 34.6009 231.889 42.0947 240.296C52.4194 240.129 63.8683 238.007 72.9857 235.26C76.8159 226.062 78.5228 210.704 74.9424 185.357C72.2363 166.046 52.5027 88.2578 52.5027 88.2578C36.5576 86.1768 26.6491 94.8754 20.5708 108.194C19.8215 124.467 21.2786 145.028 21.2786 163.757C21.3202 179.239 18.406 192.932 16.2827 204.294Z" fill="#4A75CB"/>
<path d="M90.6793 266.1H76.1914V261.605C76.1914 254.155 70.1131 248.079 62.6609 248.079H50.6709C43.2187 248.079 37.1404 254.155 37.1404 261.605V266.1H22.6524C18.3227 266.1 14.7423 269.638 14.7423 274.008V310.842C14.7423 315.17 18.281 318.749 22.6524 318.749H90.6377C94.9675 318.749 98.5478 315.212 98.5478 310.842V274.008C98.5895 269.638 95.0091 266.1 90.6793 266.1ZM42.5109 261.605C42.5109 257.11 46.1746 253.448 50.6709 253.448H62.6609C67.1572 253.448 70.8208 257.11 70.8208 261.605V266.1H42.5109V261.605Z" fill="#4A75CB"/>
<path d="M60.8291 239.005C60.8291 239.005 69.1555 255.071 64.9923 261.314C60.8291 267.557 45.9248 259.524 44.7591 255.945C43.5517 252.365 44.7591 235.093 44.7591 235.093L60.8291 239.005Z" fill="#FFB27D"/>
<path d="M25.192 113.271C25.192 113.271 28.2727 157.513 28.2727 175.785C28.2311 194.097 42.8024 242.751 42.8024 242.751C42.8024 242.751 52.461 243.542 56.2079 243.043C60.5793 242.502 63.1605 240.462 63.1605 240.462C63.1605 240.462 59.9548 182.985 66.0747 160.926C72.1947 138.909 72.4861 94.6256 72.4861 94.6256C72.4861 94.6256 69.1139 85.053 48.7974 88.0913C24.6924 91.7122 25.192 113.271 25.192 113.271Z" fill="#699FF0"/>
<path d="M33.8098 63.3274C32.2694 68.6548 30.1045 76.9371 30.8539 78.9765C30.8539 78.9765 60.9123 82.1396 72.944 93.8349C72.944 93.8349 68.6143 77.8528 63.7849 73.6492C60.2878 70.5693 46.7574 64.0349 39.6383 60.6637C37.2653 59.54 34.5175 60.8302 33.8098 63.3274Z" fill="#4A75CB"/>
<path d="M60.9123 56.5017C58.5393 56.5017 43.6766 56.5434 39.4718 60.0811C39.3053 60.2059 39.1804 60.2892 39.0555 60.3724C39.7632 55.2531 39.7216 50.009 37.9314 46.1384C38.0979 44.9314 38.2228 43.8909 38.3477 43.0585C40.2628 42.7255 44.093 44.099 45.675 45.4308C48.1313 47.4702 59.8715 53.4219 60.496 53.7548L60.5793 54.0045C60.6625 54.4207 60.7875 55.2948 60.9123 56.5017Z" fill="#E8945B"/>
<path d="M70.4877 55.5445C70.4877 55.5445 45.8831 60.2476 43.2187 44.8898C40.5126 29.532 35.5167 19.7929 51.1288 16.1719C66.6992 12.5094 70.7792 17.8367 72.944 22.7479C75.0673 27.6591 76.8158 53.9629 70.4877 55.5445Z" fill="#FFB27D"/>
<path d="M38.8057 51.5906C38.8057 51.5906 40.0963 50.6333 35.1004 43.0585C30.1046 35.5252 27.7732 37.6062 27.6899 29.532C27.6483 21.4993 24.6507 16.6714 33.9763 11.4272C43.3019 6.18312 41.8032 1.3552 47.4235 0.18984C53.0022 -0.97552 61.1621 3.6443 65.9498 2.68704C70.7375 1.72978 85.8084 21.2912 76.1497 25.911C76.1497 25.911 71.6534 26.1191 68.531 24.2046C65.367 22.2485 53.8349 20.2923 52.5027 23.83C51.1704 27.3677 43.8432 48.8853 38.8057 51.5906Z" fill="#233862"/>
<path d="M388.349 131.085L375.277 129.212C374.403 129.087 373.778 128.255 373.903 127.381L374.736 121.512C374.861 120.638 375.693 120.014 376.568 120.139L389.64 122.012C390.514 122.137 391.139 122.969 391.014 123.843L390.181 129.711C390.056 130.585 389.224 131.21 388.349 131.085Z" fill="#DEEDFF"/>
<path d="M380.98 122.441L376.735 121.836L375.918 127.563L380.163 128.168L380.98 122.441Z" fill="#739AF0"/>
<path d="M388.308 124.926L383.021 124.176C382.646 124.135 382.354 123.76 382.396 123.344C382.438 122.969 382.812 122.678 383.229 122.719L388.516 123.469C388.891 123.51 389.182 123.885 389.14 124.301C389.057 124.676 388.724 124.967 388.308 124.926Z" fill="#739AF0"/>
<path d="M388.474 126.965L382.271 126.091C382.105 126.049 382.021 125.924 382.021 125.799C382.063 125.633 382.188 125.549 382.313 125.549L388.516 126.424C388.682 126.465 388.766 126.59 388.766 126.715C388.766 126.882 388.641 126.965 388.474 126.965Z" fill="#739AF0"/>
<path d="M388.349 127.839L382.146 126.965C381.98 126.923 381.896 126.798 381.896 126.673C381.938 126.507 382.063 126.423 382.188 126.423L388.391 127.298C388.558 127.339 388.641 127.464 388.641 127.589C388.641 127.756 388.516 127.839 388.349 127.839Z" fill="#739AF0"/>
<path d="M600.049 123.76L588.017 123.01C587.226 122.969 586.602 122.261 586.643 121.471L586.976 116.102C587.018 115.311 587.726 114.686 588.517 114.728L600.548 115.477C601.339 115.519 601.964 116.226 601.922 117.017L601.589 122.386C601.589 123.177 600.882 123.801 600.049 123.76Z" fill="#DEEDFF"/>
<path d="M592.707 116.389L588.801 116.148L588.476 121.424L592.382 121.664L592.707 116.389Z" fill="#739AF0"/>
<path d="M599.591 118.141L594.72 117.85C594.345 117.808 594.095 117.517 594.095 117.142C594.137 116.768 594.428 116.518 594.803 116.518L599.674 116.809C600.049 116.851 600.299 117.142 600.299 117.517C600.257 117.892 599.924 118.183 599.591 118.141Z" fill="#739AF0"/>
<path d="M599.882 119.972L594.179 119.639C594.054 119.639 593.929 119.515 593.929 119.39C593.929 119.265 594.054 119.14 594.179 119.14L599.882 119.473C600.007 119.473 600.132 119.598 600.132 119.723C600.132 119.889 600.007 119.972 599.882 119.972Z" fill="#739AF0"/>
<path d="M599.841 120.805L594.137 120.472C594.012 120.472 593.887 120.347 593.887 120.222C593.887 120.097 594.012 119.972 594.137 119.972L599.841 120.305C599.966 120.305 600.09 120.43 600.09 120.555C600.09 120.68 599.966 120.805 599.841 120.805Z" fill="#739AF0"/>
<path d="M561.789 167.086C561.789 166.046 562.622 165.213 563.662 165.213C564.703 165.213 565.536 166.046 565.536 167.086C565.536 168.127 564.703 168.959 563.662 168.959C562.622 168.959 561.789 168.127 561.789 167.086Z" fill="#A53D38"/>
<path d="M561.789 178.948C561.789 177.907 562.622 177.075 563.662 177.075C564.703 177.075 565.536 177.907 565.536 178.948C565.536 179.988 564.703 180.821 563.662 180.821C562.622 180.821 561.789 179.988 561.789 178.948Z" fill="#A53D38"/>
<path opacity="0.9" d="M171.779 328.489L772.239 329.862V254.655H171.779V328.489Z" fill="#AFCDFB"/>
<path d="M303.17 193.016H277.442C277.4 193.057 277.317 193.099 277.233 193.14L277.275 193.016L280.064 187.688C280.064 187.688 280.897 187.272 282.188 186.731C284.894 185.607 289.515 184.026 291.846 185.108C295.094 186.648 302.213 190.185 303.17 193.016Z" fill="#FFB27D"/>
<path d="M282.271 186.814C282.271 186.814 281.189 190.851 277.442 193.015C277.4 193.057 277.317 193.099 277.233 193.14L277.275 193.015H232.521C231.147 191.808 228.857 189.436 226.567 185.69C225.859 184.525 225.152 183.193 224.444 181.736C222.237 176.992 220.364 170.665 219.823 162.55C218.74 146.817 217.616 120.846 217.033 105.655C216.742 98.3299 216.575 93.5436 216.575 93.5436C216.867 93.7101 234.311 105.239 237.933 140.866C237.933 140.866 238.849 169.5 242.054 171.748C245.218 173.995 279.149 183.151 282.229 186.814C282.229 186.772 282.229 186.772 282.271 186.814Z" fill="#AA413E"/>
<path d="M210.705 40.8527C210.705 40.8527 208.415 7.97285 165.659 20.4172C155.959 23.2474 157.208 52.5063 180.688 63.6604L210.705 40.8527Z" fill="#2B478B"/>
<path d="M193.636 84.2623C193.636 84.2623 210.372 87.3006 216.575 93.502C222.779 99.7034 237.433 118.016 228.191 178.989C228.191 178.989 227.441 197.386 206.792 199.134C186.101 200.923 193.636 84.2623 193.636 84.2623Z" fill="#B64C41"/>
<path d="M155.168 235.967C158.041 255.986 177.358 308.011 176.775 325.991C176.317 340.142 176.567 372.897 178.44 394.664C178.94 400.574 179.564 405.652 180.355 409.356C182.021 417.389 184.144 426.628 185.31 432.455C187.849 445.524 186.517 453.14 188.599 460.174C190.888 467.832 217.2 466.459 209.29 461.797C206.459 460.133 202.337 456.595 200.297 452.058C192.887 435.494 203.253 364.115 206.376 336.604C206.792 333.15 207.042 330.445 207.167 328.572C208.207 311.591 219.864 198.301 219.864 198.301C191.471 182.444 152.337 215.948 155.168 235.967Z" fill="#D9935C"/>
<path d="M155.168 235.967C158.041 255.987 177.358 308.012 176.775 325.991C176.317 340.142 176.567 372.897 178.44 394.664L206.334 336.521C206.75 333.067 207 330.361 207.125 328.489C208.166 311.508 220.114 198.176 220.114 198.176C191.804 182.402 152.337 215.948 155.168 235.967Z" fill="#CB8757"/>
<path d="M216.7 201.88C216.7 201.88 192.346 313.755 189.598 330.57C186.85 347.384 164.66 426.462 169.489 446.273C172.32 457.968 177.316 461.423 177.316 461.423C178.482 463.587 159.248 467.832 157.666 459.633C155.709 449.228 155.293 434.578 152.379 409.814C147.383 367.154 157.291 342.848 159.664 325.034C162.079 307.179 151.629 250.493 157.416 231.139C167.533 197.219 190.139 183.318 216.7 201.88Z" fill="#D9935C"/>
<path d="M223.237 300.603C218.949 302.393 214.202 303.683 209.248 304.64H209.207C204.377 305.556 199.34 306.139 194.344 306.513C187.308 306.971 180.397 306.971 174.236 306.721L172.445 285.994L170.572 293.486L167.366 306.347C164.41 306.139 161.746 305.889 159.498 305.681C154.668 305.181 151.713 304.723 151.713 304.723C146.259 259.774 152.795 231.431 160.206 214.699C162.537 209.414 164.993 205.252 167.116 202.13C168.282 200.465 169.365 199.05 170.322 197.927C171.113 197.011 171.779 196.262 172.362 195.679C173.445 194.555 174.111 194.056 174.111 194.056C176.65 195.013 179.107 195.846 181.521 196.511C183.27 197.011 184.935 197.427 186.6 197.802C186.642 197.802 186.642 197.802 186.684 197.802C187.808 198.051 188.932 198.26 190.056 198.468C190.472 198.551 190.888 198.592 191.263 198.676C192.554 198.884 193.844 199.05 195.093 199.217C202.254 200.049 208.332 199.841 212.745 199.383C216.534 199.009 219.032 198.468 219.864 198.26C220.073 198.218 220.156 198.176 220.156 198.176L220.197 199.342L220.78 218.861L223.237 300.603Z" fill="#B64C41"/>
<path d="M181.271 465.585H158.29C156.5 462.338 154.127 452.724 152.337 450.685C152.212 450.56 152.046 450.394 151.921 450.185L151.754 465.585H149.672C149.631 462.297 149.381 450.81 148.257 444.4C147.008 442.07 146.134 439.78 146.55 438.823C147.341 436.825 154.71 432.372 154.71 432.372C154.71 432.372 160.164 459.633 162.745 460.299C168.907 461.839 175.068 461.256 176.817 461.048C177.15 461.007 179.897 462.255 180.938 463.878C181.23 464.419 181.438 464.961 181.271 465.585Z" fill="#B64C41"/>
<path d="M212.079 465.585H189.057C187.308 462.38 184.977 452.932 183.186 450.768L183.02 465.585H180.938C180.938 465.169 180.938 464.586 180.897 463.878C180.813 459.675 180.522 451.309 179.689 445.649C178.107 442.902 176.817 439.947 177.275 438.782C178.066 436.784 185.268 432.372 185.268 432.372C185.268 432.372 185.31 432.622 185.393 432.996C185.393 433.038 185.393 433.121 185.435 433.163C185.435 433.246 185.476 433.329 185.476 433.413C185.476 433.496 185.518 433.537 185.518 433.621C186.559 438.906 190.847 459.592 193.47 460.257C200.505 462.006 207.541 461.007 208.041 460.965H208.082C208.082 460.965 212.662 463.171 212.079 465.585Z" fill="#B64C41"/>
<path d="M224.485 181.695C223.736 185.898 222.945 189.561 222.279 192.391C222.237 192.599 222.196 192.807 222.154 192.974C221.238 196.928 220.572 199.175 220.572 199.175C220.447 199.217 220.322 199.258 220.239 199.3C220.197 199.342 220.114 199.342 220.072 199.342C219.989 199.383 219.864 199.425 219.781 199.425C218.199 199.924 216.659 200.382 215.118 200.757C206.625 202.879 199.131 203.046 192.845 202.338C189.431 201.964 186.392 201.298 183.769 200.549C183.145 200.382 182.562 200.216 182.021 200.008C181.979 200.008 181.979 200.008 181.937 199.966C180.48 199.508 179.19 199.009 178.066 198.509C174.569 197.053 172.57 195.721 172.404 195.596C172.695 194.888 172.945 193.973 173.153 192.932C173.569 190.976 173.819 188.437 173.944 185.482C174.194 180.404 174.111 173.995 173.861 167.003C173.861 166.795 173.861 166.587 173.819 166.379C173.444 157.597 172.82 147.858 172.112 138.368C171.571 131.085 171.071 124.009 170.613 117.642C170.489 115.685 170.364 113.812 170.239 112.023C169.656 101.992 169.489 94.584 170.364 92.6279C171.738 89.6729 175.942 87.8832 180.397 86.8011C181.021 86.6346 181.688 86.5098 182.312 86.3849C182.395 86.3849 182.104 85.6774 182.229 85.6357C182.853 85.5109 183.811 86.0936 184.435 86.0103C184.685 85.9687 184.935 85.9271 185.226 85.8855C189.223 85.3028 192.72 85.1779 193.553 85.1363C193.678 85.1363 193.761 85.1363 193.761 85.1363C193.761 85.1363 196.592 86.5098 200.63 89.3815C200.922 89.5896 204.877 87.0508 205.21 87.2589C209.789 90.6301 215.243 96.7067 217.783 104.906C221.197 116.06 226.276 121.595 227.316 132.583C229.023 150.605 226.817 168.876 224.485 181.695Z" fill="#E7F0FD"/>
<path d="M157.208 201.215C165.784 202.963 179.44 202.089 189.556 199.175C192.928 198.218 195.884 197.011 198.132 195.638C207.167 190.06 211.58 148.857 209.998 133.291C208.457 117.725 182.229 85.7191 182.229 85.7191C175.776 90.5054 172.945 101.576 169.115 116.143C159.831 151.229 157.208 201.215 157.208 201.215Z" fill="#B64C41"/>
<path d="M157.208 201.215C165.784 202.963 179.44 202.089 189.556 199.175C193.261 193.889 196.259 187.438 197.841 179.572C202.462 156.848 184.269 132.167 169.115 116.185C159.831 151.229 157.208 201.215 157.208 201.215Z" fill="#AA413E"/>
<path d="M211.746 166.587L191.596 152.02C189.098 150.23 185.601 150.771 183.769 153.268L161.288 184.442C159.498 186.939 160.039 190.435 162.537 192.266L182.687 206.833C185.185 208.623 188.682 208.082 190.514 205.585L212.995 174.411C214.785 171.914 214.202 168.418 211.746 166.587Z" fill="#233862"/>
<path d="M193.844 182.194C193.844 182.194 203.711 181.195 204.918 182.86C206.126 184.525 205.043 190.934 199.506 191.6C193.969 192.266 187.641 187.73 187.641 187.73L193.844 182.194Z" fill="#DA935B"/>
<path d="M182.229 85.7191C182.229 85.7191 164.702 87.8001 157.083 103.574C149.464 119.348 141.305 159.969 143.344 163.798C145.384 167.586 169.947 188.063 190.139 190.685C190.139 190.685 194.51 185.149 194.219 180.155C194.219 180.155 167.033 163.216 164.702 158.513C162.37 153.851 185.476 114.978 185.185 108.236C184.893 101.535 182.229 85.7191 182.229 85.7191Z" fill="#B64C41"/>
<path d="M202.004 34.3184C202.004 34.3184 212.287 35.567 212.87 47.4287C212.87 47.4287 217.366 28.6164 201.088 28.991C184.81 29.4072 202.004 34.3184 202.004 34.3184Z" fill="#2B478B"/>
<path d="M205.21 87.3422C205.21 87.3422 204.294 77.4367 204.502 74.8562C204.627 73.566 204.752 72.7752 204.752 72.7752L204.502 72.692L183.936 66.4073C183.936 66.5738 183.936 66.7403 183.936 66.9068C183.686 72.4839 183.353 76.7707 183.02 80.142C182.978 80.5582 182.937 81.016 182.895 81.3906C182.728 83.097 182.52 84.5121 182.312 85.719C186.309 87.4671 189.598 88.6741 192.304 89.4648C199.673 91.6291 202.878 90.7551 204.252 89.4648C205.335 88.3827 205.21 87.5087 205.21 87.3422Z" fill="#FFB27D"/>
<path d="M202.878 72.6919V74.8562C202.878 74.8562 191.013 74.981 182.978 80.1419C183.311 76.8123 183.644 72.4838 183.894 66.9067L202.878 72.6919Z" fill="#E8945B"/>
<path d="M208.54 74.1903C208.54 74.1903 183.603 79.1847 180.73 63.6188C177.857 48.0529 172.695 38.189 188.474 34.3599C204.294 30.4893 208.457 35.8583 210.705 40.8527C212.953 45.8054 214.952 72.4839 208.54 74.1903Z" fill="#FFB27D"/>
<path d="M200.089 30.9055C200.089 30.9055 207.125 39.7289 194.261 47.8032C181.396 55.8775 182.395 72.026 185.809 76.5626C185.809 76.5626 160.205 51.5906 172.071 36.6906C183.936 21.8323 200.089 30.9055 200.089 30.9055Z" fill="#2B478B"/>
<path d="M731.065 130.71L717.66 192.891H769.867L781.524 130.71H731.065Z" fill="#699FF0"/>
<path d="M732.856 132.666L720.741 188.853H767.91L778.443 132.666H732.856Z" fill="#AFCDFB"/>
<path d="M772.239 137.203H736.353C735.686 137.203 735.145 137.744 735.145 138.41C735.145 139.076 735.686 139.618 736.353 139.618H772.239C772.906 139.618 773.447 139.076 773.447 138.41C773.447 137.744 772.906 137.203 772.239 137.203Z" fill="#699FF0"/>
<path d="M770.408 142.863H734.521C733.855 142.863 733.313 143.405 733.313 144.071C733.313 144.737 733.855 145.278 734.521 145.278H770.408C771.074 145.278 771.615 144.737 771.615 144.071C771.615 143.405 771.074 142.863 770.408 142.863Z" fill="#699FF0"/>
<path d="M769.284 148.274H733.397C732.731 148.274 732.189 148.815 732.189 149.481C732.189 150.147 732.731 150.689 733.397 150.689H769.284C769.95 150.689 770.491 150.147 770.491 149.481C770.491 148.815 769.95 148.274 769.284 148.274Z" fill="#699FF0"/>
<path d="M767.618 159.511H731.731C731.065 159.511 730.524 160.053 730.524 160.719C730.524 161.385 731.065 161.926 731.731 161.926H767.618C768.284 161.926 768.826 161.385 768.826 160.719C768.826 160.053 768.284 159.511 767.618 159.511Z" fill="#699FF0"/>
<path d="M765.787 165.172H729.9C729.234 165.172 728.692 165.713 728.692 166.379C728.692 167.045 729.234 167.586 729.9 167.586H765.787C766.453 167.586 766.994 167.045 766.994 166.379C766.994 165.713 766.453 165.172 765.787 165.172Z" fill="#699FF0"/>
<path d="M764.663 170.582H728.776C728.11 170.582 727.568 171.123 727.568 171.79C727.568 172.456 728.11 172.997 728.776 172.997H764.663C765.329 172.997 765.87 172.456 765.87 171.79C765.828 171.123 765.287 170.582 764.663 170.582Z" fill="#699FF0"/>
<path d="M708.814 165.328L701.047 191.069L702.482 191.502L710.249 165.761L708.814 165.328Z" fill="#A53D38"/>
<path d="M702.089 188.645C699.425 188.645 697.218 190.518 696.885 192.932H707.293C706.919 190.477 704.754 188.645 702.089 188.645Z" fill="#B64C41"/>
<path d="M708.875 192.225C706.877 192.225 704.92 191.892 704.754 191.85L704.796 191.517C706.794 191.85 712.081 192.391 712.664 190.726C712.914 189.977 712.664 188.729 712.331 187.022C711.707 183.901 710.791 179.156 711.873 172.538C712.747 167.377 712.081 165.796 711.415 165.38C710.707 164.964 709.708 165.713 709.708 165.754L709.5 165.505C709.542 165.463 710.666 164.589 711.582 165.13C712.706 165.796 712.914 168.335 712.206 172.622C711.124 179.156 712.04 183.859 712.664 186.981C712.997 188.77 713.289 190.06 712.955 190.851C712.622 191.933 710.749 192.225 708.875 192.225Z" fill="#B64C41"/>
<path d="M645.137 226.561L648.217 232.763L655.045 233.762L650.091 238.589L651.257 245.374L645.137 242.169L639.017 245.374L640.182 238.589L635.228 233.762L642.097 232.763L645.137 226.561Z" fill="#F1A34F"/>
<path d="M674.154 226.561L677.235 232.763L684.063 233.762L679.108 238.589L680.274 245.374L674.154 242.169L668.034 245.374L669.2 238.589L664.246 233.762L671.115 232.763L674.154 226.561Z" fill="#F1A34F"/>
<path d="M703.297 226.561L706.378 232.763L713.205 233.762L708.251 238.589L709.417 245.374L703.297 242.169L697.177 245.374L698.342 238.589L693.388 233.762L700.258 232.763L703.297 226.561Z" fill="#F1A34F"/>
<path d="M728.568 226.561L731.648 232.763L738.476 233.762L733.522 238.589L734.687 245.374L728.568 242.169L722.448 245.374L723.613 238.589L718.659 233.762L725.528 232.763L728.568 226.561Z" fill="#F1A34F"/>
</svg>
