<svg width="274" height="183" viewBox="0 0 274 183" fill="none" xmlns="http://www.w3.org/2000/svg">
<path d="M2 5.16667L4.43468 3.16262C5.94926 1.91593 8.14443 1.95156 9.61775 3.24675L10.1087 3.67832C11.619 5.00605 13.8803 5.00605 15.3906 3.67831L15.7963 3.32168C17.3067 1.99395 19.5679 1.99395 21.0783 3.32168L21.484 3.67832C22.9943 5.00605 25.2556 5.00605 26.7659 3.67831L27.1716 3.32168C28.6819 1.99395 30.9432 1.99395 32.4536 3.32169L32.8592 3.67832C34.3696 5.00605 36.6309 5.00605 38.1412 3.67831L38.5469 3.32168C40.0572 1.99395 42.3185 1.99395 43.8289 3.32168L44.2345 3.67832C45.7449 5.00605 48.0062 5.00605 49.5165 3.67831L49.9222 3.32168C51.4325 1.99395 53.6938 1.99395 55.2042 3.32168L55.6125 3.68063C57.1217 5.00738 59.3809 5.00849 60.8915 3.68325L63 1.83333" stroke="#2F70D9" stroke-width="3" stroke-linecap="round"/>
<path d="M121.686 153.616C121.686 154.162 121.42 154.54 120.959 154.806C120.959 154.806 120.959 154.806 120.945 154.806C120.092 155.282 118.596 155.323 116.975 155.254C116.765 155.24 116.583 155.24 116.415 155.24C116.373 155.24 116.331 155.24 116.29 155.24C116.262 155.24 116.22 155.24 116.192 155.24C114.584 155.282 114.752 155.757 111.69 156.023C108.195 156.317 106.909 155.254 106.713 154.764C106.545 154.344 108.041 153.882 109.705 153.351C109.789 153.323 109.873 153.295 109.942 153.267C110.166 153.197 110.39 153.127 110.614 153.043C112.613 152.385 114.57 151.588 115.059 149.573C115.577 147.432 114.025 141.457 114.025 141.457L119.561 140.856C119.561 140.856 120.092 147.096 120.442 149.055C120.623 150.09 121.099 150.916 121.378 151.811C121.392 151.867 121.42 151.937 121.434 151.993C121.546 152.525 121.686 153.057 121.686 153.616Z" fill="#E49963"/>
<path d="M121.686 153.616C121.686 154.162 121.42 154.54 120.959 154.806C120.959 154.806 120.959 154.806 120.945 154.806C120.036 155.226 118.568 155.282 116.975 155.24C116.765 155.24 116.583 155.24 116.415 155.24C116.373 155.24 116.331 155.24 116.29 155.24C116.262 155.24 116.22 155.24 116.192 155.24C114.584 155.282 114.752 155.757 111.69 156.023C108.195 156.317 106.909 155.254 106.713 154.764C106.545 154.344 108.041 153.882 109.705 153.351C110.18 153.533 112.417 154.316 115.059 153.812C117.394 153.379 119.701 152.217 121.364 151.826C121.378 151.881 121.406 151.951 121.42 152.007C121.546 152.525 121.686 153.057 121.686 153.616Z" fill="#C65447"/>
<path d="M85.7988 146.55C85.4913 148.09 83.2964 147.838 80.8498 147.236C78.4033 146.634 78.9905 147.348 75.5094 146.97C72.0283 146.578 70.9659 145.291 70.868 144.773C70.7701 144.312 72.4897 144.158 74.3351 143.934C74.5727 143.906 74.7964 143.878 75.0341 143.85C77.1171 143.584 78.641 142.241 80.5423 141.135C82.3317 140.086 85.0159 135.818 85.0159 135.818L89.7972 136.196C89.7972 136.196 87.2947 140.002 86.3161 141.667C85.7429 142.647 85.7709 143.934 85.8408 144.927C85.8687 145.445 85.8967 146.005 85.7988 146.55Z" fill="#E49963"/>
<path d="M80.8498 147.222C78.4033 146.62 78.9905 147.334 75.5094 146.956C72.0283 146.564 70.9659 145.277 70.868 144.759C70.7701 144.298 72.4897 144.144 74.3351 143.92L74.3491 143.962C74.3491 143.962 76.4321 145.445 79.34 145.515C81.7026 145.571 84.2051 144.899 85.8408 144.927C85.8827 145.473 85.9107 146.019 85.7988 146.564C85.4913 148.076 83.2964 147.824 80.8498 147.222Z" fill="#C65447"/>
<path d="M96.4237 76.3517C96.4237 76.3517 95.2913 73.5673 94.0331 73.4414C92.7748 73.3294 88.8045 72.6998 88.5109 73.2735C88.2313 73.8471 88.5109 75.89 89.3637 76.6316C90.2165 77.3732 95.501 78.5625 95.501 78.5625L96.4237 76.3517Z" fill="#FFB27D"/>
<path d="M104.099 115.978L114.388 143.696C114.388 143.696 115.968 143.85 117.492 143.416C118.89 143.01 120.484 141.961 120.484 141.961C120.484 141.961 117.925 115.348 113.256 109.807C108.559 104.266 104.099 115.978 104.099 115.978Z" fill="#365DA4"/>
<path d="M144.795 104.77C144.795 104.77 115.227 94.7654 108.628 96.8922C102.03 99.019 82.2339 138.449 82.2339 138.449C82.2339 138.449 82.6812 139.051 83.8975 139.498C85.0299 139.918 87.784 139.89 87.784 139.89C87.784 139.89 105.651 124.555 107.79 120.091C109.929 115.628 110.767 111.36 112.892 111.78C115.017 112.2 140.336 122.218 146.081 116.257C151.827 110.297 150.317 102.545 150.317 102.545L144.795 104.77Z" fill="#466AA5"/>
<path d="M126.733 58.2038C126.257 57.2244 125.726 55.4894 125.475 52.4111C125.516 52.7189 126.048 56.6087 127.544 58.8195C133.695 62.8632 145.48 76.3517 145.243 78.9122C145.243 78.9122 149.395 71.8602 149.465 71.8182C149.465 71.8182 157.126 62.0657 148.053 56.4828C143.439 53.6424 143.467 50.0044 143.649 46.8422C143.844 43.68 142.391 30.0516 133.15 33.6196C133.15 33.6196 131.668 32.962 130.997 33.0599C130.997 33.0599 131.542 33.1579 131.822 33.4517C130.745 33.3817 129.221 33.4657 127.935 34.1933C124.552 36.1242 121.518 53.4185 126.733 58.2038Z" fill="#B74B42"/>
<path d="M127.907 59.0154C127.879 59.0294 130.871 60.5825 133.136 59.9669C135.261 59.3932 136.645 56.6367 136.617 56.6228C135.722 56.4409 135.456 55.2095 135.484 49.8925L135.079 49.9765L128.243 51.3337C128.243 51.3337 128.396 53.4885 128.396 55.5174C128.396 57.2244 128.299 58.8335 127.907 59.0154Z" fill="#FFB27D"/>
<path d="M128.229 51.3477C128.229 51.3477 128.383 53.5024 128.383 55.5313C132.213 55.4194 134.226 51.9353 135.051 49.9904L128.229 51.3477Z" fill="#E8945B"/>
<path d="M135.764 49.2489C135.764 49.2489 137.763 46.0867 138.252 43.3722C138.602 41.4413 137.609 34.2633 130.41 35.2987C130.41 35.2987 128.313 35.5086 126.355 36.8378C124.79 37.9012 122.539 40.182 125.055 46.4365L125.712 48.5493L135.764 49.2489Z" fill="#B74B42"/>
<path d="M126.957 53.2646C126.957 53.2646 136.002 53.4186 136.016 47.7797C136.016 42.1409 137.19 38.363 131.416 38.0272C125.642 37.6914 124.51 39.8462 124.063 41.7211C123.587 43.5961 124.594 53.0827 126.957 53.2646Z" fill="#FFB27D"/>
<path d="M135.498 39.0626C135.498 39.0626 129.319 34.837 127.362 37.7613C126.775 37.2576 125.712 36.8798 124.314 38.5729C122.217 41.1194 124.077 45.6109 124.077 45.6109C124.943 45.7089 125.139 42.7565 125.587 41.3153C125.922 40.2379 127.068 39.1326 127.6 38.6428C128.383 40.4198 130.563 44.6874 133.555 45.457C137.358 46.4365 139.007 45.415 139.007 45.415C139.007 45.415 136.1 43.1203 135.498 39.0626Z" fill="#B74B42"/>
<path d="M148.053 83.3758C148.947 79.6259 145.914 72.364 142.74 66.3473C139.86 60.8904 136.882 56.4689 136.617 56.6368C129.04 61.1422 128.354 57.3924 128.354 57.3924C128.354 57.3924 121.462 58.3018 119.519 61.674C116.821 66.3194 113.885 80.2695 110.991 80.0597C109.663 79.9617 96.3399 74.9525 96.3399 74.9525C96.3399 74.9525 94.117 77.0374 94.5504 79.5839C94.5504 79.5839 101.135 83.9915 106.699 86.8179C109.649 88.301 112.305 89.3505 113.549 89.0566C116.08 88.455 120.05 82.5782 122.189 79.1082C122.189 79.0942 122.203 79.0942 122.203 79.0802C124.929 94.5555 121.225 98.0816 123.098 99.7187C125.083 101.44 127.921 98.8931 134.156 101.608C138.252 103.385 143.928 105.959 147.759 106.407C149.758 106.645 151.268 106.295 151.743 104.938C153.155 100.978 146.347 90.5258 148.053 83.3758Z" fill="#F1A34F"/>
<path d="M128.97 49.8507C128.97 49.8507 128.802 50.5645 127.026 50.4525C127.026 50.4525 125.53 50.3545 125.572 49.5707C125.558 49.5707 127.012 49.0109 128.97 49.8507Z" fill="white"/>
<path d="M151.743 104.924C151.254 106.281 149.758 106.631 147.759 106.393C145.117 105.246 133.681 100.81 133.807 97.8017C134.002 93.3522 136.002 93.2123 134.59 87.7273C133.457 83.3198 141.188 74.2529 142.88 72.4759C146.053 78.4925 148.961 79.6399 148.066 83.3898C146.347 90.5258 153.155 100.978 151.743 104.924Z" fill="#E58638"/>
<path d="M122.175 79.0942C120.036 82.5643 116.08 88.441 113.536 89.0426C112.291 89.3365 109.621 88.301 106.685 86.8039C108.838 87.3636 110.921 87.3496 112.948 87.1537C115.143 86.9438 115.786 84.2433 119.253 80.1996C121.504 77.569 122.064 78.2407 122.175 79.0942Z" fill="#E58638"/>
<path d="M132.772 87.6154C132.772 87.6154 130.857 86.1182 129.053 86.482C127.25 86.8318 126.355 88.0771 126.425 88.6508C126.495 89.2245 127.46 90.8196 128.83 90.9595C130.214 91.0994 134.142 90.106 134.142 90.106L132.772 87.6154Z" fill="#FFB27D"/>
<path d="M136.603 56.6367C136.603 56.6367 143.97 57.0845 146.529 60.6525C150.122 65.6617 156.357 86.1462 154.665 90.8336L132.227 90.7356C132.227 90.7356 131.682 88.1891 132.437 86.9577C133.192 85.7264 145.48 83.7395 146.053 83.1659C146.627 82.5922 138.965 72.0981 138.965 70.391C138.965 68.698 136.603 56.6367 136.603 56.6367Z" fill="#F1A34F"/>
<path d="M165.542 88.8466C165.542 88.8466 163.487 88.161 162.508 88.3709C161.515 88.5808 158.454 90.0079 158.384 90.3158C158.314 90.6236 158.384 90.8475 158.384 90.8475H165.556C165.556 90.8475 167.163 90.5397 167.429 89.5882C167.695 88.6507 165.542 88.8466 165.542 88.8466Z" fill="#FFB27D"/>
<path d="M192.272 179.222C192.216 179.81 191.894 180.187 191.377 180.411C191.377 180.411 191.377 180.411 191.363 180.411C190.412 180.831 188.805 180.733 187.085 180.495C186.861 180.467 186.666 180.439 186.484 180.425C186.442 180.425 186.386 180.411 186.344 180.411C186.302 180.411 186.274 180.411 186.232 180.397C184.513 180.285 184.638 180.817 181.353 180.803C177.606 180.789 176.334 179.516 176.166 178.984C176.027 178.522 177.662 178.173 179.508 177.767C179.592 177.753 179.69 177.725 179.773 177.711C180.011 177.655 180.263 177.599 180.514 177.543C182.709 177.025 184.876 176.382 185.589 174.269C186.344 172.03 186.176 165.412 186.176 165.412H192.817C192.817 165.412 191.069 172.73 191.251 174.842C191.349 175.962 191.894 176.284 192.09 177.263C192.104 177.333 192.118 177.403 192.132 177.473C192.23 178.047 192.328 178.634 192.272 179.222Z" fill="#AD7041"/>
<path d="M200.003 107.624C199.444 110.772 198.647 114.033 197.948 117.419C196.829 122.862 195.991 128.64 196.857 134.867C196.969 135.664 197.025 136.56 197.039 137.497C197.207 148.509 192.286 168.448 192.286 168.448C192.286 168.448 190.958 169.022 188.721 168.91C187.574 168.854 185.799 168.112 185.799 168.112C185.799 168.112 185.338 155.743 185.31 139.106C185.296 127.045 182.919 111.178 182.444 101.845C182.15 96.2065 182.779 88.6787 182.779 88.6787C182.779 88.6787 192.579 80.8011 196.088 84.8309C199.569 88.8326 202.1 95.8427 200.003 107.624Z" fill="#415DA5"/>
<path d="M196.857 134.867C196.969 135.664 197.025 136.56 197.039 137.497C189.699 126.863 188.078 103.664 188.078 103.664L196.13 107.582C196.13 107.582 197.011 111.934 197.948 117.405C196.843 122.862 195.99 128.64 196.857 134.867Z" fill="#355493"/>
<path d="M213.466 179.222C213.41 179.81 213.088 180.188 212.571 180.411C212.571 180.411 212.571 180.411 212.557 180.411C211.606 180.831 209.998 180.733 208.279 180.495C208.055 180.467 207.859 180.439 207.678 180.425C207.636 180.425 207.58 180.411 207.538 180.411C207.496 180.411 207.468 180.411 207.426 180.397C205.707 180.286 205.832 180.817 202.547 180.803C198.8 180.789 197.528 179.516 197.36 178.984C197.221 178.522 198.856 178.173 200.702 177.767C200.785 177.753 200.883 177.725 200.967 177.711C201.205 177.655 201.457 177.599 201.708 177.543C203.903 177.025 206.07 176.382 206.783 174.269C207.538 172.03 206.461 165.51 206.461 165.51L212.613 164.992C212.613 164.992 212.235 172.422 212.417 174.535C212.515 175.654 213.088 176.284 213.298 177.263C213.312 177.333 213.326 177.403 213.34 177.473C213.424 178.047 213.521 178.634 213.466 179.222Z" fill="#AD7041"/>
<path d="M212.599 169.022C212.599 169.022 211.019 169.777 209.873 170.001C208.726 170.225 206.364 169.777 206.364 169.777C205.93 164.992 204.952 157.492 203.022 149.041C200.828 139.414 197.556 128.053 193.013 117.279C192.034 114.984 188.036 104.098 187.351 101.342C185.296 93.0443 187.365 93.9398 187.365 93.9398L205.343 91.827C205.343 91.827 207.552 92.9603 208.573 104.686C208.88 108.198 208.922 123.351 209.369 126.22C209.803 128.934 210.32 131.201 210.907 132.67C214.276 140.897 212.599 169.022 212.599 169.022Z" fill="#415DA5"/>
<path d="M213.466 179.222C213.41 179.81 213.088 180.187 212.571 180.411C212.571 180.411 212.571 180.411 212.557 180.411C211.55 180.775 209.97 180.691 208.279 180.495C208.055 180.467 207.859 180.453 207.678 180.439C207.636 180.439 207.58 180.425 207.538 180.425C207.496 180.425 207.468 180.425 207.426 180.411C205.707 180.299 205.832 180.831 202.547 180.817C198.8 180.803 197.528 179.53 197.36 178.998C197.221 178.536 198.856 178.187 200.702 177.781C201.191 178.019 203.498 179.068 206.364 178.788C208.894 178.55 211.466 177.529 213.284 177.277C213.298 177.347 213.312 177.417 213.326 177.487C213.424 178.047 213.521 178.634 213.466 179.222Z" fill="#B84C42"/>
<path d="M192.272 179.222C192.216 179.81 191.894 180.187 191.377 180.411C191.377 180.411 191.377 180.411 191.363 180.411C190.356 180.775 188.777 180.691 187.085 180.495C186.861 180.467 186.666 180.453 186.484 180.439C186.442 180.439 186.386 180.425 186.344 180.425C186.302 180.425 186.274 180.425 186.232 180.411C184.513 180.299 184.638 180.831 181.353 180.817C177.606 180.803 176.334 179.53 176.166 178.998C176.027 178.536 177.662 178.187 179.508 177.781C179.997 178.019 182.304 179.068 185.17 178.788C187.7 178.55 190.273 177.529 192.09 177.277C192.104 177.347 192.118 177.417 192.132 177.487C192.23 178.047 192.328 178.634 192.272 179.222Z" fill="#B84C42"/>
<path d="M185.086 37.943C184.485 32.9758 186.023 25.0282 195.935 26.3015C205.832 27.5748 208.95 37.3134 206.965 41.6369C204.966 45.9745 209.845 47.0099 211.369 51.6693C212.683 55.6711 213.144 60.6383 215.269 62.8631C222.119 70.055 208.684 81.1088 200.59 78.7722C185.841 74.5325 183.94 73.8889 184.457 62.2894C184.722 56.3427 189.35 54.048 186.414 52.327C179.312 48.1853 186.456 49.1787 185.086 37.943Z" fill="#2B478B"/>
<path d="M199.639 50.9558L196.913 58.0079L191.013 58.3017L188.078 53.9082C191.405 51.3756 191.265 46.5483 191.097 44.8552C191.055 44.4775 191.027 44.2536 191.027 44.2536L198.395 42.0148C198.479 43.9597 198.591 45.4849 198.716 46.6742C199.122 50.8439 199.639 50.9558 199.639 50.9558Z" fill="#FFB27D"/>
<path d="M188.064 50.69C188.441 50.69 194.872 49.3748 205.735 52.1592C205.735 52.1592 199.793 79.4299 201.806 84.5651C203.833 89.7002 204.588 94.2616 204.588 94.2616L182.667 94.5275C182.667 94.5275 182.975 76.8834 181.968 70.6429C180.962 64.4163 188.064 50.69 188.064 50.69Z" fill="#FFB27D"/>
<path d="M204.225 81.1089C204.546 84.7189 207.916 92.9743 207.189 94.7233C206.42 96.5702 205.357 97.5077 203.036 98.0394C201.429 98.4032 199.234 98.5851 196.116 98.739C189.518 99.0609 182.444 98.2353 181.479 95.1011C181.018 93.5899 181.199 87.7552 181.437 85.0687C181.94 79.4998 180.878 71.4963 180.724 66.3192C180.598 61.9956 183.199 52.1731 183.199 52.1731C183.199 52.1731 184.373 51.4315 188.05 50.6899C188.05 50.6899 188.441 55.7971 191.097 56.2308C195.697 56.9864 199.402 52.7748 200.492 51.0817C200.492 51.0817 205.777 52.411 207.328 54.188C208.796 55.867 206.783 68.2781 206.336 69.4674C205.944 70.4889 205.581 71.4823 205.273 72.4897C204.434 75.1203 203.917 77.8068 204.225 81.1089Z" fill="#F1A34F"/>
<path d="M223.028 88.8746C223.028 88.8746 225.083 88.203 226.062 88.3989C227.054 88.6088 230.116 90.022 230.186 90.3298C230.256 90.6377 230.186 90.8475 230.186 90.8475H223.014C223.014 90.8475 221.407 90.5397 221.141 89.6022C220.889 88.6648 223.028 88.8746 223.028 88.8746Z" fill="#FFB27D"/>
<path d="M198.717 47.122C196.032 45.317 192.649 45.2331 191.111 45.3031C191.069 44.9253 191.041 44.7014 191.041 44.7014L198.409 42.4626C198.493 44.4076 198.605 45.9327 198.717 47.122Z" fill="#E8945B"/>
<path d="M189.112 44.7433C189.112 44.7433 197.934 46.5203 198.954 41.0074C199.975 35.4945 201.792 32.0104 196.214 30.6392C190.622 29.268 189.14 31.1709 188.357 32.9339C187.574 34.6969 186.847 44.1416 189.112 44.7433Z" fill="#FFB27D"/>
<path d="M200.66 31.003C199.164 29.3239 197.011 29.0021 195.445 29.0161C196.396 27.8687 192.579 25.3501 188.231 29.6457C186.358 31.4927 186.638 35.1307 187.644 37.2435C187.644 37.2435 189.182 32.724 191.992 31.7446C192.621 31.5207 193.208 31.1569 193.754 30.7231C194.089 31.5766 194.788 32.794 196.172 34.3051C199.066 37.4813 198.507 43.8898 198.507 43.8898C198.507 43.8898 203.26 33.9413 200.66 31.003Z" fill="#2B478B"/>
<path d="M191.852 42.029C191.852 42.029 191.615 42.6868 189.951 42.3929C189.951 42.3929 188.553 42.141 188.679 41.4132C188.693 41.3992 190.119 41.0353 191.852 42.029Z" fill="white"/>
<path d="M216.052 75.666C212.711 62.7792 210.879 55.4193 208.153 53.1945C205.735 51.2216 200.52 51.0397 200.52 51.0397C200.436 52.5929 200.506 54.146 200.702 55.6851L194.285 67.9143C194.285 67.9143 191 74.4207 189.825 81.5427C188.945 74.4766 188.064 67.9143 188.064 67.9143C188.064 67.9143 187.239 63.7306 186.973 59.9108C187.742 56.9305 187.672 53.8102 188.022 50.6899L187.616 50.7179C186.344 50.8019 182.402 51.2077 180.389 52.8587C177.649 55.1115 177.047 64.9759 172.49 75.526C172.49 75.526 166.968 84.8168 165.22 88.4968C165.22 88.4968 165.556 89.0005 166.213 89.3783C166.856 89.7421 167.653 89.896 167.653 89.896C167.653 89.896 177.607 80.0875 178.264 78.5344C178.473 78.0306 179.69 76.2396 181.172 73.6091C181.172 73.6091 181.563 87.6293 180.696 93.6739C180.514 94.9612 181.13 96.2205 182.248 96.8501C188.399 100.32 206.811 109.793 210.236 100.6C210.614 99.5646 203.889 82.0604 204.812 78.2685C205.106 77.0512 205.497 74.2947 205.888 71.0905C207.999 75.1343 209.985 77.9747 210.264 78.6463C210.921 80.1854 220.875 89.91 220.875 89.91C220.875 89.91 221.686 89.7701 222.315 89.4063C222.972 89.0285 223.308 88.5248 223.308 88.5248C221.574 84.8728 216.052 75.666 216.052 75.666Z" fill="#B64C41"/>
<path d="M200.171 51.0118L194.285 67.9284L200.171 62.3595L199.723 60.6245C199.723 60.6245 201.079 60.7504 201.624 60.3866C202.17 60.0368 203.456 51.3896 203.456 51.3896C203.456 51.3896 202.254 51.1937 201.862 51.1378C201.443 51.0958 200.171 51.0118 200.171 51.0118Z" fill="#A53D38"/>
<path d="M188.05 50.6899C188.05 50.6899 186.805 64.0665 188.078 67.9143C188.078 67.9143 184.443 62.1495 185.114 60.9462L186.428 60.0787C186.428 60.0787 183.884 59.7429 184.359 58.2877C184.834 56.8185 186.889 50.8858 186.889 50.8858L188.05 50.6899Z" fill="#A53D38"/>
<path d="M58.0901 183H261.32V136.896L58.0901 136.434V183Z" fill="#699FF0"/>
<path d="M261.306 99.5507H58.0901V111.612H261.306V99.5507Z" fill="#699FF0"/>
<path d="M270.114 99.5507H43.9702C41.8312 99.5507 40.0977 97.8157 40.0977 95.6749V94.7514C40.0977 92.6106 41.8312 90.8755 43.9702 90.8755H270.128C272.266 90.8755 274 92.6106 274 94.7514V95.6749C274 97.8017 272.266 99.5507 270.114 99.5507Z" fill="#466AA5"/>
<path d="M85.6592 90.8896C85.6452 90.9036 85.6172 90.9176 85.5891 90.9316L85.6031 90.8896H85.6592Z" fill="#5F9AA8"/>
<path d="M30.9685 182.496H16.3453C16.1495 182.16 16.0377 181.601 15.9678 180.971C15.814 179.362 16.0377 177.305 16.0377 177.305C16.0377 177.305 20.8888 173.247 21.6437 176.256C22.3847 179.264 26.425 180.551 28.7177 180.873C30.3115 181.097 30.8147 181.979 30.9685 182.496Z" fill="#233862"/>
<path d="M18.1068 182.496H3.03614C2.42101 181.125 2.81245 177.305 2.81245 177.305C2.81245 177.305 7.66358 173.247 8.41851 176.256C9.15946 179.264 13.1997 180.551 15.4925 180.873C15.6602 180.901 15.814 180.929 15.9678 180.971C17.1561 181.279 17.7852 181.993 18.1068 182.496Z" fill="#233862"/>
<path d="M9.69067 101.216C9.69067 101.216 9.70466 101.761 9.71864 102.741C9.85844 109.051 10.3897 133.468 10.907 147.068C10.9349 147.558 10.9489 148.048 10.9629 148.509C10.9769 148.761 10.9769 148.999 10.9908 149.251C11.2984 155.827 12.1931 162.278 13.0879 167.427C14.2342 174.003 15.4086 178.467 15.4086 178.467C19.7844 179.348 22.6223 177.683 22.6223 177.683C22.6223 177.683 23.7967 167.483 24.258 161.312C24.4118 159.311 25.1248 152.483 26.0335 144.158C26.7325 137.735 27.5434 130.417 28.2843 123.771C28.3263 123.421 28.3682 123.058 28.3962 122.708C29.5984 111.962 30.591 103.203 30.591 103.203L22.846 102.461L9.69067 101.216Z" fill="#2B478B"/>
<path d="M13.0879 167.427L26.0195 144.172C26.7185 137.749 27.5294 130.431 28.2703 123.785C28.3123 123.435 28.3542 123.072 28.3822 122.722C29.5845 111.976 30.5771 103.217 30.5771 103.217L22.832 102.475L9.69067 102.741L13.0879 167.427Z" fill="#233862"/>
<path d="M29.165 103.273C29.165 103.273 21.9233 139.079 16.0236 156.359C10.124 173.639 10.0541 178.439 10.0541 178.439C10.0541 178.439 4.64377 179.614 2.25316 178.243C2.25316 178.243 0.897082 145.473 4.46203 136.784C6.82468 131.033 8.62812 118.776 8.01299 114.368C7.39786 109.961 6.82468 101.104 6.82468 101.104L29.165 103.273Z" fill="#2B478B"/>
<path d="M20.637 54.384L13.4932 52.3691C13.4932 52.3691 14.7094 49.4028 15.1288 46.2965C15.3665 44.5755 15.3525 42.8125 14.7514 41.5112C14.7094 41.4272 14.6675 41.3433 14.6395 41.2733C14.3739 40.7696 14.5277 40.5317 14.8912 40.4758C15.5343 40.3638 16.8204 40.8256 17.3517 41.2733C18.1765 41.9589 22.1189 43.9598 22.3286 44.0718C22.3426 44.0718 22.3426 44.0718 22.3426 44.0718C22.3426 44.0718 22.3426 44.0997 22.3566 44.1557C22.3846 44.2956 22.4265 44.5895 22.4684 44.9952C22.6502 46.8982 22.8319 51.3337 20.637 54.384Z" fill="#FFB27D"/>
<path d="M8.76794 105.19C10.4735 106.407 13.1717 106.841 16.1495 106.799C19.6166 106.743 23.4611 106.029 26.5228 105.106C28.1724 104.616 29.5984 104.056 30.6329 103.524C35.2184 101.132 34.5614 97.9416 34.4495 86.0343C34.3377 73.8751 26.8583 58.1479 25.5162 55.5173C23.1256 50.83 12.3608 52.565 12.3608 52.565C9.99819 53.6984 9.15938 57.4762 8.9357 62.4015C8.68406 67.8724 9.17336 74.7846 9.17336 81.081C9.17336 86.2861 8.19475 90.8895 7.48176 94.7094C6.54509 99.6346 6.05578 103.273 8.76794 105.19Z" fill="#699FF0"/>
<path d="M7.46777 94.6814C9.53684 99.047 13.6191 103.958 16.1355 106.785C19.6026 106.729 23.4471 106.015 26.5088 105.092C27.795 101.999 28.3681 96.8362 27.1658 88.315C26.2571 81.8226 19.6305 55.6712 19.6305 55.6712C14.2761 54.9716 10.9488 57.896 8.90773 62.3735C8.65609 67.8444 9.1454 74.7566 9.1454 81.053C9.15938 86.2581 8.18076 90.8615 7.46777 94.6814Z" fill="#4A75CB"/>
<path d="M32.4503 115.46H27.5852V113.949C27.5852 111.444 25.5441 109.401 23.0416 109.401H19.0153C16.5129 109.401 14.4718 111.444 14.4718 113.949V115.46H9.60667C8.15273 115.46 6.95044 116.649 6.95044 118.118V130.501C6.95044 131.957 8.13875 133.16 9.60667 133.16H32.4363C33.8902 133.16 35.0925 131.971 35.0925 130.501V118.118C35.1065 116.649 33.9042 115.46 32.4503 115.46ZM16.2752 113.949C16.2752 112.437 17.5055 111.206 19.0153 111.206H23.0416C24.5515 111.206 25.7817 112.437 25.7817 113.949V115.46H16.2752V113.949V113.949Z" fill="#4A75CB"/>
<path d="M22.4266 106.351C22.4266 106.351 25.2227 111.752 23.8247 113.851C22.4266 115.95 17.4217 113.249 17.0303 112.046C16.6249 110.842 17.0303 105.036 17.0303 105.036L22.4266 106.351Z" fill="#FFB27D"/>
<path d="M10.4595 64.0805C10.4595 64.0805 11.494 78.9542 11.494 85.0967C11.4801 91.2533 16.3731 107.61 16.3731 107.61C16.3731 107.61 19.6165 107.876 20.8747 107.708C22.3426 107.526 23.2094 106.841 23.2094 106.841C23.2094 106.841 22.1329 87.5174 24.188 80.1015C26.2431 72.6997 26.341 57.812 26.341 57.812C26.341 57.812 25.2086 54.5938 18.3863 55.6152C10.2917 56.8326 10.4595 64.0805 10.4595 64.0805Z" fill="#699FF0"/>
<path d="M13.3533 47.2899C12.8361 49.0809 12.1091 51.8654 12.3607 52.551C12.3607 52.551 22.4544 53.6144 26.4947 57.5462C26.4947 57.5462 25.0408 52.1732 23.4191 50.76C22.2447 49.7246 17.7012 47.5278 15.3106 46.3944C14.5137 46.0166 13.591 46.4504 13.3533 47.2899Z" fill="#4A75CB"/>
<path d="M22.4546 44.9952C21.6577 44.9952 16.6668 45.0092 15.2548 46.1986C15.1989 46.2406 15.157 46.2685 15.115 46.2965C15.3527 44.5755 15.3387 42.8125 14.7375 41.5112C14.7935 41.1054 14.8354 40.7556 14.8774 40.4758C15.5204 40.3638 16.8066 40.8256 17.3379 41.2733C18.1627 41.9589 22.1051 43.9598 22.3148 44.0718L22.3428 44.1557C22.3707 44.2956 22.4127 44.5895 22.4546 44.9952Z" fill="#E8945B"/>
<path d="M25.67 44.6734C25.67 44.6734 17.4078 46.2546 16.513 41.0914C15.6043 35.9283 13.9267 32.6542 19.1693 31.4368C24.3978 30.2055 25.7679 31.9965 26.4949 33.6476C27.2079 35.2987 27.795 44.1417 25.67 44.6734Z" fill="#FFB27D"/>
<path d="M15.031 43.3442C15.031 43.3442 15.4644 43.0223 13.7868 40.4758C12.1092 37.9432 11.3263 38.6428 11.2983 35.9283C11.2844 33.2278 10.2778 31.6047 13.4093 29.8417C16.5409 28.0787 16.0376 26.4556 17.9249 26.0638C19.7983 25.672 22.5384 27.2252 24.1461 26.9034C25.7538 26.5815 30.8147 33.1579 27.5713 34.711C27.5713 34.711 26.0614 34.7809 25.0129 34.1373C23.9504 33.4797 20.0779 32.822 19.6305 34.0114C19.1832 35.2007 16.7226 42.4347 15.031 43.3442Z" fill="#233862"/>
<path d="M132.409 70.0693L128.019 69.4396C127.725 69.3976 127.516 69.1178 127.558 68.824L127.837 66.8511C127.879 66.5572 128.159 66.3473 128.452 66.3893L132.842 67.019C133.136 67.0609 133.345 67.3408 133.303 67.6346L133.024 69.6075C132.982 69.9014 132.702 70.1112 132.409 70.0693Z" fill="#DEEDFF"/>
<path d="M129.934 67.1631L128.508 66.9597L128.234 68.8852L129.66 69.0885L129.934 67.1631Z" fill="#739AF0"/>
<path d="M132.395 67.9978L130.619 67.7461C130.493 67.7322 130.396 67.6063 130.41 67.4665C130.424 67.3407 130.549 67.2428 130.689 67.2568L132.465 67.5085C132.59 67.5224 132.688 67.6483 132.674 67.7881C132.646 67.9139 132.535 68.0118 132.395 67.9978Z" fill="#739AF0"/>
<path d="M132.451 68.6836L130.368 68.3901C130.312 68.3761 130.284 68.3341 130.284 68.2922C130.298 68.2363 130.34 68.2083 130.382 68.2083L132.465 68.5019C132.521 68.5159 132.548 68.5578 132.548 68.5998C132.548 68.6557 132.507 68.6836 132.451 68.6836Z" fill="#739AF0"/>
<path d="M132.409 68.9774L130.326 68.6838C130.27 68.6698 130.242 68.6279 130.242 68.586C130.256 68.53 130.298 68.5021 130.34 68.5021L132.423 68.7957C132.479 68.8096 132.506 68.8516 132.506 68.8935C132.506 68.9494 132.465 68.9774 132.409 68.9774Z" fill="#739AF0"/>
<path d="M203.498 67.6065L199.458 67.3547C199.192 67.3407 198.982 67.1028 198.996 66.837L199.108 65.032C199.122 64.7661 199.36 64.5562 199.625 64.5702L203.666 64.8221C203.931 64.8361 204.141 65.074 204.127 65.3398L204.015 67.1448C204.015 67.4106 203.777 67.6205 203.498 67.6065Z" fill="#DEEDFF"/>
<path d="M201.032 65.1285L199.721 65.0477L199.612 66.8213L200.923 66.9021L201.032 65.1285Z" fill="#739AF0"/>
<path d="M203.344 65.7172L201.708 65.6193C201.583 65.6053 201.499 65.5075 201.499 65.3816C201.513 65.2558 201.611 65.1719 201.736 65.1719L203.372 65.2698C203.498 65.2838 203.582 65.3816 203.582 65.5075C203.568 65.6333 203.456 65.7311 203.344 65.7172Z" fill="#739AF0"/>
<path d="M203.442 66.333L201.527 66.2212C201.485 66.2212 201.443 66.1792 201.443 66.1373C201.443 66.0954 201.485 66.0534 201.527 66.0534L203.442 66.1652C203.484 66.1652 203.526 66.2072 203.526 66.2491C203.526 66.3051 203.484 66.333 203.442 66.333Z" fill="#739AF0"/>
<path d="M203.428 66.6129L201.513 66.5011C201.471 66.5011 201.429 66.4591 201.429 66.4172C201.429 66.3753 201.471 66.3333 201.513 66.3333L203.428 66.4452C203.47 66.4452 203.512 66.4871 203.512 66.529C203.512 66.571 203.47 66.6129 203.428 66.6129Z" fill="#739AF0"/>
<path d="M190.65 82.1724C190.65 81.8226 190.93 81.5428 191.279 81.5428C191.629 81.5428 191.908 81.8226 191.908 82.1724C191.908 82.5222 191.629 82.8021 191.279 82.8021C190.93 82.8021 190.65 82.5222 190.65 82.1724Z" fill="#A53D38"/>
<path d="M190.65 86.1602C190.65 85.8104 190.93 85.5305 191.279 85.5305C191.629 85.5305 191.908 85.8104 191.908 86.1602C191.908 86.51 191.629 86.7898 191.279 86.7898C190.93 86.7898 190.65 86.51 190.65 86.1602Z" fill="#A53D38"/>
<path opacity="0.9" d="M59.6838 136.434L261.32 136.896V111.612H59.6838V136.434Z" fill="#AFCDFB"/>
<path d="M103.805 90.8896H95.1656C95.1516 90.9036 95.1237 90.9175 95.0957 90.9315L95.1097 90.8896L96.0464 89.0986C96.0464 89.0986 96.326 88.9586 96.7593 88.7767C97.6681 88.3989 99.2199 87.8673 100.003 88.2311C101.093 88.7488 103.484 89.9381 103.805 90.8896Z" fill="#FFB27D"/>
<path d="M96.7873 88.8048C96.7873 88.8048 96.4238 90.162 95.1656 90.8896C95.1516 90.9036 95.1236 90.9176 95.0957 90.9316L95.1097 90.8896H80.081C79.6196 90.4838 78.8507 89.6862 78.0818 88.427C77.8441 88.0352 77.6065 87.5874 77.3688 87.0977C76.6279 85.5026 75.9988 83.3758 75.817 80.6473C75.4535 75.3583 75.0761 66.6272 74.8803 61.52C74.7825 59.0574 74.7266 57.4483 74.7266 57.4483C74.8244 57.5043 80.6821 61.3801 81.8984 73.3574C81.8984 73.3574 82.206 82.984 83.2824 83.7396C84.3449 84.4952 95.7388 87.5734 96.7733 88.8048C96.7733 88.7908 96.7733 88.7908 96.7873 88.8048Z" fill="#AA413E"/>
<path d="M72.7554 39.7342C72.7554 39.7342 71.9865 28.6804 57.6288 32.864C54.3714 33.8155 54.7908 43.652 62.6756 47.4019L72.7554 39.7342Z" fill="#2B478B"/>
<path d="M67.0234 54.328C67.0234 54.328 72.6434 55.3494 74.7264 57.4343C76.8095 59.5191 81.7305 65.6756 78.6269 86.1742C78.6269 86.1742 78.3753 92.3587 71.4411 92.9464C64.4929 93.548 67.0234 54.328 67.0234 54.328Z" fill="#B64C41"/>
<path d="M54.1059 105.329C55.0706 112.06 61.5574 129.55 61.3616 135.595C61.2079 140.352 61.2917 151.364 61.9209 158.682C62.0886 160.668 62.2983 162.376 62.5639 163.621C63.1231 166.321 63.8361 169.428 64.2276 171.386C65.0804 175.78 64.633 178.341 65.332 180.705C66.1009 183.28 74.9364 182.818 72.2802 181.251C71.3295 180.691 69.9455 179.502 69.2604 177.977C66.772 172.408 70.253 148.411 71.3016 139.163C71.4414 138.001 71.5252 137.092 71.5672 136.462C71.9167 130.753 75.8311 92.6665 75.8311 92.6665C66.2966 87.3355 53.1553 98.5992 54.1059 105.329Z" fill="#D9935C"/>
<path d="M54.1058 105.329C55.0704 112.06 61.5572 129.55 61.3615 135.595C61.2077 140.352 61.2916 151.364 61.9207 158.682L71.2874 139.135C71.4272 137.973 71.5111 137.064 71.5531 136.434C71.9026 130.725 75.9149 92.6246 75.9149 92.6246C66.4083 87.3215 53.1551 98.5992 54.1058 105.329Z" fill="#CB8757"/>
<path d="M74.7686 93.8699C74.7686 93.8699 66.5902 131.481 65.6675 137.134C64.7449 142.787 57.2934 169.372 58.9151 176.032C59.8658 179.964 61.5434 181.125 61.5434 181.125C61.9348 181.853 55.476 183.28 54.9447 180.523C54.2877 177.025 54.1479 172.1 53.1693 163.775C51.4916 149.433 54.8189 141.261 55.6158 135.273C56.4266 129.27 52.9176 110.213 54.8609 103.706C58.2581 92.3028 65.8493 87.6294 74.7686 93.8699Z" fill="#D9935C"/>
<path d="M76.9634 127.059C75.5234 127.661 73.9297 128.095 72.266 128.417H72.252C70.6303 128.724 68.9387 128.92 67.2611 129.046C64.8985 129.2 62.5778 129.2 60.5087 129.116L59.9075 122.148L59.2784 124.667L58.202 128.99C57.2094 128.92 56.3146 128.836 55.5597 128.766C53.938 128.598 52.9454 128.444 52.9454 128.444C51.114 113.333 53.3089 103.804 55.7974 98.1794C56.5803 96.4024 57.4051 95.0032 58.1181 93.9538C58.5095 93.3941 58.873 92.9184 59.1946 92.5406C59.4602 92.2328 59.6839 91.9809 59.8796 91.785C60.2431 91.4072 60.4668 91.2393 60.4668 91.2393C61.3195 91.5611 62.1444 91.841 62.9552 92.0648C63.5424 92.2327 64.1016 92.3727 64.6608 92.4986C64.6748 92.4986 64.6748 92.4986 64.6888 92.4986C65.0662 92.5826 65.4437 92.6525 65.8212 92.7225C65.961 92.7505 66.1008 92.7645 66.2266 92.7924C66.66 92.8624 67.0934 92.9184 67.5128 92.9743C69.9174 93.2542 71.9585 93.1842 73.4404 93.0303C74.7126 92.9044 75.5514 92.7225 75.831 92.6525C75.9009 92.6385 75.9288 92.6245 75.9288 92.6245L75.9428 93.0163L76.1385 99.5786L76.9634 127.059Z" fill="#B64C41"/>
<path d="M62.8715 182.524H55.1544C54.5533 181.433 53.7564 178.201 53.1552 177.515C53.1133 177.473 53.0574 177.417 53.0154 177.347L52.9595 182.524H52.2605C52.2465 181.419 52.1627 177.557 51.7852 175.402C51.3658 174.619 51.0722 173.849 51.212 173.527C51.4776 172.856 53.9521 171.358 53.9521 171.358C53.9521 171.358 55.7835 180.523 56.6503 180.747C58.7194 181.265 60.7884 181.069 61.3756 180.999C61.4874 180.985 62.4101 181.405 62.7596 181.951C62.8575 182.132 62.9274 182.314 62.8715 182.524Z" fill="#B64C41"/>
<path d="M73.2166 182.524H65.4856C64.8984 181.447 64.1155 178.271 63.5144 177.543L63.4585 182.524H62.7595C62.7595 182.384 62.7595 182.188 62.7455 181.951C62.7175 180.537 62.6197 177.725 62.3401 175.822C61.8088 174.898 61.3754 173.905 61.5292 173.513C61.7948 172.842 64.2134 171.358 64.2134 171.358C64.2134 171.358 64.2274 171.442 64.2553 171.568C64.2553 171.582 64.2553 171.61 64.2693 171.624C64.2693 171.652 64.2833 171.68 64.2833 171.708C64.2833 171.736 64.2973 171.75 64.2973 171.778C64.6468 173.555 66.0868 180.509 66.9675 180.733C69.3302 181.321 71.6928 180.985 71.8606 180.971H71.8745C71.8745 180.971 73.4124 181.713 73.2166 182.524Z" fill="#B64C41"/>
<path d="M77.3829 87.0837C77.1312 88.4969 76.8656 89.7282 76.6419 90.6797C76.628 90.7496 76.614 90.8196 76.6 90.8755C76.2924 92.2048 76.0687 92.9604 76.0687 92.9604C76.0268 92.9744 75.9849 92.9884 75.9569 93.0023C75.9429 93.0163 75.915 93.0163 75.901 93.0163C75.873 93.0303 75.8311 93.0443 75.8031 93.0443C75.2719 93.2122 74.7546 93.3661 74.2373 93.4921C71.3854 94.2057 68.869 94.2616 66.7579 94.0238C65.6116 93.8978 64.591 93.674 63.7103 93.4221C63.5006 93.3661 63.3048 93.3102 63.1231 93.2402C63.1091 93.2402 63.1091 93.2402 63.0951 93.2262C62.6058 93.0723 62.1724 92.9044 61.795 92.7365C60.6206 92.2468 59.9496 91.799 59.8937 91.757C59.9915 91.5192 60.0754 91.2113 60.1453 90.8615C60.2851 90.2039 60.369 89.3504 60.4109 88.3569C60.4948 86.6499 60.4669 84.4951 60.383 82.1444C60.383 82.0745 60.383 82.0045 60.369 81.9345C60.2432 78.9822 60.0335 75.708 59.7958 72.5178C59.6141 70.0692 59.4463 67.6905 59.2925 65.5497C59.2506 64.8921 59.2086 64.2624 59.1667 63.6608C58.971 60.2887 58.9151 57.798 59.2086 57.1404C59.67 56.147 61.082 55.5453 62.5779 55.1815C62.7876 55.1255 63.0113 55.0836 63.221 55.0416C63.2489 55.0416 63.1511 54.8037 63.193 54.7897C63.4027 54.7478 63.7242 54.9437 63.9339 54.9157C64.0178 54.9017 64.1017 54.8877 64.1996 54.8737C65.5417 54.6778 66.716 54.6358 66.9956 54.6218C67.0375 54.6218 67.0655 54.6218 67.0655 54.6218C67.0655 54.6218 68.0162 55.0836 69.3722 56.049C69.4701 56.119 70.7982 55.2655 70.9101 55.3354C72.4479 56.4688 74.2793 58.5116 75.1321 61.2681C76.2785 65.018 77.984 66.879 78.3335 70.5729C78.9067 76.6315 78.1658 82.7741 77.3829 87.0837Z" fill="#E7F0FD"/>
<path d="M54.7908 93.646C57.6707 94.2337 62.2562 93.9399 65.6534 92.9604C66.7858 92.6386 67.7784 92.2328 68.5333 91.7711C71.567 89.8961 73.0489 76.0439 72.5176 70.8108C72.0004 65.5777 63.1929 54.8177 63.1929 54.8177C61.0259 56.4268 60.0753 60.1488 58.7891 65.046C55.6715 76.8414 54.7908 93.646 54.7908 93.646Z" fill="#B64C41"/>
<path d="M54.7908 93.646C57.6707 94.2337 62.2562 93.9398 65.6534 92.9604C66.8976 91.1834 67.9042 89.0146 68.4354 86.3701C69.9872 78.7303 63.8779 70.433 58.7891 65.06C55.6715 76.8414 54.7908 93.646 54.7908 93.646Z" fill="#AA413E"/>
<path d="M73.1048 82.0046L66.3384 77.1073C65.4996 76.5057 64.3252 76.6876 63.7101 77.5271L56.1608 88.0072C55.5596 88.8468 55.7414 90.0221 56.5802 90.6378L63.3466 95.535C64.1854 96.1367 65.3598 95.9548 65.9749 95.1153L73.5242 84.6351C74.1253 83.7956 73.9296 82.6203 73.1048 82.0046Z" fill="#233862"/>
<path d="M67.0933 87.2516C67.0933 87.2516 70.4066 86.9158 70.812 87.4755C71.2175 88.0351 70.854 90.1899 68.9946 90.4138C67.1352 90.6377 65.0103 89.1125 65.0103 89.1125L67.0933 87.2516Z" fill="#DA935B"/>
<path d="M63.193 54.8177C63.193 54.8177 57.3073 55.5174 54.7489 60.8204C52.1906 66.1234 49.4505 79.7798 50.1355 81.0671C50.8205 82.3403 59.0688 89.2245 65.8492 90.106C65.8492 90.106 67.3171 88.245 67.2193 86.566C67.2193 86.566 58.0902 80.8712 57.3073 79.2901C56.5244 77.7229 64.2834 64.6542 64.1856 62.3875C64.0877 60.1348 63.193 54.8177 63.193 54.8177Z" fill="#B64C41"/>
<path d="M69.8336 37.5374C69.8336 37.5374 73.2867 37.9572 73.4824 41.945C73.4824 41.945 74.9923 35.6205 69.526 35.7464C64.0598 35.8863 69.8336 37.5374 69.8336 37.5374Z" fill="#2B478B"/>
<path d="M70.91 55.3634C70.91 55.3634 70.6025 52.0333 70.6724 51.1658C70.7143 50.732 70.7563 50.4662 70.7563 50.4662L70.6724 50.4382L63.7662 48.3254C63.7662 48.3813 63.7662 48.4373 63.7662 48.4933C63.6823 50.3682 63.5705 51.8094 63.4586 52.9428C63.4446 53.0827 63.4306 53.2366 63.4167 53.3626C63.3607 53.9362 63.2908 54.412 63.2209 54.8177C64.563 55.4054 65.6675 55.8112 66.5762 56.077C69.0507 56.8046 70.1272 56.5108 70.5885 56.077C70.952 55.7132 70.91 55.4194 70.91 55.3634Z" fill="#FFB27D"/>
<path d="M70.1271 50.4382V51.1658C70.1271 51.1658 66.1428 51.2078 63.4446 52.9428C63.5564 51.8234 63.6683 50.3682 63.7521 48.4933L70.1271 50.4382Z" fill="#E8945B"/>
<path d="M72.0285 50.9419C72.0285 50.9419 63.6544 52.621 62.6897 47.3879C61.7251 42.1548 59.9916 38.8387 65.2901 37.5514C70.6025 36.2501 72.0005 38.0551 72.7555 39.7342C73.5104 41.3993 74.1815 50.3682 72.0285 50.9419Z" fill="#FFB27D"/>
<path d="M69.1905 36.39C69.1905 36.39 71.5531 39.3564 67.2333 42.0709C62.9134 44.7853 63.2489 50.2143 64.3953 51.7394C64.3953 51.7394 55.7975 43.3441 59.7818 38.3349C63.7662 33.3397 69.1905 36.39 69.1905 36.39Z" fill="#2B478B"/>
<path d="M247.494 69.9433L242.992 90.8476H260.523L264.438 69.9433H247.494Z" fill="#699FF0"/>
<path d="M248.095 70.601L244.026 89.4904H259.866L263.403 70.601H248.095Z" fill="#AFCDFB"/>
<path d="M261.32 72.1261H249.269C249.045 72.1261 248.863 72.3078 248.863 72.5315C248.863 72.7552 249.045 72.9369 249.269 72.9369H261.32C261.543 72.9369 261.725 72.7552 261.725 72.5315C261.725 72.3078 261.543 72.1261 261.32 72.1261Z" fill="#699FF0"/>
<path d="M260.705 74.0289H248.654C248.43 74.0289 248.248 74.2107 248.248 74.4344C248.248 74.658 248.43 74.8398 248.654 74.8398H260.705C260.928 74.8398 261.11 74.658 261.11 74.4344C261.11 74.2107 260.928 74.0289 260.705 74.0289Z" fill="#699FF0"/>
<path d="M260.327 75.848H248.276C248.053 75.848 247.871 76.0298 247.871 76.2535C247.871 76.4771 248.053 76.6589 248.276 76.6589H260.327C260.551 76.6589 260.733 76.4771 260.733 76.2535C260.733 76.0298 260.551 75.848 260.327 75.848Z" fill="#699FF0"/>
<path d="M259.768 79.6259H247.717C247.493 79.6259 247.312 79.8076 247.312 80.0313C247.312 80.255 247.493 80.4368 247.717 80.4368H259.768C259.992 80.4368 260.174 80.255 260.174 80.0313C260.174 79.8076 259.992 79.6259 259.768 79.6259Z" fill="#699FF0"/>
<path d="M259.153 81.5289H247.102C246.878 81.5289 246.697 81.7106 246.697 81.9343C246.697 82.158 246.878 82.3397 247.102 82.3397H259.153C259.377 82.3397 259.558 82.158 259.558 81.9343C259.558 81.7106 259.377 81.5289 259.153 81.5289Z" fill="#699FF0"/>
<path d="M258.775 83.3478H246.725C246.501 83.3478 246.319 83.5295 246.319 83.7532C246.319 83.9769 246.501 84.1586 246.725 84.1586H258.775C258.999 84.1586 259.181 83.9769 259.181 83.7532C259.167 83.5295 258.985 83.3478 258.775 83.3478Z" fill="#699FF0"/>
<path d="M240.022 81.5814L237.413 90.2353L237.895 90.3808L240.503 81.7269L240.022 81.5814Z" fill="#A53D38"/>
<path d="M237.763 89.4203C236.869 89.4203 236.128 90.05 236.016 90.8615H239.511C239.385 90.036 238.658 89.4203 237.763 89.4203Z" fill="#B64C41"/>
<path d="M240.042 90.6237C239.371 90.6237 238.714 90.5118 238.658 90.4978L238.672 90.3858C239.343 90.4978 241.119 90.6797 241.314 90.12C241.398 89.8681 241.314 89.4484 241.203 88.8747C240.993 87.8253 240.685 86.2301 241.049 84.0054C241.342 82.2704 241.119 81.7387 240.895 81.5987C240.657 81.4588 240.322 81.7107 240.322 81.7247L240.252 81.6407C240.266 81.6267 240.643 81.3329 240.951 81.5148C241.328 81.7387 241.398 82.5922 241.161 84.0334C240.797 86.2302 241.105 87.8113 241.314 88.8607C241.426 89.4623 241.524 89.8961 241.412 90.1619C241.3 90.5257 240.671 90.6237 240.042 90.6237Z" fill="#B64C41"/>
<path d="M218.639 102.167L219.673 104.252L221.966 104.588L220.302 106.211L220.694 108.492L218.639 107.414L216.583 108.492L216.975 106.211L215.311 104.588L217.618 104.252L218.639 102.167Z" fill="#F1A34F"/>
<path d="M228.383 102.167L229.417 104.252L231.71 104.588L230.046 106.211L230.438 108.492L228.383 107.414L226.328 108.492L226.719 106.211L225.055 104.588L227.362 104.252L228.383 102.167Z" fill="#F1A34F"/>
<path d="M238.169 102.167L239.203 104.252L241.496 104.588L239.833 106.211L240.224 108.492L238.169 107.414L236.114 108.492L236.505 106.211L234.842 104.588L237.148 104.252L238.169 102.167Z" fill="#F1A34F"/>
<path d="M246.655 102.167L247.689 104.252L249.982 104.588L248.319 106.211L248.71 108.492L246.655 107.414L244.6 108.492L244.991 106.211L243.328 104.588L245.634 104.252L246.655 102.167Z" fill="#F1A34F"/>
</svg>
