<svg width="41" height="40" viewBox="0 0 41 40" fill="none" xmlns="http://www.w3.org/2000/svg">
<path fill-rule="evenodd" clip-rule="evenodd" d="M2.75 20C2.75 24.6413 4.59374 29.0925 7.87563 32.3744C11.1575 35.6563 15.6087 37.5 20.25 37.5C24.8913 37.5 29.3425 35.6563 32.6244 32.3744C35.9063 29.0925 37.75 24.6413 37.75 20C37.75 15.3587 35.9063 10.9075 32.6244 7.62563C29.3425 4.34374 24.8913 2.5 20.25 2.5C15.6087 2.5 11.1575 4.34374 7.87563 7.62563C4.59374 10.9075 2.75 15.3587 2.75 20ZM40.25 20C40.25 25.3043 38.1429 30.3914 34.3921 34.1421C30.6414 37.8929 25.5543 40 20.25 40C14.9457 40 9.85859 37.8929 6.10786 34.1421C2.35714 30.3914 0.25 25.3043 0.25 20C0.25 14.6957 2.35714 9.60859 6.10786 5.85786C9.85859 2.10714 14.9457 0 20.25 0C25.5543 0 30.6414 2.10714 34.3921 5.85786C38.1429 9.60859 40.25 14.6957 40.25 20ZM21.5 28.75C21.5 29.0815 21.3683 29.3995 21.1339 29.6339C20.8995 29.8683 20.5815 30 20.25 30C19.9185 30 19.6005 29.8683 19.3661 29.6339C19.1317 29.3995 19 29.0815 19 28.75V14.2675L13.635 19.635C13.4003 19.8697 13.0819 20.0016 12.75 20.0016C12.4181 20.0016 12.0997 19.8697 11.865 19.635C11.6303 19.4003 11.4984 19.0819 11.4984 18.75C11.4984 18.4181 11.6303 18.0997 11.865 17.865L19.365 10.365C19.4811 10.2486 19.6191 10.1562 19.7709 10.0932C19.9228 10.0302 20.0856 9.99777 20.25 9.99777C20.4144 9.99777 20.5772 10.0302 20.7291 10.0932C20.8809 10.1562 21.0189 10.2486 21.135 10.365L28.635 17.865C28.8697 18.0997 29.0016 18.4181 29.0016 18.75C29.0016 19.0819 28.8697 19.4003 28.635 19.635C28.4003 19.8697 28.0819 20.0016 27.75 20.0016C27.4181 20.0016 27.0997 19.8697 26.865 19.635L21.5 14.2675V28.75Z" fill="white"/>
</svg>
