<svg width="109" height="27" viewBox="0 0 109 27" fill="none" xmlns="http://www.w3.org/2000/svg">
<path d="M14.8303 11.0934C14.8303 9.97605 14.6372 9.14311 14.251 8.5946C13.8648 8.02579 13.377 7.63976 12.7875 7.43663C12.2184 7.2335 11.6594 7.14208 11.1105 7.16237L9.12868 7.19285C8.70182 7.19285 8.33594 7.25379 8.03104 7.37568C7.72614 7.47728 7.4924 7.72106 7.32977 8.10703C7.16713 8.4727 7.08585 9.05169 7.08585 9.84398V14.1102L8.91525 14.0492C10.9073 13.9883 12.5131 14.1204 13.7327 14.4454C14.9726 14.7704 15.9178 15.2377 16.5682 15.8471C17.239 16.4363 17.6862 17.1168 17.9098 17.8888C18.1537 18.6608 18.2757 19.4734 18.2757 20.3266C18.2757 21.6674 17.9505 22.8051 17.3 23.7396C16.6699 24.6538 15.7958 25.3445 14.6779 25.8117C13.5599 26.279 12.2895 26.5126 10.8666 26.5126H0.5V24.5014C0.967516 24.4811 1.35372 24.4202 1.65862 24.3186C1.98385 24.217 2.22777 23.9834 2.39038 23.6177C2.57332 23.252 2.66479 22.6629 2.66479 21.8503V10.1792C2.66479 9.63067 2.67496 9.10246 2.69528 8.5946C2.73594 8.08674 2.76643 7.70071 2.78675 7.43663C2.46153 7.45692 2.05499 7.47728 1.56715 7.49757C1.07931 7.49757 0.723596 7.50775 0.5 7.52805V5.18164H16.6597L16.8122 11.0934H14.8303ZM7.08585 21.6674C7.08585 22.2159 7.07566 22.734 7.05536 23.2215C7.03505 23.7091 7.00456 24.085 6.96389 24.349C7.32977 24.349 7.67534 24.349 8.00055 24.349C8.32575 24.349 8.65102 24.349 8.97623 24.349C9.30143 24.3287 9.61652 24.3186 9.92142 24.3186C11.1613 24.2576 12.0659 23.8513 12.635 23.0997C13.2042 22.348 13.4888 21.383 13.4888 20.2047C13.4888 19.1484 13.2956 18.3357 12.9094 17.7669C12.5233 17.1981 12.0252 16.802 11.4154 16.5785C10.8259 16.355 10.206 16.2433 9.55554 16.2433C9.04739 16.2433 8.61035 16.2433 8.24447 16.2433C7.87859 16.223 7.4924 16.2331 7.08585 16.2737V21.6674ZM28.8598 26.5126C28.8191 26.2282 28.7887 25.9946 28.7683 25.8117C28.7683 25.6086 28.7582 25.3749 28.7378 25.1109C28.0467 25.8016 27.3149 26.2891 26.5425 26.5736C25.7701 26.858 24.9875 27.0002 24.1948 27.0002C22.8939 27.0002 21.8775 26.6142 21.1458 25.8422C20.414 25.0702 20.0481 24.1053 20.0481 22.9473C20.0481 21.9722 20.2921 21.1392 20.7799 20.4485C21.2881 19.7578 21.9487 19.1991 22.7617 18.7725C23.5952 18.3256 24.5099 17.9904 25.5058 17.7669C26.5222 17.5231 27.5386 17.3809 28.5549 17.3403V15.7557C28.5549 15.2275 28.4837 14.7501 28.3414 14.3235C28.2195 13.8969 27.9959 13.5617 27.6706 13.3179C27.3657 13.0741 26.9288 12.9624 26.3596 12.9827C25.9734 13.003 25.5973 13.0843 25.2314 13.2265C24.8656 13.3687 24.5505 13.5718 24.2862 13.8359C24.4489 14.0188 24.5505 14.2219 24.5911 14.4454C24.6318 14.6485 24.6521 14.8313 24.6521 14.9939C24.6521 15.4002 24.4896 15.8268 24.1643 16.2737C23.8391 16.7004 23.3207 16.9035 22.6093 16.8832C21.9995 16.8629 21.532 16.6496 21.2068 16.2433C20.8815 15.8369 20.7189 15.3596 20.7189 14.811C20.7189 13.9985 21.0035 13.2976 21.5726 12.7084C22.1621 12.099 22.9447 11.6317 23.9204 11.3067C24.896 10.9613 25.9734 10.7886 27.1523 10.7886C28.9411 10.7886 30.3233 11.2559 31.299 12.1904C32.295 13.1046 32.793 14.5774 32.793 16.6089C32.793 17.2996 32.793 17.8888 32.793 18.3764C32.793 18.8639 32.7828 19.3515 32.7625 19.8391C32.7625 20.3266 32.7625 20.9158 32.7625 21.6065C32.7625 21.8909 32.7524 22.2972 32.732 22.8254C32.7117 23.3333 32.6812 23.8208 32.6405 24.2881C32.9861 24.2474 33.352 24.2271 33.7382 24.2271C34.1244 24.2069 34.4191 24.1967 34.6224 24.1967V26.5126H28.8598ZM28.5244 19.5039C27.9552 19.5648 27.4166 19.6664 26.9084 19.8086C26.4002 19.9508 25.9531 20.1438 25.5668 20.3876C25.2009 20.6314 24.9062 20.9259 24.6826 21.2713C24.4794 21.6167 24.3777 22.0026 24.3777 22.4293C24.3981 22.9981 24.581 23.4044 24.9265 23.6482C25.2721 23.8919 25.6685 24.0138 26.1156 24.0138C26.5832 24.0138 27.0202 23.9122 27.4267 23.7091C27.8333 23.506 28.1992 23.2418 28.5244 22.9168C28.5244 22.7137 28.5244 22.5207 28.5244 22.3378C28.5244 22.1347 28.5244 21.9315 28.5244 21.7284C28.5244 21.3627 28.5244 20.997 28.5244 20.6314C28.5244 20.2454 28.5244 19.8695 28.5244 19.5039ZM44.3003 13.2569C43.7515 13.2569 43.345 13.3686 43.0807 13.5921C42.8368 13.8156 42.6742 14.1305 42.5929 14.5368C42.5319 14.9431 42.5014 15.4205 42.5014 15.969V21.6065C42.5014 21.8909 42.4913 22.2972 42.4709 22.8254C42.4506 23.3333 42.4201 23.8208 42.3795 24.2881C42.7047 24.2474 43.0604 24.2271 43.4466 24.2271C43.8532 24.2069 44.1581 24.1967 44.3613 24.1967V26.5126H36.3729V24.5319C36.9421 24.5319 37.3486 24.4202 37.5925 24.1967C37.8364 23.9732 37.9889 23.6583 38.0499 23.252C38.1312 22.8254 38.1718 22.348 38.1718 21.8198V16.1823C38.1718 15.8979 38.182 15.4916 38.2023 14.9634C38.2227 14.4352 38.2532 13.9476 38.2938 13.5007C37.9686 13.521 37.6129 13.5414 37.2266 13.5617C36.8405 13.582 36.5356 13.5921 36.3119 13.5921V11.2762H44.3003V13.2569ZM48.8129 13.8359L50.2764 15.3596L41.5257 23.7701L40.0317 22.2159L48.8129 13.8359ZM54.1791 13.2569C53.6303 13.2569 53.2238 13.3686 52.9595 13.5921C52.7156 13.8156 52.553 14.1305 52.4717 14.5368C52.4107 14.9431 52.3802 15.4205 52.3802 15.969V21.6065C52.3802 21.8909 52.3701 22.2972 52.3497 22.8254C52.3294 23.3333 52.2989 23.8208 52.2582 24.2881C52.5835 24.2474 52.9392 24.2271 53.3254 24.2271C53.7319 24.2069 54.0368 24.1967 54.2401 24.1967V26.5126H46.2517V24.5319C46.8209 24.5319 47.2274 24.4202 47.4713 24.1967C47.7152 23.9732 47.8677 23.6583 47.9286 23.252C48.01 22.8254 48.0506 22.348 48.0506 21.8198V16.1823C48.0506 15.8979 48.0608 15.4916 48.0811 14.9634C48.1015 14.4352 48.132 13.9476 48.1726 13.5007C47.8474 13.521 47.4917 13.5414 47.1054 13.5617C46.7192 13.582 46.4143 13.5921 46.1907 13.5921V11.2762H54.1791V13.2569ZM55.9537 26.5126V24.5319C56.5229 24.5319 56.9294 24.4202 57.1733 24.1967C57.4376 23.9732 57.6002 23.6583 57.6612 23.252C57.7425 22.8254 57.7831 22.348 57.7831 21.8198V16.1823C57.7831 15.8979 57.7933 15.4916 57.8136 14.9634C57.8339 14.4352 57.8644 13.9476 57.9051 13.5007C57.5799 13.521 57.2241 13.5414 56.8379 13.5617C56.4518 13.582 56.1469 13.5921 55.9232 13.5921V11.2762H63.9119V13.2569C63.3424 13.2569 62.9259 13.3686 62.6619 13.5921C62.4179 13.8156 62.2655 14.1305 62.2045 14.5368C62.1435 14.9431 62.113 15.4205 62.113 15.969V17.4012H63.5766L65.7718 14.872C66.0359 14.5876 66.2493 14.3438 66.4121 14.1406C66.5951 13.9375 66.778 13.7547 66.9609 13.5921H65.345V11.2762H72.2052V13.2265C71.4936 13.3077 70.8637 13.4804 70.3148 13.7445C69.766 13.9883 69.2879 14.2828 68.8818 14.6282C68.4952 14.9736 68.1598 15.3088 67.8756 15.6338L65.9243 17.7974C66.2292 17.9599 66.5237 18.1834 66.8085 18.4678C67.1134 18.7319 67.4793 19.1484 67.9061 19.7172L69.949 22.3988C70.0709 22.541 70.2234 22.734 70.4063 22.9778C70.6094 23.2215 70.8332 23.4653 71.0771 23.7091C71.321 23.9326 71.5851 24.1256 71.8698 24.2881C72.154 24.4506 72.4492 24.5319 72.7541 24.5319V26.5126H69.2477C68.597 26.5126 68.0281 26.2891 67.5403 25.8422C67.0524 25.3749 66.4932 24.7147 65.8633 23.8615C65.4974 23.3739 65.1108 22.8559 64.7047 22.3074C64.3181 21.7386 63.9522 21.2103 63.607 20.7228C63.2814 20.2149 63.0174 19.8188 62.8143 19.5343L62.113 19.5648V21.6065C62.113 21.8909 62.1027 22.2972 62.0825 22.8254C62.0618 23.3333 62.0313 23.8208 61.9911 24.2881C62.3161 24.2474 62.6716 24.2271 63.0582 24.2271C63.4442 24.2069 63.7491 24.1967 63.9729 24.1967V26.5126H55.9537ZM82.9024 26.5126C82.8615 26.2282 82.831 25.9946 82.8109 25.8117C82.8109 25.6086 82.8005 25.3749 82.7804 25.1109C82.0889 25.8016 81.3571 26.2891 80.5851 26.5736C79.8125 26.858 79.0301 27.0002 78.2374 27.0002C76.9361 27.0002 75.9201 26.6142 75.1884 25.8422C74.4566 25.0702 74.0907 24.1053 74.0907 22.9473C74.0907 21.9722 74.3347 21.1392 74.8225 20.4485C75.3305 19.7578 75.9909 19.1991 76.8043 18.7725C77.6373 18.3256 78.552 17.9904 79.5485 17.7669C80.5644 17.5231 81.5809 17.3809 82.5975 17.3403V15.7557C82.5975 15.2275 82.5261 14.7501 82.384 14.3235C82.2621 13.8969 82.0383 13.5617 81.7132 13.3179C81.4083 13.0741 80.9711 12.9624 80.4022 12.9827C80.0156 13.003 79.6399 13.0843 79.274 13.2265C78.9082 13.3687 78.5929 13.5718 78.3288 13.8359C78.4911 14.0188 78.5929 14.2219 78.6338 14.4454C78.674 14.6485 78.6947 14.8313 78.6947 14.9939C78.6947 15.4002 78.5319 15.8268 78.2069 16.2737C77.8812 16.7004 77.3629 16.9035 76.6519 16.8832C76.0421 16.8629 75.5744 16.6496 75.2494 16.2433C74.9237 15.8369 74.7615 15.3596 74.7615 14.811C74.7615 13.9985 75.0457 13.2976 75.6152 12.7084C76.2043 12.099 76.9873 11.6317 77.963 11.3067C78.9386 10.9613 80.0156 10.7886 81.1949 10.7886C82.9835 10.7886 84.3659 11.2559 85.3416 12.1904C86.3374 13.1046 86.8356 14.5774 86.8356 16.6089C86.8356 17.2996 86.8356 17.8888 86.8356 18.3764C86.8356 18.8639 86.8252 19.3515 86.8051 19.8391C86.8051 20.3266 86.8051 20.9158 86.8051 21.6065C86.8051 21.8909 86.7947 22.2972 86.7746 22.8254C86.7539 23.3333 86.7234 23.8208 86.6831 24.2881C87.0283 24.2474 87.3941 24.2271 87.7808 24.2271C88.1668 24.2069 88.4613 24.1967 88.665 24.1967V26.5126H82.9024ZM82.567 19.5039C81.9974 19.5648 81.4589 19.6664 80.951 19.8086C80.4424 19.9508 79.9954 20.1438 79.6094 20.3876C79.2435 20.6314 78.9484 20.9259 78.7252 21.2713C78.5215 21.6167 78.4203 22.0026 78.4203 22.4293C78.4404 22.9981 78.6234 23.4044 78.9691 23.6482C79.3143 23.8919 79.7107 24.0138 80.1582 24.0138C80.6254 24.0138 81.0626 23.9122 81.4693 23.7091C81.8755 23.506 82.2413 23.2418 82.567 22.9168C82.567 22.7137 82.567 22.5207 82.567 22.3378C82.567 22.1347 82.567 21.9315 82.567 21.7284C82.567 21.3627 82.567 20.997 82.567 20.6314C82.567 20.2454 82.567 19.8695 82.567 19.5039ZM92.5494 26.9392C91.6146 26.9392 90.8419 26.6853 90.2322 26.1774C89.6224 25.6695 89.3175 25.0093 89.3175 24.1967C89.3175 23.5263 89.5108 23.0184 89.8968 22.673C90.2834 22.3074 90.7913 22.1245 91.4213 22.1245C92.0719 22.1245 92.5293 22.2972 92.7933 22.6426C93.0781 22.9879 93.2202 23.3637 93.2202 23.7701C93.2202 24.0341 93.1897 24.2373 93.1287 24.3795C93.0677 24.5014 92.997 24.6131 92.9153 24.7147C92.9763 24.7757 93.0781 24.8061 93.2202 24.8061C93.769 24.8061 94.2471 24.349 94.6532 23.4349C95.0599 22.5207 95.3953 21.2103 95.6594 19.5039C95.924 17.7974 96.1271 15.7455 96.2692 13.3484L93.3726 13.5921V11.2762H108.343V13.2569C107.774 13.2569 107.358 13.3686 107.093 13.5921C106.849 13.8156 106.687 14.1305 106.605 14.5368C106.544 14.9431 106.514 15.4205 106.514 15.969V21.6065C106.514 21.8909 106.504 22.2972 106.483 22.8254C106.463 23.3333 106.433 23.8208 106.392 24.2881L108.374 24.1967V26.5126H100.355V24.5319C100.924 24.5319 101.331 24.4202 101.574 24.1967C101.839 23.9732 102.001 23.6583 102.062 23.252C102.144 22.8254 102.184 22.348 102.184 21.8198V16.1823C102.184 15.8979 102.195 15.5221 102.215 15.0548C102.235 14.5673 102.266 14.1102 102.306 13.6836H100.019C99.5316 13.6836 99.1865 13.7648 98.9828 13.9273C98.7797 14.0899 98.6578 14.4251 98.6169 14.9329C98.4949 16.9644 98.2718 18.7319 97.9461 20.2352C97.6412 21.7386 97.2351 22.9879 96.7265 23.9834C96.2387 24.9788 95.6393 25.7203 94.9276 26.2079C94.2367 26.6954 93.444 26.9392 92.5494 26.9392Z" fill="#2F70D9"/>
<path d="M34.3832 0.13689V2.03549H30.9412V8.8383H28.577V0.13689H34.3832ZM43.7744 4.47569C43.7744 5.14628 43.693 5.75732 43.5303 6.30882C43.3714 6.85635 43.1213 7.32856 42.7799 7.72531C42.4385 8.12213 41.9998 8.42765 41.4638 8.64188C40.9279 8.8522 40.2867 8.95733 39.5403 8.95733C38.8098 8.95733 38.1766 8.8522 37.6406 8.64188C37.1087 8.42765 36.67 8.12408 36.3245 7.73129C35.9792 7.33453 35.7231 6.86037 35.5564 6.30882C35.3896 5.75732 35.3062 5.14226 35.3062 4.46381C35.3062 3.55913 35.4552 2.77348 35.7529 2.10691C36.0546 1.43635 36.5191 0.918548 37.1464 0.553508C37.7736 0.184501 38.5756 0 39.5522 0C40.5447 0 41.3506 0.184501 41.97 0.553508C42.5933 0.922516 43.0499 1.4423 43.3397 2.11286C43.6295 2.78342 43.7744 3.57102 43.7744 4.47569ZM37.7836 4.47569C37.7836 4.99946 37.8431 5.44979 37.9622 5.82674C38.0813 6.20368 38.2699 6.4933 38.5279 6.6957C38.786 6.89804 39.1235 6.99921 39.5403 6.99921C39.973 6.99921 40.3165 6.89804 40.5705 6.6957C40.8286 6.4933 41.0132 6.20368 41.1243 5.82674C41.2395 5.44979 41.297 4.99946 41.297 4.47569C41.297 3.69004 41.1661 3.06913 40.904 2.61283C40.642 2.15653 40.1914 1.92836 39.5522 1.92836C39.1274 1.92836 38.784 2.03152 38.522 2.23783C38.264 2.44419 38.0753 2.73777 37.9563 3.11868C37.8411 3.49959 37.7836 3.95193 37.7836 4.47569ZM49.2233 1.94026C48.9454 1.94026 48.6973 1.99978 48.4789 2.11881C48.2605 2.23387 48.0739 2.40251 47.9191 2.62471C47.7643 2.84692 47.6452 3.11868 47.5618 3.44011C47.4824 3.75751 47.4427 4.11861 47.4427 4.52329C47.4427 5.07089 47.5122 5.53115 47.6512 5.90408C47.7901 6.27706 48.0005 6.55882 48.2824 6.74927C48.5682 6.93973 48.9255 7.03492 49.3543 7.03492C49.7434 7.03492 50.1165 6.98135 50.4739 6.87421C50.8351 6.76713 51.1984 6.63817 51.5636 6.48739V8.47525C51.1786 8.64584 50.7835 8.76889 50.3786 8.84428C49.9776 8.91967 49.5508 8.95733 49.0982 8.95733C48.1533 8.95733 47.3792 8.77084 46.7757 8.39785C46.1762 8.02096 45.7336 7.49915 45.4478 6.83258C45.1659 6.16596 45.0249 5.39226 45.0249 4.51141C45.0249 3.85277 45.1163 3.24965 45.2989 2.70205C45.4855 2.15452 45.7574 1.68037 46.1147 1.27962C46.4721 0.874899 46.9127 0.56343 47.4368 0.345196C47.9648 0.123 48.5682 0.0119026 49.2471 0.0119026C49.668 0.0119026 50.1106 0.0615002 50.5751 0.160695C51.0436 0.255923 51.5001 0.41067 51.9448 0.62493L51.2242 2.47589C50.9066 2.32517 50.585 2.19816 50.2595 2.09501C49.934 1.99184 49.5885 1.94026 49.2233 1.94026ZM57.1078 8.8383H54.7556V2.05929H52.6296V0.13689H59.2278V2.05929H57.1078V8.8383ZM60.4727 0.13689H62.6637V4.11861C62.6637 4.29712 62.6618 4.48563 62.6582 4.68401C62.6539 4.87842 62.6478 5.07089 62.6399 5.26134C62.632 5.4518 62.6222 5.63232 62.6106 5.80291C62.5984 5.97356 62.5844 6.12433 62.5685 6.25524H62.6161L66.2011 0.13689H68.8989V8.8383H66.7012V5.07089C66.7012 4.90816 66.7036 4.72368 66.7073 4.51738C66.7152 4.31102 66.7231 4.09875 66.731 3.8805C66.7432 3.66231 66.7548 3.45199 66.767 3.24965C66.7829 3.04725 66.7987 2.87069 66.8146 2.71991H66.7609L63.1759 8.8383H60.4727V0.13689ZM78.2483 8.8383H75.8841V5.29109H73.151V8.8383H70.7868V0.13689H73.151V3.36271H75.8841V0.13689H78.2483V8.8383ZM80.1363 0.13689H82.3279V4.11861C82.3279 4.29712 82.3255 4.48563 82.3218 4.68401C82.3175 4.87842 82.3114 5.07089 82.3035 5.26134C82.2956 5.4518 82.2858 5.63232 82.2743 5.80291C82.2621 5.97356 82.248 6.12433 82.2322 6.25524H82.2797L85.8648 0.13689H88.5625V8.8383H86.3654V5.07089C86.3654 4.90816 86.3672 4.72368 86.3709 4.51738C86.3788 4.31102 86.3867 4.09875 86.3947 3.8805C86.4069 3.66231 86.4185 3.45199 86.4306 3.24965C86.4465 3.04725 86.4624 2.87069 86.4782 2.71991H86.4246L82.8395 8.8383H80.1363V0.13689ZM99.4249 6.90992V11.5464H97.132V8.8383H90.4505V0.13689H92.8147V6.90992H95.2325V0.13689H97.5967V6.90992H99.4249ZM105.928 8.8383L105.499 7.20752H102.67L102.229 8.8383H99.645L102.485 0.101176H105.624L108.5 8.8383H105.928ZM105.011 5.2792L104.636 3.85076C104.595 3.69602 104.538 3.47582 104.462 3.19011C104.387 2.90049 104.312 2.6029 104.236 2.29738C104.165 1.98788 104.109 1.73393 104.07 1.53554C104.034 1.73393 103.983 1.97993 103.915 2.27355C103.851 2.56322 103.784 2.85088 103.712 3.13654C103.645 3.42225 103.586 3.6603 103.534 3.85076L103.159 5.2792H105.011Z" fill="white"/>
</svg>
