<svg width="83" height="20" viewBox="0 0 83 20" fill="none" xmlns="http://www.w3.org/2000/svg">
<path d="M44 2.5L45.4016 1.41732C46.4747 0.58834 47.9935 0.624648 49.0395 1.48761V1.48761C50.0952 2.35854 51.6352 2.37093 52.6909 1.5V1.5C53.7466 0.629068 55.2716 0.629068 56.3273 1.5V1.5C57.3829 2.37093 58.908 2.37093 59.9636 1.5V1.5C61.0193 0.629068 62.5443 0.629068 63.6 1.5V1.5C64.6557 2.37093 66.1807 2.37093 67.2364 1.5V1.5C68.292 0.629067 69.8171 0.629068 70.8727 1.5V1.5C71.9284 2.37093 73.4534 2.37093 74.5091 1.5V1.5C75.5648 0.629068 77.0902 0.629443 78.1459 1.50037V1.50037C79.2013 2.37107 80.7261 2.37219 81.7824 1.50253L83 0.5" stroke="#2F70D9" stroke-width="2" stroke-linecap="round"/>
<path d="M6.02976 8.14227V10.1155H2.45516V17.1855H0V8.14227H6.02976ZM15.7824 12.6515C15.7824 13.3485 15.698 13.9835 15.5289 14.5567C15.364 15.1257 15.1043 15.6165 14.7497 16.0288C14.3951 16.4412 13.9395 16.7588 13.3829 16.9814C12.8264 17.2 12.1605 17.3092 11.3854 17.3092C10.6268 17.3092 9.9692 17.2 9.41254 16.9814C8.86014 16.7588 8.40456 16.4433 8.0458 16.035C7.68711 15.6227 7.4212 15.1299 7.24806 14.5567C7.07486 13.9835 6.98829 13.3443 6.98829 12.6392C6.98829 11.699 7.14294 10.8824 7.45211 10.1897C7.76545 9.49278 8.24788 8.95464 8.89927 8.57525C9.55066 8.19175 10.3836 8 11.3977 8C12.4285 8 13.2654 8.19175 13.9086 8.57525C14.5559 8.95876 15.03 9.49896 15.331 10.1959C15.632 10.8928 15.7824 11.7113 15.7824 12.6515ZM9.56098 12.6515C9.56098 13.1959 9.62286 13.6639 9.74654 14.0557C9.87022 14.4474 10.0661 14.7484 10.334 14.9588C10.602 15.1691 10.9525 15.2742 11.3854 15.2742C11.8348 15.2742 12.1914 15.1691 12.4553 14.9588C12.7233 14.7484 12.915 14.4474 13.0304 14.0557C13.15 13.6639 13.2097 13.1959 13.2097 12.6515C13.2097 11.835 13.0737 11.1897 12.8016 10.7155C12.5295 10.2413 12.0615 10.0041 11.3977 10.0041C10.9566 10.0041 10.5999 10.1113 10.3279 10.3258C10.0599 10.5402 9.86401 10.8453 9.74033 11.2412C9.62077 11.6371 9.56098 12.1072 9.56098 12.6515ZM21.4412 10.0165C21.1526 10.0165 20.8949 10.0783 20.6681 10.2021C20.4413 10.3216 20.2476 10.4969 20.0868 10.7278C19.926 10.9588 19.8023 11.2412 19.7157 11.5753C19.6333 11.9051 19.5921 12.2804 19.5921 12.701C19.5921 13.2701 19.6642 13.7485 19.8085 14.136C19.9528 14.5237 20.1713 14.8165 20.464 15.0144C20.7609 15.2124 21.1319 15.3113 21.5772 15.3113C21.9813 15.3113 22.3688 15.2556 22.7399 15.1443C23.115 15.033 23.4923 14.899 23.8716 14.7423V16.8082C23.4717 16.9855 23.0615 17.1134 22.6409 17.1918C22.2245 17.2701 21.7813 17.3092 21.3113 17.3092C20.33 17.3092 19.5261 17.1154 18.8994 16.7278C18.2768 16.3361 17.8171 15.7938 17.5203 15.101C17.2275 14.4082 17.0812 13.6041 17.0812 12.6887C17.0812 12.0041 17.176 11.3773 17.3656 10.8082C17.5594 10.2392 17.8419 9.74639 18.2129 9.32989C18.584 8.90927 19.0416 8.58557 19.5858 8.35876C20.1342 8.12783 20.7609 8.01237 21.4659 8.01237C21.9029 8.01237 22.3626 8.06392 22.845 8.16701C23.3315 8.26598 23.8056 8.4268 24.2674 8.64948L23.5191 10.5732C23.1893 10.4165 22.8553 10.2845 22.5172 10.1773C22.1792 10.0701 21.8204 10.0165 21.4412 10.0165ZM29.6293 17.1855H27.1865V10.1402H24.9786V8.14227H31.8309V10.1402H29.6293V17.1855ZM33.1236 8.14227H35.399V12.2804C35.399 12.466 35.3971 12.6619 35.3933 12.868C35.3889 13.0701 35.3825 13.2701 35.3743 13.4681C35.3661 13.666 35.3559 13.8536 35.3439 14.0309C35.3312 14.2082 35.3167 14.3649 35.3002 14.501H35.3496L39.0726 8.14227H41.8743V17.1855H39.5919V13.2701C39.5919 13.101 39.5945 12.9093 39.5983 12.6949C39.6065 12.4804 39.6147 12.2598 39.623 12.033C39.6356 11.8062 39.6477 11.5876 39.6603 11.3773C39.6768 11.167 39.6933 10.9835 39.7097 10.8268H39.654L35.931 17.1855H33.1236V8.14227ZM51.5837 17.1855H49.1285V13.499H46.2901V17.1855H43.8349V8.14227H46.2901V11.4948H49.1285V8.14227H51.5837V17.1855ZM53.5443 8.14227H55.8203V12.2804C55.8203 12.466 55.8178 12.6619 55.814 12.868C55.8096 13.0701 55.8032 13.2701 55.795 13.4681C55.7868 13.666 55.7766 13.8536 55.7646 14.0309C55.7519 14.2082 55.7374 14.3649 55.7209 14.501H55.7703L59.4933 8.14227H62.295V17.1855H60.0133V13.2701C60.0133 13.101 60.0152 12.9093 60.019 12.6949C60.0272 12.4804 60.0354 12.2598 60.0437 12.033C60.0563 11.8062 60.0684 11.5876 60.081 11.3773C60.0975 11.167 60.114 10.9835 60.1304 10.8268H60.0747L56.3516 17.1855H53.5443V8.14227ZM73.5756 15.1814V20H71.1944V17.1855H64.2556V8.14227H66.7108V15.1814H69.2218V8.14227H71.677V15.1814H73.5756ZM80.3288 17.1855L79.8836 15.4907H76.9459L76.488 17.1855H73.8042L76.754 8.10515H80.0135L83 17.1855H80.3288ZM79.3764 13.4866L78.9869 12.002C78.9451 11.8412 78.8856 11.6124 78.8071 11.3154C78.7292 11.0144 78.6507 10.7052 78.5721 10.3876C78.498 10.066 78.4404 9.80206 78.3992 9.59587C78.3619 9.80206 78.3087 10.0577 78.2384 10.3629C78.1725 10.6639 78.1022 10.9629 78.0281 11.2598C77.9578 11.5567 77.8964 11.8041 77.8426 12.002L77.4531 13.4866H79.3764Z" fill="#686868"/>
</svg>
