<svg width="272" height="232" viewBox="0 0 272 232" fill="none" xmlns="http://www.w3.org/2000/svg">
<path d="M187.826 47.8565C187.826 47.8565 191.548 41.344 200.427 42.0608C200.427 42.0608 213.334 31.2014 227.095 40.6119C227.095 40.6119 241.726 38.2783 252.558 42.6251C259.789 45.523 262.169 48.5734 262.169 48.5734L187.826 47.8565Z" fill="#F8FCFF"/>
<g opacity="0.5">
<path d="M92.7641 82.7225C92.7641 82.7225 89.4687 66.952 80.4675 58.1516C79.2775 56.9772 77.2637 57.9686 77.4468 59.631C77.4468 59.6615 77.4468 59.692 77.462 59.7226C77.8129 62.5442 88.0041 73.7391 92.7641 82.7225Z" fill="#C5DDFF"/>
</g>
<g opacity="0.5">
<path d="M94.1525 87.1913C94.1525 87.1913 84.2665 67.9739 69.6052 60.3784C68.7051 59.9208 67.5762 60.2106 67.088 61.08C66.7676 61.6443 66.676 62.5137 67.1947 63.7796C68.5983 67.196 85.1361 77.6436 94.1525 87.1913Z" fill="#C5DDFF"/>
</g>
<g opacity="0.5">
<path d="M213.151 154.163C213.151 154.163 219.376 139.292 229.872 132.352C231.26 131.437 233.045 132.779 232.557 134.381C232.542 134.411 232.542 134.442 232.527 134.457C231.657 137.187 219.528 146.247 213.151 154.163Z" fill="#C5DDFF"/>
</g>
<g opacity="0.5">
<path d="M210.939 158.296C210.939 158.296 224.273 141.305 240.124 136.608C241.085 136.318 242.138 136.821 242.474 137.782C242.687 138.407 242.611 139.261 241.848 140.421C239.804 143.502 221.588 150.624 210.939 158.296Z" fill="#C5DDFF"/>
</g>
<path d="M270.576 158.83C266.899 148.382 249.156 153.034 249.156 153.034C249.156 153.034 238.309 172.587 234.8 173.289C231.276 173.99 240.811 154.773 240.811 154.773C233.885 154.62 216.95 164.336 216.95 164.336C216.95 164.336 219.666 186.009 216.08 185.826C212.495 185.643 214.662 166.517 214.662 166.517C208.147 169.003 202.502 177.239 202.502 177.239C195.668 190.462 212.999 198.561 212.999 198.561C212.999 198.561 213.777 206.096 209.749 215.094C209.749 215.094 208.818 216.772 207.949 219.563L209.764 219.426C209.871 218.922 210.008 218.45 210.146 217.977C210.146 217.977 210.146 217.977 210.146 217.962V217.946C210.253 217.657 210.405 217.245 210.588 216.741C211.061 215.613 211.382 214.789 211.58 214.194C212.999 210.656 215.058 206.05 216.584 204.997C216.584 204.997 216.355 204.723 216.126 204.189C216.264 204.448 216.416 204.708 216.584 204.997C220.184 211.434 235.807 211.388 244.335 208.978C252.863 206.568 248.912 204.403 243.954 200.788C238.995 197.173 229.308 198.927 226.302 197.585C223.297 196.243 227.401 194.382 233.213 194.397C239.026 194.413 242.336 199.98 251.719 200.178C261.117 200.376 266.93 182.318 266.93 182.318C260.644 184.789 248.836 182.089 248.225 179.893C247.615 177.712 264.733 176.675 267.341 175.805C269.95 174.936 274.253 169.277 270.576 158.83Z" fill="#DFEBF9"/>
<path d="M24.3705 73.3731C27.91 63.322 44.9817 67.8061 44.9817 67.8061C44.9817 67.8061 55.417 86.6118 58.8039 87.2981C62.1908 87.9844 53.0217 69.4686 53.0217 69.4686C59.6887 69.3161 75.9824 78.6808 75.9824 78.6808C75.9824 78.6808 73.3736 99.5454 76.8215 99.3624C80.2694 99.1794 78.1946 80.7703 78.1946 80.7703C84.4649 83.1648 89.8961 91.0806 89.8961 91.0806C96.4868 103.816 79.7965 111.61 79.7965 111.61C79.7965 111.61 79.0489 118.854 82.924 127.517C82.924 127.517 83.8241 129.134 84.6632 131.819L82.9087 131.697C82.802 131.224 82.6799 130.751 82.5273 130.309C82.5273 130.309 82.5273 130.309 82.5273 130.293V130.278C82.4205 130.004 82.2833 129.607 82.1002 129.119C81.6425 128.036 81.3374 127.243 81.1543 126.663C79.7965 123.262 77.7979 118.824 76.3333 117.817C76.3333 117.817 76.5469 117.558 76.7605 117.039C76.6232 117.283 76.4859 117.543 76.3333 117.817C72.8701 124.01 57.8275 123.979 49.6196 121.645C41.4118 119.327 45.2106 117.238 49.9858 113.76C54.761 110.283 64.0825 111.976 66.966 110.679C69.8494 109.383 65.898 107.598 60.3142 107.614C54.7305 107.629 51.5419 112.982 42.4949 113.181C33.4632 113.379 27.8642 95.9917 27.8642 95.9917C33.9209 98.371 45.2868 95.7629 45.8666 93.6582C46.4463 91.5534 29.9848 90.562 27.4675 89.7232C24.9503 88.8691 20.8463 83.4241 24.3705 73.3731Z" fill="#DFEBF9"/>
<path d="M220.917 49.641H112.597V231.704H220.917V49.641Z" fill="#CDE0FB"/>
<path d="M229.994 72.0004H220.932V72.4121H229.994V72.0004Z" fill="#163560"/>
<path d="M229.994 116.307H220.932V116.719H229.994V116.307Z" fill="#163560"/>
<path d="M209.78 66.1283H189.031V96.1746H209.78V66.1283Z" fill="#AFCDFB"/>
<path d="M198.582 66.1283C198.582 66.1283 198.81 76.1488 189.031 83.9121V66.1283H198.582Z" fill="#D9EAFF"/>
<path d="M200.626 66.1283C200.626 66.1283 200.412 76.1488 209.764 83.9121V66.1283H200.626Z" fill="#D9EAFF"/>
<path d="M199.924 66.1283H199.405V96.1746H199.924V66.1283Z" fill="white"/>
<path d="M209.78 75.0203H189.031V75.432H209.78V75.0203Z" fill="white"/>
<path d="M209.78 85.9102H189.031V86.3219H209.78V85.9102Z" fill="white"/>
<path d="M210.252 96.6476H188.558V65.6556H210.252V96.6476ZM189.504 95.702H209.307V66.6012H189.504V95.702Z" fill="white"/>
<path d="M177.146 66.1283H156.398V96.1746H177.146V66.1283Z" fill="#AFCDFB"/>
<path d="M165.948 66.1283C165.948 66.1283 166.177 76.1488 156.398 83.9121V66.1283H165.948Z" fill="#D9EAFF"/>
<path d="M167.993 66.1283C167.993 66.1283 167.779 76.1488 177.131 83.9121V66.1283H167.993Z" fill="#D9EAFF"/>
<path d="M167.291 66.1283H166.772V96.1746H167.291V66.1283Z" fill="white"/>
<path d="M177.146 75.0203H156.398V75.432H177.146V75.0203Z" fill="white"/>
<path d="M177.146 85.9102H156.398V86.3219H177.146V85.9102Z" fill="white"/>
<path d="M177.604 96.6476H155.91V65.6556H177.604V96.6476ZM156.871 95.702H176.673V66.6012H156.871V95.702Z" fill="white"/>
<path d="M144.498 66.1283H123.749V96.1746H144.498V66.1283Z" fill="#AFCDFB"/>
<path d="M133.315 66.1283C133.315 66.1283 133.544 76.1488 123.764 83.9121V66.1283H133.315Z" fill="#D9EAFF"/>
<path d="M135.359 66.1283C135.359 66.1283 135.146 76.1488 144.498 83.9121V66.1283H135.359Z" fill="#D9EAFF"/>
<path d="M134.642 66.1283H134.124V96.1746H134.642V66.1283Z" fill="white"/>
<path d="M144.498 75.0203H123.75V75.432H144.498V75.0203Z" fill="white"/>
<path d="M144.498 85.9102H123.75V86.3219H144.498V85.9102Z" fill="white"/>
<path d="M144.971 96.6476H123.277V65.6556H144.971V96.6476ZM124.223 95.702H144.025V66.6012H124.223V95.702Z" fill="white"/>
<path d="M209.78 111.244H189.031V141.29H209.78V111.244Z" fill="#AFCDFB"/>
<path d="M198.582 111.244C198.582 111.244 198.81 121.264 189.031 129.027V111.244H198.582Z" fill="#D9EAFF"/>
<path d="M200.626 111.244C200.626 111.244 200.412 121.264 209.764 129.027V111.244H200.626Z" fill="#D9EAFF"/>
<path d="M199.924 111.244H199.405V141.29H199.924V111.244Z" fill="white"/>
<path d="M209.78 120.136H189.031V120.547H209.78V120.136Z" fill="white"/>
<path d="M209.78 131.025H189.031V131.437H209.78V131.025Z" fill="white"/>
<path d="M210.252 141.763H188.558V110.771H210.252V141.763ZM189.504 140.817H209.307V111.716H189.504V140.817Z" fill="white"/>
<path d="M177.146 111.244H156.398V141.29H177.146V111.244Z" fill="#AFCDFB"/>
<path d="M165.948 111.244C165.948 111.244 166.177 121.264 156.398 129.027V111.244H165.948Z" fill="#D9EAFF"/>
<path d="M167.993 111.244C167.993 111.244 167.779 121.264 177.131 129.027V111.244H167.993Z" fill="#D9EAFF"/>
<path d="M167.291 111.244H166.772V141.29H167.291V111.244Z" fill="white"/>
<path d="M177.146 120.136H156.398V120.547H177.146V120.136Z" fill="white"/>
<path d="M177.146 131.025H156.398V131.437H177.146V131.025Z" fill="white"/>
<path d="M177.604 141.763H155.91V110.771H177.604V141.763ZM156.871 140.817H176.673V111.716H156.871V140.817Z" fill="white"/>
<path d="M144.498 111.244H123.749V141.29H144.498V111.244Z" fill="#AFCDFB"/>
<path d="M133.315 111.244C133.315 111.244 133.544 121.264 123.764 129.027V111.244H133.315Z" fill="#D9EAFF"/>
<path d="M135.359 111.244C135.359 111.244 135.146 121.264 144.498 129.027V111.244H135.359Z" fill="#D9EAFF"/>
<path d="M134.642 111.244H134.124V141.29H134.642V111.244Z" fill="white"/>
<path d="M144.498 120.136H123.75V120.547H144.498V120.136Z" fill="white"/>
<path d="M144.498 131.025H123.75V131.437H144.498V131.025Z" fill="white"/>
<path d="M144.971 141.763H123.277V110.771H144.971V141.763ZM124.223 140.817H144.025V111.716H124.223V140.817Z" fill="white"/>
<path d="M177.146 156.359H156.398V186.405H177.146V156.359Z" fill="#AFCDFB"/>
<path d="M165.948 156.359C165.948 156.359 166.177 166.379 156.398 174.143V156.359H165.948Z" fill="#D9EAFF"/>
<path d="M167.993 156.359C167.993 156.359 167.779 166.379 177.131 174.143V156.359H167.993Z" fill="#D9EAFF"/>
<path d="M167.291 156.359H166.772V186.405H167.291V156.359Z" fill="white"/>
<path d="M177.146 165.251H156.398V165.662H177.146V165.251Z" fill="white"/>
<path d="M177.146 176.141H156.398V176.552H177.146V176.141Z" fill="white"/>
<path d="M177.604 186.863H155.91V155.871H177.604V186.863ZM156.871 185.932H176.673V156.832H156.871V185.932Z" fill="white"/>
<path d="M144.498 156.359H123.749V186.405H144.498V156.359Z" fill="#AFCDFB"/>
<path d="M133.315 156.359C133.315 156.359 133.544 166.379 123.764 174.143V156.359H133.315Z" fill="#D9EAFF"/>
<path d="M135.359 156.359C135.359 156.359 135.146 166.379 144.498 174.143V156.359H135.359Z" fill="#D9EAFF"/>
<path d="M134.642 156.359H134.124V186.405H134.642V156.359Z" fill="white"/>
<path d="M144.498 165.251H123.75V165.662H144.498V165.251Z" fill="white"/>
<path d="M144.498 176.141H123.75V176.552H144.498V176.141Z" fill="white"/>
<path d="M144.971 186.863H123.277V155.871H144.971V186.863ZM124.223 185.932H144.025V156.832H124.223V185.932Z" fill="white"/>
<path d="M222.701 206.797H111.392V231.688H222.701V206.797Z" fill="#AFCDFB"/>
<path d="M147.671 86.1237L147.626 222.552C147.626 227.036 143.995 230.666 139.509 230.666L68.171 230.636C63.6857 230.636 60.0547 227.006 60.0547 222.522L60.1004 86.0932C60.1004 81.6092 63.7314 77.9792 68.2168 77.9792L139.555 78.0097C144.04 78.0097 147.671 81.6397 147.671 86.1237Z" fill="#739AF0"/>
<path d="M139.509 231.688L68.1712 231.658C63.1367 231.658 59.0327 227.555 59.0327 222.522L59.0785 86.0932C59.0785 81.0601 63.1824 76.9573 68.217 76.9573L139.555 76.9878C144.59 76.9878 148.694 81.0906 148.694 86.1237L148.648 222.552C148.633 227.586 144.544 231.688 139.509 231.688ZM68.217 79.0011C64.2961 79.0011 61.1228 82.1887 61.1228 86.0932L61.0771 222.522C61.0771 226.442 64.2656 229.614 68.1712 229.614L139.509 229.645C143.43 229.645 146.604 226.457 146.604 222.552L146.649 86.1237C146.649 82.204 143.461 79.0316 139.555 79.0316L68.217 79.0011Z" fill="#163560"/>
<path d="M139.937 165.068V215.552C139.937 218.907 137.221 221.622 133.865 221.622H75.1129C71.7718 221.622 69.0562 218.907 69.0562 215.552V165.068C69.0562 161.712 71.7718 158.998 75.1129 158.998H133.865C134.307 158.998 134.734 159.043 135.146 159.135C137.892 159.73 139.937 162.155 139.937 165.068Z" fill="#EBF2FF"/>
<path d="M135.817 153.919H73.1902C70.9171 153.919 69.071 152.073 69.071 149.801V129.134C69.071 126.862 70.9171 125.016 73.1902 125.016H135.817C138.09 125.016 139.936 126.862 139.936 129.134V149.801C139.936 152.073 138.09 153.919 135.817 153.919Z" fill="#EBF2FF"/>
<path d="M111.59 136.333H94.4881C94.2745 136.333 94.1067 136.165 94.1067 135.952C94.1067 135.738 94.2745 135.571 94.4881 135.571H111.59C111.804 135.571 111.972 135.738 111.972 135.952C111.972 136.165 111.804 136.333 111.59 136.333Z" fill="#2B478B"/>
<path d="M123.033 139.093H94.4881C94.2745 139.093 94.1067 138.926 94.1067 138.712C94.1067 138.499 94.2745 138.331 94.4881 138.331H123.033C123.246 138.331 123.414 138.499 123.414 138.712C123.414 138.926 123.246 139.093 123.033 139.093Z" fill="#2B478B"/>
<path d="M90.323 131.971H73.9683V148.321H90.323V131.971Z" fill="#C2CFFF"/>
<path d="M77.0046 144.035L80.5746 137.599L83.1987 141.183L84.5107 139.75L87.3026 144.035H77.0046Z" fill="#AABDF2"/>
<path d="M82.283 136.668C82.283 136.165 82.6949 135.738 83.2136 135.738C83.717 135.738 84.1442 136.15 84.1442 136.668C84.1442 137.187 83.7323 137.599 83.2136 137.599C82.6949 137.599 82.283 137.187 82.283 136.668Z" fill="#AABDF2"/>
<path d="M122.498 133.648H94.4422C94.2286 133.648 94.0608 133.481 94.0608 133.267V132.352C94.0608 132.139 94.2286 131.971 94.4422 131.971H122.498C122.712 131.971 122.88 132.139 122.88 132.352V133.267C122.88 133.481 122.712 133.648 122.498 133.648Z" fill="#2B478B"/>
<path d="M98.241 143.746L100.606 144.081L98.897 145.744L99.3089 148.092L97.1883 146.979L95.0831 148.092L95.495 145.744L93.7864 144.096L96.1357 143.746L97.1883 141.61L98.241 143.746Z" fill="#A7D91A"/>
<path d="M106.403 143.746L108.753 144.081L107.059 145.744L107.456 148.092L105.351 146.979L103.245 148.092L103.642 145.744L101.949 144.096L104.298 143.746L105.351 141.61L106.403 143.746Z" fill="#A7D91A"/>
<path d="M114.565 143.746L116.915 144.081L115.221 145.744L115.618 148.092L113.513 146.979L111.407 148.092L111.804 145.744L110.095 144.096L112.46 143.746L113.513 141.61L114.565 143.746Z" fill="#A7D91A"/>
<path d="M122.727 143.746L125.077 144.081L123.368 145.744L123.78 148.092L121.675 146.979L119.569 148.092L119.966 145.744L118.258 144.096L120.622 143.746L121.659 141.61L122.727 143.746Z" fill="#A7D91A"/>
<path d="M130.874 143.746L133.239 144.081L131.53 145.744L131.942 148.092L129.837 146.979L127.732 148.092L128.128 145.744L126.42 144.096L128.769 143.746L129.822 141.61L130.874 143.746Z" fill="#A7D91A"/>
<path d="M135.817 120.425H73.1902C70.9171 120.425 69.071 118.58 69.071 116.307V95.6257C69.071 93.3531 70.9171 91.5077 73.1902 91.5077H135.817C138.09 91.5077 139.936 93.3531 139.936 95.6257V116.292C139.936 118.58 138.09 120.425 135.817 120.425Z" fill="#EBF2FF"/>
<path d="M111.59 102.839H94.4881C94.2745 102.839 94.1067 102.672 94.1067 102.458C94.1067 102.245 94.2745 102.077 94.4881 102.077H111.59C111.804 102.077 111.972 102.245 111.972 102.458C111.972 102.656 111.804 102.839 111.59 102.839Z" fill="#2B478B"/>
<path d="M123.033 105.6H94.4881C94.2745 105.6 94.1067 105.432 94.1067 105.219C94.1067 105.006 94.2745 104.838 94.4881 104.838H123.033C123.246 104.838 123.414 105.006 123.414 105.219C123.414 105.432 123.246 105.6 123.033 105.6Z" fill="#2B478B"/>
<path d="M90.323 98.4778H73.9683V114.828H90.323V98.4778Z" fill="#C2CFFF"/>
<path d="M77.0046 110.542L80.5746 104.106L83.1987 107.675L84.5107 106.241L87.3026 110.542H77.0046Z" fill="#AABDF2"/>
<path d="M82.283 103.175C82.283 102.672 82.6949 102.245 83.2136 102.245C83.717 102.245 84.1442 102.657 84.1442 103.175C84.1442 103.678 83.7323 104.105 83.2136 104.105C82.6949 104.105 82.283 103.694 82.283 103.175Z" fill="#AABDF2"/>
<path d="M122.498 100.14H94.4422C94.2286 100.14 94.0608 99.972 94.0608 99.7586V98.8437C94.0608 98.6302 94.2286 98.4625 94.4422 98.4625H122.498C122.712 98.4625 122.88 98.6302 122.88 98.8437V99.7586C122.88 99.972 122.712 100.14 122.498 100.14Z" fill="#2B478B"/>
<path d="M98.241 110.237L100.606 110.588L98.897 112.25L99.3089 114.584L97.1883 113.486L95.0831 114.599L95.495 112.25L93.7864 110.588L96.1357 110.252L97.1883 108.117L98.241 110.237Z" fill="#A7D91A"/>
<path d="M106.403 110.237L108.753 110.588L107.059 112.25L107.456 114.584L105.351 113.486L103.245 114.599L103.642 112.25L101.949 110.588L104.298 110.252L105.351 108.117L106.403 110.237Z" fill="#A7D91A"/>
<path d="M114.565 110.237L116.915 110.588L115.221 112.25L115.618 114.584L113.513 113.486L111.407 114.599L111.804 112.25L110.095 110.588L112.46 110.252L113.513 108.117L114.565 110.237Z" fill="#A7D91A"/>
<path d="M122.727 110.237L125.077 110.588L123.368 112.25L123.78 114.584L121.675 113.486L119.569 114.599L119.966 112.25L118.258 110.588L120.622 110.252L121.659 108.117L122.727 110.237Z" fill="#A7D91A"/>
<path d="M130.874 110.237L133.239 110.588L131.53 112.25L131.942 114.584L129.837 113.486L127.732 114.599L128.128 112.25L126.42 110.588L128.769 110.252L129.822 108.117L130.874 110.237Z" fill="#A7D91A"/>
<g opacity="0.3">
<path d="M95.5561 178.261C95.0832 178.2 94.6102 178.169 94.1373 178.169C94.061 178.169 93.9847 178.169 93.9084 178.169C88.111 178.291 83.4426 183.035 83.4426 188.861C83.4426 189.425 83.4884 189.974 83.5647 190.523C84.358 195.572 88.6603 199.446 93.8932 199.552C93.9694 199.552 94.0457 199.552 94.122 199.552C94.6102 199.552 95.0832 199.522 95.5408 199.461C100.225 198.836 103.962 195.175 104.695 190.523C104.771 189.974 104.817 189.425 104.817 188.861C104.832 183.431 100.789 178.947 95.5561 178.261ZM95.5561 195.922C95.0984 196.014 94.6255 196.06 94.1373 196.06C94.061 196.06 93.9847 196.06 93.9084 196.06C90.5978 195.953 87.867 193.619 87.1347 190.523C87.0126 189.989 86.9363 189.44 86.9363 188.861C86.9363 184.956 90.0333 181.784 93.9084 181.662C93.9847 181.662 94.061 181.662 94.1373 181.662C94.6255 181.662 95.0984 181.708 95.5561 181.799C98.8514 182.455 101.338 185.368 101.338 188.861C101.338 189.425 101.277 189.989 101.14 190.523C100.499 193.238 98.3175 195.373 95.5561 195.922Z" fill="#739AF0"/>
<path d="M86.9212 188.861C86.9212 189.425 86.9822 189.989 87.1195 190.523H73.8618V188.861H86.9212Z" fill="#739AF0"/>
<path d="M135.161 188.861V190.523H101.155C101.277 189.989 101.354 189.44 101.354 188.861H135.161Z" fill="#739AF0"/>
<path d="M95.5559 161.285V181.799C95.0982 181.708 94.6253 181.662 94.1371 181.662C94.0608 181.662 93.9845 181.662 93.9083 181.662V161.285H95.5559Z" fill="#739AF0"/>
<path d="M95.5562 195.922V218.084H93.8933V196.06C93.9696 196.06 94.0459 196.06 94.1221 196.06C94.6256 196.06 95.0985 196.014 95.5562 195.922Z" fill="#739AF0"/>
<path d="M133.498 161.285V189.99V191.545H135.161V189.99V161.423L133.498 161.285Z" fill="#739AF0"/>
<path d="M116.396 161.285H114.733V218.084H116.396V161.285Z" fill="#739AF0"/>
<path d="M105.961 163.39H97.7378V176.156H105.961V163.39Z" fill="#739AF0"/>
<path d="M81.856 172.999H73.8464V182.165H81.856V172.999Z" fill="#739AF0"/>
<path d="M89.9723 163.39H73.8464V171.397H89.9723V163.39Z" fill="#739AF0"/>
<path d="M113.101 163.39H107.349V171.321H113.101V163.39Z" fill="#739AF0"/>
<path d="M113.101 172.999H107.349V186.253H113.101V172.999Z" fill="#739AF0"/>
<path d="M113.101 192.094H107.349V199.949H113.101V192.094Z" fill="#739AF0"/>
<path d="M124.726 163.39H120.088V186.253H124.726V163.39Z" fill="#739AF0"/>
<path d="M131.988 163.39H126.236V186.253H131.988V163.39Z" fill="#739AF0"/>
<path d="M135.161 192.933H119.219V218.099H135.161V192.933Z" fill="#739AF0"/>
<path d="M113.085 208.566H97.219V218.084H113.085V208.566Z" fill="#739AF0"/>
<path d="M113.085 201.734H97.219V206.782H113.085V201.734Z" fill="#739AF0"/>
<path d="M88.0958 201.734H73.8464V218.084H88.0958V201.734Z" fill="#739AF0"/>
<path d="M79.8419 191.408H73.8464V200.224H79.8419V191.408Z" fill="#739AF0"/>
</g>
<path d="M39.7792 225.023H37.0942V228.684H39.7792V225.023Z" fill="#163560"/>
<path d="M54.9591 225.023H52.2742V228.684H54.9591V225.023Z" fill="#163560"/>
<path d="M36.5295 229.233C36.5295 228.18 37.3839 227.326 38.4365 227.326C39.4891 227.326 40.3434 228.18 40.3434 229.233C40.3434 230.285 39.4891 231.139 38.4365 231.139C37.3839 231.139 36.5295 230.285 36.5295 229.233Z" fill="#1F4777"/>
<path d="M37.2771 229.232C37.2771 228.592 37.7958 228.074 38.4365 228.074C39.0772 228.074 39.5959 228.592 39.5959 229.232C39.5959 229.873 39.0772 230.391 38.4365 230.391C37.7958 230.391 37.2771 229.873 37.2771 229.232Z" fill="#163560"/>
<path d="M51.7095 229.233C51.7095 228.18 52.5638 227.326 53.6164 227.326C54.669 227.326 55.5234 228.18 55.5234 229.233C55.5234 230.285 54.669 231.139 53.6164 231.139C52.5638 231.139 51.7095 230.285 51.7095 229.233Z" fill="#1F4777"/>
<path d="M52.4573 229.232C52.4573 228.592 52.976 228.074 53.6167 228.074C54.2574 228.074 54.7761 228.592 54.7761 229.232C54.7761 229.873 54.2574 230.391 53.6167 230.391C52.976 230.391 52.4573 229.873 52.4573 229.232Z" fill="#163560"/>
<path d="M60.0548 227.067H32.2731C29.6033 227.067 27.4521 224.901 27.4521 222.247V221.622H64.5096V222.613C64.5248 225.069 62.5263 227.067 60.0548 227.067Z" fill="#323232"/>
<path d="M65.791 175.851V220.066C65.791 220.6 65.73 221.119 65.6232 221.622H60.4361C59.6275 221.622 58.8799 221.851 58.2544 222.263C57.8578 222.507 57.5221 222.827 57.2323 223.193C56.6983 223.879 56.3779 224.749 56.3779 225.694V227.067H36.0413V225.694C36.0413 224.276 35.309 223.025 34.2106 222.293C33.9055 222.095 33.5546 221.927 33.1884 221.805C32.807 221.683 32.3951 221.622 31.9679 221.622H26.3536C26.2468 221.119 26.1858 220.6 26.1858 220.066V175.851C26.1858 171.977 29.3133 168.85 33.1884 168.85H58.7884C62.6635 168.85 65.791 171.977 65.791 175.851Z" fill="#F76748"/>
<path d="M53.4488 168.819C48.6584 166.928 44.6612 167.02 42.1592 167.432C39.4436 167.874 37.8417 168.789 37.8112 168.789L37.4755 168.209C37.5365 168.163 39.1842 167.249 42.0066 166.776C44.6002 166.349 48.7346 166.242 53.6929 168.194L53.4488 168.819Z" fill="#163560"/>
<path d="M34.2106 168.85V222.293C33.9055 222.095 33.5546 221.927 33.1885 221.805V168.85H34.2106Z" fill="#163560"/>
<path d="M42.3727 168.85H41.3506V227.082H42.3727V168.85Z" fill="#163560"/>
<path d="M50.0009 168.85H48.9788V227.082H50.0009V168.85Z" fill="#163560"/>
<path d="M58.2392 168.85V222.263C57.8425 222.507 57.5069 222.827 57.217 223.193V168.85H58.2392Z" fill="#163560"/>
<path d="M4.06422 145.956C4.06422 145.88 5.17787 143.578 4.827 143.395C4.47612 143.212 3.83539 143.242 3.75911 143.654C3.68283 144.05 4.06422 145.956 4.06422 145.956Z" fill="#FFB27D"/>
<path d="M4.47602 147.33C4.47602 147.101 4.21668 143.654 3.63697 142.953C3.05726 142.266 1.86733 141.29 1.48594 141.321C1.10455 141.351 -0.359979 143.303 0.0824312 144.783C0.524841 146.277 2.38601 148.291 2.38601 148.291L4.47602 147.33Z" fill="#FFB27D"/>
<path d="M6.70361 143.136L3.30163 144.157C3.19484 144.188 3.07279 144.127 3.04228 144.02L1.10484 137.553C1.07433 137.447 1.13534 137.325 1.24213 137.294L4.64411 136.272C4.7509 136.242 4.87295 136.303 4.90346 136.409L6.84091 142.876C6.88668 142.983 6.82565 143.105 6.70361 143.136Z" fill="#FF896F"/>
<path d="M5.81871 143.41L2.73709 144.34C2.53877 144.401 2.32519 144.279 2.26417 144.081L0.418256 137.919C0.357234 137.721 0.479271 137.507 0.677593 137.446L3.75921 136.516C3.95753 136.455 4.17111 136.577 4.23214 136.775L6.07805 142.937C6.13907 143.135 6.01703 143.349 5.81871 143.41Z" fill="#F76748"/>
<path d="M1.13501 141.58C1.13501 141.58 2.55377 139.399 2.88939 139.521C3.37757 139.689 1.60794 142.449 1.60794 142.449C1.60794 142.449 2.91991 140.39 3.13349 140.543C3.60641 140.894 2.85889 142.19 2.11137 143.181C2.11137 143.181 3.4386 141.976 3.48436 142.19C3.63692 142.953 2.03509 144.798 2.03509 144.798L1.13501 142.754V141.58Z" fill="#FFB27D"/>
<path d="M0.0825195 143.593C0.143542 143.334 0.49442 138.133 0.646976 138.621C0.799531 139.109 1.15041 141.839 1.15041 141.839L0.0825195 143.593Z" fill="#FFB27D"/>
<path d="M22.6463 142.159C22.6463 142.159 22.4937 147.803 20.8765 152.363C19.595 155.962 17.3829 158.876 13.5841 157.808C13.2026 157.701 12.8212 157.579 12.4551 157.457C4.75068 154.773 2.26392 148.626 2.26392 148.626C2.84365 147.681 4.50659 147.33 4.50659 147.33C6.06272 147.406 12.8823 150.304 13.3094 150.395C14.8808 150.716 16.1624 142.053 17.1845 139.048C18.2067 136.043 22.4022 134.701 22.4022 134.701L22.6463 142.159Z" fill="#739AF0"/>
<path d="M21.014 148.291L20.8614 152.363C19.5799 155.962 17.3677 158.875 13.5689 157.808C13.1875 157.701 12.8061 157.579 12.4399 157.457C12.562 157.472 14.8809 157.793 15.8573 156.816C16.849 155.81 16.7575 152.5 18.5882 150.304C20.4342 148.092 21.014 148.291 21.014 148.291Z" fill="#5283DB"/>
<path d="M21.2278 222.72C21.2278 222.72 23.1196 224.444 22.7534 225.679C22.3873 226.914 20.6786 227.723 20.4345 229.233C20.2056 230.743 19.275 231.551 18.4512 231.551C17.6121 231.551 14.4845 231.551 14.4845 231.551C14.4845 231.551 13.8743 230.499 15.3541 230.178C16.834 229.858 17.3985 228.089 17.3069 226.457C17.2154 224.825 17.4442 222.629 17.4442 222.629L20.587 221.897L21.2278 222.72Z" fill="#0B2442"/>
<path d="M0.342041 231.231H12.0283C12.486 231.231 12.8674 230.865 12.8827 230.407C12.8979 229.721 12.8369 228.73 12.4708 227.891C11.8453 226.503 11.4486 226.259 14.0879 222.247C13.2946 223.056 11.1587 222.69 9.35848 222.446C9.14489 222.797 5.78852 227.967 5.05622 228.501C4.21712 229.08 0.586141 228.867 0.342041 231.231Z" fill="#0B2442"/>
<path d="M18.5425 166.441C18.5425 166.441 10.0753 182.425 7.77161 191.225C5.98663 198.058 16.8949 224.489 16.8949 224.489C16.8949 224.489 17.7797 224.428 19.2443 223.864C20.6784 223.3 21.2124 221.805 21.2124 221.805C21.2124 221.805 20.5716 202.908 18.3595 193.757C17.8713 191.698 20.7547 185.078 25.6519 181.464C30.5339 177.834 32.5783 166.166 29.6643 165.388C26.7504 164.61 18.5425 166.441 18.5425 166.441Z" fill="#163560"/>
<path d="M25.8046 161.911C25.8046 161.911 16.895 194.55 14.1946 201.886C11.4943 209.222 7.20728 224.779 7.20728 224.779C7.20728 224.779 9.92289 226.045 13.3861 225.45C13.3861 225.45 26.4149 206.37 26.9794 197.951C27.2387 194.047 40.3439 178.612 38.8793 168.53L25.8046 161.911Z" fill="#1C468A"/>
<path d="M38.8484 172.099C38.8484 172.099 36.9566 173.06 33.6002 173.334C29.7709 173.655 24.0193 173.09 17.0167 169.201C17.0167 169.201 15.0639 167.6 17.4591 160.752C19.2746 155.581 20.1594 144.661 22.3716 134.716C22.3716 134.716 29.5573 132.459 35.3242 134.411C39.7332 135.906 39.2908 142.663 40.0994 149.694C40.1757 150.35 40.2672 151.006 40.3587 151.661C41.5945 159.364 38.8484 172.099 38.8484 172.099Z" fill="#739AF0"/>
<path d="M19.8545 119.983C19.8545 119.983 24.767 112.006 28.5658 116.109C28.5658 116.109 31.0526 116.75 32.4714 120.608C33.9208 124.559 31.6628 128.036 30.1525 127.472C29.1913 127.106 28.7336 128.783 28.7336 128.783L19.8545 119.983Z" fill="#233862"/>
<path d="M27.803 115.468C27.803 115.468 28.1387 112.159 32.9747 112.479C32.9747 112.479 30.6863 112.525 30.1981 113.47C30.1981 113.47 31.861 112.403 33.0662 112.921C34.2714 113.44 34.7901 115.713 34.729 116.429C34.668 117.146 33.7374 119.403 32.9136 119.526C32.1051 119.648 31.0372 119.068 31.0372 119.068L27.803 115.468Z" fill="#233862"/>
<path d="M30.2438 134.198C29.7861 132.993 29.1149 131.727 28.5657 127.853L28.2758 127.96L23.394 129.683C23.394 129.683 23.7297 131.239 23.9585 132.734C24.05 133.344 24.1111 134.427 24.1568 135.372C24.2026 136.348 25.1484 136.44 26.1248 136.394C28.703 136.257 30.1217 135.296 30.2438 134.198Z" fill="#FFB27D"/>
<path d="M23.394 129.668C23.394 129.668 23.7297 131.224 23.9585 132.718C26.7503 132.23 27.8639 129.455 28.2758 127.945L23.394 129.668Z" fill="#E8945B"/>
<path d="M28.7186 127.334C28.7186 127.334 29.8628 124.803 29.9238 122.759C29.9696 121.31 28.4898 116.14 23.3026 117.665C23.3026 117.665 21.7923 118.031 20.4802 119.22C19.4428 120.166 18.024 122.073 20.5412 126.404L21.243 127.884L28.7186 127.334Z" fill="#233862"/>
<path d="M22.6616 131.224C22.6616 131.224 29.3285 130.37 28.7335 126.236C28.1385 122.103 28.5962 119.205 24.3245 119.571C20.0527 119.937 19.4425 121.63 19.3052 123.064C19.1679 124.482 20.9223 131.33 22.6616 131.224Z" fill="#FFB27D"/>
<path d="M21.2888 119.892C21.2888 119.892 23.8061 124.482 26.7048 124.803C29.6035 125.123 30.7019 124.193 30.7019 124.193C30.7019 124.193 28.3219 122.805 27.4371 119.892C27.4371 119.892 22.3262 117.39 21.2888 119.892Z" fill="#233862"/>
<path d="M21.7921 120.227C21.7921 120.227 20.5869 121.508 20.4038 122.606C20.2208 123.705 20.3886 125.901 19.7478 125.916C19.7478 125.916 17.9019 122.82 19.1681 120.73C20.5259 118.504 21.7921 120.227 21.7921 120.227Z" fill="#233862"/>
<path d="M21.5632 120.425C21.5632 120.425 23.5922 125.321 27.3451 126.45C27.3451 126.45 23.3786 123.827 22.5854 120.517C21.7921 117.207 21.5632 120.425 21.5632 120.425Z" fill="#233862"/>
<path d="M38.8485 172.099C38.8485 172.099 36.9567 173.06 33.6003 173.334C33.6003 173.334 30.8542 169.887 33.9207 166.013C36.9872 162.139 33.6766 155.017 36.0413 151.128C37.689 148.428 39.2909 149.053 40.1147 149.694C40.191 150.35 40.2826 151.006 40.3741 151.661C41.5946 159.364 38.8485 172.099 38.8485 172.099Z" fill="#5283DB"/>
<path d="M50.9468 166.349C50.9468 166.349 51.3587 167.295 51.9232 167.356C52.8538 167.462 54.6234 168.24 54.9133 168.408C55.6608 168.85 55.615 170.864 54.8675 171.047C54.12 171.23 53.7386 169.552 51.374 169.11C50.5807 168.957 49.406 169.506 48.9331 167.6L50.9468 166.349Z" fill="#FFB27D"/>
<path d="M35.3396 134.396C42.2049 136.913 42.449 149.069 45.5155 154.422C48.6736 159.943 51.7401 167.203 51.7401 167.203C51.7401 167.203 51.6791 167.417 50.5043 167.752C49.6805 167.996 48.8109 167.889 48.8109 167.889C48.8109 167.889 42.327 162.033 40.5725 159.714C38.818 157.396 34.6531 146.674 34.6531 146.674C34.6531 146.674 32.6087 133.39 35.3396 134.396Z" fill="#739AF0"/>
<path d="M49.0857 168.072C49.0857 168.072 49.2535 168.896 50.2604 169.551C51.2672 170.207 52.0758 170.878 52.1826 170.466C52.2741 170.055 51.6181 169.612 51.4656 168.865C51.313 168.103 49.0857 168.072 49.0857 168.072Z" fill="#FFB27D"/>
<path d="M224.99 56.0011H109.088L115.267 28.5476H218.811L224.99 56.0011Z" fill="#F76748"/>
<path d="M140.791 36.6921H130.157V47.3227H140.791V36.6921Z" fill="#BDD1F9"/>
<path d="M129.669 36.2041V47.8108H141.279V36.2041H129.669ZM140.287 46.8347H130.645V37.1955H140.287V46.8347Z" fill="#163560"/>
<path d="M135.952 47.3293V36.6987H134.991V47.3293H135.952Z" fill="#163560"/>
<path d="M142.942 34.2213H127.548V36.4474H142.942V34.2213Z" fill="#163560"/>
<path d="M172.432 36.6921H161.799V47.3227H172.432V36.6921Z" fill="#BDD1F9"/>
<path d="M161.295 36.2041V47.8108H172.905V36.2041H161.295ZM171.929 46.8347H162.287V37.1955H171.929V46.8347Z" fill="#163560"/>
<path d="M167.589 47.3331V36.7025H166.628V47.3331H167.589Z" fill="#163560"/>
<path d="M174.461 34.2213H159.068V36.4474H174.461V34.2213Z" fill="#163560"/>
<path d="M203.952 36.6921H193.318V47.3227H203.952V36.6921Z" fill="#BDD1F9"/>
<path d="M192.815 36.2041V47.8108H204.425V36.2041H192.815ZM203.448 46.8347H193.806V37.1955H203.448V46.8347Z" fill="#163560"/>
<path d="M199.11 47.3316V36.701H198.149V47.3316H199.11Z" fill="#163560"/>
<path d="M205.981 34.2213H190.587V36.4474H205.981V34.2213Z" fill="#163560"/>
<path d="M152.455 231.672H167.59C168.398 230.985 167.025 229.414 165.591 229.323C164.965 229.277 164.187 229.399 163.287 229.597C163.074 226.837 161.884 214.391 157.398 214.894C152.364 215.459 157.398 220.37 158.817 223.283C159.87 225.434 160.984 228.53 161.502 229.994C161.09 230.085 160.663 230.177 160.236 230.253C159.565 228.209 157.078 221.3 153.92 221.697C150.213 222.17 151.692 224.93 154.332 226.577C156.269 227.782 158.634 229.506 159.763 230.329C158.802 230.482 157.81 230.589 156.803 230.573C154.21 230.497 152.944 231.26 152.455 231.672Z" fill="#A8D29F"/>
<path d="M236.492 232H225.081C224.47 231.481 225.508 230.307 226.591 230.231C227.064 230.2 227.659 230.292 228.33 230.444C228.483 228.355 229.383 218.99 232.754 219.371C236.553 219.798 232.754 223.505 231.687 225.686C230.893 227.318 230.054 229.636 229.673 230.734C229.978 230.795 230.298 230.871 230.634 230.932C231.137 229.392 233.014 224.191 235.394 224.496C238.186 224.847 237.072 226.936 235.089 228.172C233.639 229.087 231.854 230.368 231 230.993C231.717 231.115 232.465 231.192 233.227 231.176C235.165 231.115 236.126 231.695 236.492 232Z" fill="#A8D29F"/>
<path d="M168.298 132.673C168.832 134.106 169.762 135.784 170.739 136.196C171.837 136.669 172.31 137.34 172.31 137.34L173.195 136.821L174.263 136.196C174.263 136.196 174.232 136.074 174.186 135.891C174.141 135.693 174.049 135.433 173.942 135.128C173.942 135.128 173.622 134.701 173.82 134.183C174.019 133.649 173.973 132.84 173.637 132.337C173.302 131.834 172.966 130.614 172.768 130.659C172.264 130.751 173.012 132.429 172.798 132.734C172.6 133.008 172.371 132.917 172.325 132.901C172.325 132.901 172.325 132.901 172.31 132.901C170.906 132.291 169.213 128.982 168.466 129.424C168.191 129.592 168.084 132.063 168.298 132.673Z" fill="#FF9C7D"/>
<path d="M173.133 134.671L171.379 135.906C171.257 135.998 171.089 135.967 170.998 135.845L166.513 129.47C166.421 129.348 166.451 129.18 166.574 129.088L168.328 127.853C168.45 127.762 168.618 127.792 168.709 127.914L173.194 134.289C173.286 134.411 173.271 134.594 173.133 134.671Z" fill="#2B478B"/>
<path d="M171.532 135.799L170.51 136.516C170.418 136.577 170.281 136.562 170.22 136.47L165.658 129.988C165.597 129.897 165.613 129.76 165.704 129.699L166.726 128.982C166.818 128.921 166.955 128.936 167.016 129.027L171.578 135.51C171.654 135.601 171.639 135.738 171.532 135.799Z" fill="#233862"/>
<path d="M198.261 125.52C198.261 125.52 189.351 141.061 186.117 143.913L174.263 135.082C174.263 135.082 172.539 135.616 171.792 137.34C171.792 137.34 180.9 152.012 186.071 152.622C193.135 153.446 203.097 135.052 203.097 135.052L198.261 125.52Z" fill="#233862"/>
<path d="M214.906 231.444H220.047C220.688 231.093 221.267 230.285 221.451 229.08C221.695 227.418 223.556 226.518 223.968 225.16C224.364 223.803 222.305 221.897 222.305 221.897L221.954 221.454L221.603 220.997L218.186 221.805C218.186 221.805 218.094 222.613 218.048 223.651C218.018 224.398 217.987 225.267 218.033 226.015C218.14 227.83 217.53 229.767 215.928 230.117C214.738 230.392 214.799 231.093 214.906 231.444Z" fill="#2D4C7F"/>
<path d="M188.543 231.185H200.321C200.885 230.499 200.671 227.952 200.595 227.113C200.58 226.945 200.565 226.853 200.565 226.853C200.565 226.853 196.552 223.635 195.988 226.106C195.973 226.182 195.957 226.259 195.927 226.335C195.225 228.638 192.113 229.69 190.312 229.98C189.138 230.148 188.711 230.758 188.543 231.185Z" fill="#2D4C7F"/>
<path d="M190.785 165.495C190.785 165.495 191.395 173.106 192.112 182.257C193.089 194.687 194.264 209.954 194.37 212.852C194.569 217.87 195.377 225.908 195.377 225.908C195.377 225.908 197.284 227.814 201.098 227.006C201.098 227.006 204.501 215.537 205.477 203.396C205.492 203.198 205.507 202.999 205.523 202.801C206.423 190.447 207.826 164.427 207.826 164.427L190.785 165.495Z" fill="#F76748"/>
<path d="M190.785 165.495C190.785 165.495 191.395 173.106 192.112 182.257L205.477 203.411C205.492 203.213 205.507 203.015 205.523 202.816C206.423 190.462 207.826 164.442 207.826 164.442L190.785 165.495Z" fill="#F76748"/>
<path d="M193.775 164.244C193.775 164.244 203.005 192.384 209.367 205.714C215.729 219.044 217.743 222.781 217.743 222.781C217.743 222.781 221.893 221.347 222.32 220.249C222.32 220.249 220.123 196.853 215.714 190.493C213.227 186.909 211.549 174.676 211.61 171.062C211.671 167.447 211.259 160.248 211.259 160.248L193.775 164.244Z" fill="#F76748"/>
<path d="M196.308 126.191C200.61 127.548 208.04 123.888 208.04 123.888C208.04 123.888 204.074 120.913 204.287 114.736L200.961 117.421L198.703 119.236C198.703 119.236 198.719 120.303 198.963 122.195V122.21C199.085 123.155 198.703 124.086 197.956 124.665C196.903 125.443 196.308 126.191 196.308 126.191Z" fill="#FFB27D"/>
<path d="M198.719 119.236C198.719 119.236 198.734 120.303 198.978 122.195C201.48 121.768 204.318 117.726 204.318 117.726C203.036 117.36 201.922 117.299 200.977 117.421L198.719 119.236Z" fill="#E8945B"/>
<path d="M197.392 119.129C197.392 119.129 204.486 120.303 205.157 115.88C205.828 111.442 207.186 108.62 202.686 107.675C198.185 106.729 197.041 108.3 196.461 109.718C195.881 111.137 195.576 118.702 197.392 119.129Z" fill="#FFB27D"/>
<path d="M190.313 166.12C190.435 166.227 190.587 166.288 190.77 166.288C192.387 166.273 197.086 167.157 201.083 166.761C204.44 166.441 207.415 165.449 210.603 164.015C211.031 163.832 212.007 163.299 211.976 162.826C211.961 162.307 211.915 161.56 211.839 160.614C211.61 157.32 211.214 151.661 211.61 145.118C211.687 143.898 211.717 142.693 211.717 141.504C211.748 132.642 209.993 124.848 206.469 122.21C206.164 121.996 204.318 122.896 202.609 123.735C201.038 124.513 199.832 124.589 198.337 124.284L196.491 125.611C194.676 127.289 192.708 129.577 191.838 133.039C191.106 135.982 190.679 141.305 190.435 146.811C190.328 149.313 190.236 151.829 190.221 154.208V154.3C190.206 154.544 190.206 154.788 190.206 155.032C190.114 161.179 190.206 166.029 190.313 166.12Z" fill="#2B478B"/>
<path d="M211.839 160.614C211.61 157.32 211.213 151.661 211.61 145.118C211.686 143.898 211.717 142.693 211.717 141.504C210.252 137.935 209.047 135.357 209.047 135.357H205.34C205.34 135.342 202.624 153.903 211.839 160.614Z" fill="#233862"/>
<path d="M205.172 115.453C205.172 115.453 204.44 115.331 204.562 114.325C204.684 113.318 204.684 112.006 203.86 112.25C203.051 112.494 203.006 113.15 202.67 112.769C202.334 112.388 202.334 110.786 199.893 110.664C197.468 110.557 196.476 111.396 195.347 110.908C194.218 110.405 194.157 108.697 194.157 108.697C194.157 108.697 194.477 109.307 194.966 109.505C194.966 109.505 193.089 106.927 195.256 105.158C197.437 103.389 199.665 104.548 200.931 104.624C203.708 104.792 205.508 104.96 206.423 106.79C207.338 108.62 206.957 113.699 205.172 115.453Z" fill="#2B478B"/>
<path d="M259.255 228.089C259.042 229.461 260.064 231.063 261.559 231.643C263.054 232.222 264.442 231.582 264.671 230.209C264.885 228.836 263.863 227.235 262.368 226.655C260.873 226.06 259.484 226.701 259.255 228.089Z" fill="#1C468A"/>
<path d="M240.277 228.119C240.063 229.492 241.085 231.093 242.581 231.673C244.076 232.253 245.464 231.612 245.693 230.239C245.906 228.867 244.884 227.265 243.389 226.686C241.894 226.106 240.491 226.747 240.277 228.119Z" fill="#1C468A"/>
<path d="M264.641 227.738L261.239 229.126C260.888 229.263 260.507 229.34 260.11 229.34L238.706 229.156L235.349 225.191L264.641 227.738Z" fill="#739AF0"/>
<path d="M242.718 181.875L234.525 169.887L234.51 169.857C234.464 169.75 233.152 167.188 226.226 166.486H226.195L220.489 165.708C219.757 165.571 217.621 165.327 216.675 165.83C216.248 166.044 216.096 166.395 216.187 166.898C216.37 167.889 221.817 175.668 225.432 180.655L224.365 180.93C223.434 179.649 215.287 168.377 215.028 166.944C214.89 166.196 215.18 165.617 215.897 165.251C217.453 164.442 220.428 164.946 220.749 165.007L226.378 165.769C233.839 166.517 235.486 169.354 235.654 169.674L243.816 181.631L242.718 181.875Z" fill="#1C468A"/>
<path d="M228.682 179.496L217.758 181.875C217.758 181.875 214.753 183.279 216.98 189.318C218.933 194.626 229.155 224.444 229.155 224.444C229.155 224.444 231.291 230.651 243.74 228.821L228.682 179.496Z" fill="#739AF0"/>
<path d="M224.395 187.717L236.066 221.103C236.539 222.461 237.317 223.696 238.309 224.733C240.14 226.655 242.642 227.906 245.098 227.921L255.808 227.967H256.067L262.765 227.997C263.436 227.997 264.062 227.906 264.641 227.738C264.779 227.692 264.901 227.662 265.038 227.601C267.159 226.808 268.44 224.871 268.486 222.491C268.501 221.485 268.303 220.387 267.845 219.273L254.786 187.336C253.397 183.934 250.01 181.326 246.593 181.006L244.656 180.823L244.198 180.777L243.816 180.747L237.348 180.137L236.554 180.06L230.315 179.481C229.338 179.389 228.438 179.496 227.645 179.74C227.599 179.755 227.538 179.771 227.492 179.786L227.172 179.908C224.441 181.067 223.159 184.178 224.395 187.717Z" fill="#83B0FF"/>
<g opacity="0.5">
<path d="M238.309 224.733C240.14 226.655 242.642 227.906 245.098 227.921L255.808 227.967H256.067L262.765 227.997C263.436 227.997 264.061 227.906 264.641 227.738C264.778 227.692 264.9 227.662 265.038 227.601C267.158 226.808 269.081 223.925 268.333 220.875C268.333 220.875 245.647 220.615 241.116 221.378C238.782 221.775 238.507 223.529 238.309 224.733Z" fill="#739AF0"/>
</g>
<path d="M243.816 180.732C243.877 180.762 249.629 183.843 250.972 186.573C252.36 189.364 265.206 221.973 265.328 222.293C265.343 222.324 266.274 225.465 264.321 227.83L264.641 227.738C264.778 227.692 264.901 227.662 265.038 227.601C266.808 225.16 265.755 222.354 265.709 222.232C265.175 220.89 252.726 189.288 251.322 186.466C250.102 183.995 245.968 181.54 244.656 180.808L244.198 180.762L243.816 180.732Z" fill="#739AF0"/>
<path d="M236.539 180.06C237.378 180.548 240.643 182.668 242.23 186.588C244.091 191.179 255.319 224.55 255.426 224.886L255.442 224.916L255.457 224.932C255.472 224.947 256.311 226.747 255.533 227.982H255.808H256.067C256.784 226.67 255.945 225.054 255.823 224.84C255.472 223.803 244.457 191.103 242.611 186.542C241.238 183.172 238.675 181.067 237.332 180.152L236.539 180.06Z" fill="#739AF0"/>
<path d="M227.156 179.908C227.187 179.923 228.362 180.518 229.521 181.54C230.681 182.577 232.054 184.163 232.954 186.405C234.815 190.996 245.464 224.245 245.571 224.581L245.586 224.611L245.601 224.642C245.617 224.657 246.227 226.701 245.449 227.921H246.12C246.669 226.808 246.105 224.779 245.967 224.535C245.632 223.467 235.197 190.905 233.351 186.344C231.611 182.058 228.331 180.106 227.645 179.725C227.599 179.74 227.538 179.755 227.492 179.771L227.156 179.908Z" fill="#739AF0"/>
<path d="M219.375 159.211C219.375 159.211 219.848 162.612 219.879 163.055C220.108 166.044 219.681 166.334 221.313 166.868C221.771 167.02 222.991 167.02 223.693 166.151C223.693 166.151 222.549 166.074 222.747 164.427C222.976 162.536 222.854 163.07 221.71 161.529L221.435 158.692L219.375 159.211Z" fill="#FF9C7D"/>
<path d="M220.917 162.094C219.574 162.353 218.14 162.246 218.14 162.246C218.14 162.246 214.173 150.014 213.67 148.885C213.166 147.772 201.892 134.533 201.892 134.533L206.591 122.789C206.591 122.789 218.766 143.135 220.017 145.988C222.061 150.716 222.763 161.301 222.763 161.301C222.763 161.301 221.969 161.895 220.917 162.094Z" fill="#2B478B"/>
<path d="M219.879 163.055C219.879 163.055 219.589 163.802 219.574 164.152C219.543 165.281 219.223 165.799 219.421 165.891C219.833 166.089 220.245 165.22 220.413 164.457C220.581 163.695 219.879 163.055 219.879 163.055Z" fill="#FF9C7D"/>
<path d="M136.794 87.4046C136.794 86.9014 136.382 86.4897 135.878 86.4897C135.375 86.4897 134.963 86.9014 134.963 87.4046C134.963 87.9078 135.375 88.3194 135.878 88.3194C136.382 88.3194 136.794 87.923 136.794 87.4046Z" fill="#163560"/>
<path d="M137.511 86.4284C137.434 86.4284 137.358 86.3979 137.297 86.3521C136.809 85.8947 136.321 85.6812 135.817 85.6965C135.039 85.727 134.475 86.3216 134.475 86.3369C134.368 86.4588 134.17 86.4741 134.048 86.3521C133.926 86.2454 133.91 86.0472 134.032 85.9252C134.063 85.8947 134.765 85.1323 135.802 85.0866C136.473 85.0561 137.129 85.3305 137.74 85.9099C137.862 86.0319 137.862 86.2149 137.755 86.3369C137.679 86.3979 137.602 86.4284 137.511 86.4284Z" fill="#163560"/>
<path d="M138.472 85.1013C138.395 85.1013 138.319 85.0708 138.258 85.0251C137.449 84.278 136.626 83.8968 135.771 83.9425C134.459 83.9883 133.529 84.9946 133.513 85.0098C133.407 85.1318 133.208 85.1471 133.086 85.0251C132.964 84.9184 132.949 84.7201 133.056 84.5982C133.102 84.5524 134.154 83.3936 135.726 83.3326C136.748 83.2869 137.724 83.7138 138.655 84.5829C138.777 84.7049 138.777 84.8879 138.67 85.0098C138.624 85.0708 138.548 85.1013 138.472 85.1013Z" fill="#163560"/>
<path d="M139.479 83.8048C139.402 83.8048 139.326 83.7743 139.265 83.7286C138.121 82.6612 136.931 82.1428 135.726 82.1886C133.849 82.2648 132.537 83.6981 132.522 83.7133C132.415 83.8353 132.217 83.8505 132.095 83.7286C131.973 83.6218 131.958 83.4236 132.064 83.3016C132.125 83.2406 133.559 81.6702 135.695 81.5787C137.083 81.5177 138.411 82.0971 139.677 83.2864C139.799 83.4084 139.799 83.5913 139.692 83.7133C139.631 83.7743 139.555 83.8048 139.479 83.8048Z" fill="#163560"/>
<path d="M76.9586 83.5303H70.9784C70.7648 83.5303 70.5818 83.3474 70.5818 83.134C70.5818 82.9207 70.7648 82.7378 70.9784 82.7378H76.9586C77.1722 82.7378 77.3552 82.9207 77.3552 83.134C77.3705 83.3474 77.1874 83.5303 76.9586 83.5303Z" fill="#163560"/>
<path d="M76.9586 85.2843H70.9784C70.7648 85.2843 70.5818 85.1014 70.5818 84.888C70.5818 84.6747 70.7648 84.4918 70.9784 84.4918H76.9586C77.1722 84.4918 77.3552 84.6747 77.3552 84.888C77.3705 85.1014 77.1874 85.2843 76.9586 85.2843Z" fill="#163560"/>
<path d="M76.9586 87.1602H70.9784C70.7648 87.1602 70.5818 86.9774 70.5818 86.764C70.5818 86.5506 70.7648 86.3677 70.9784 86.3677H76.9586C77.1722 86.3677 77.3552 86.5506 77.3552 86.764C77.3705 86.9926 77.1874 87.1602 76.9586 87.1602Z" fill="#163560"/>
<path d="M5.26953 31.4912C5.26953 31.4912 7.46643 27.5715 12.7146 27.9985C12.7146 27.9985 20.3274 21.4554 28.4438 27.1292C28.4438 27.1292 37.0788 25.726 43.4712 28.3493C47.7277 30.1033 49.1465 31.9335 49.1465 31.9335L5.26953 31.4912Z" fill="#F8FCFF"/>
<path d="M41.1218 14.8666C41.1218 14.8666 46.0038 6.12721 57.6901 7.08808C57.6901 7.08808 74.6551 -7.47753 92.7337 5.15108C92.7337 5.15108 111.957 2.02444 126.191 7.86593C135.68 11.7552 138.823 15.8427 138.823 15.8427L41.1218 14.8666Z" fill="#F8FCFF"/>
<path d="M24.7671 47.8565C24.7671 47.8565 28.4896 41.344 37.3687 42.0608C37.3687 42.0608 50.2755 31.2014 64.0367 40.6119C64.0367 40.6119 78.6674 38.2783 89.4994 42.6251C96.7308 45.523 99.1108 48.5734 99.1108 48.5734L24.7671 47.8565Z" fill="#F8FCFF"/>
<path d="M109.241 190.386C114.616 190.386 118.974 186.029 118.974 180.655C118.974 175.281 114.616 170.924 109.241 170.924C103.865 170.924 99.5073 175.281 99.5073 180.655C99.5073 186.029 103.865 190.386 109.241 190.386Z" fill="#EBF2FF"/>
<path d="M94.6405 182.013C94.9151 190.401 109.485 203.32 109.485 203.32C109.485 203.32 123.154 189.456 122.88 181.067C122.605 172.678 116.045 166.105 108.249 166.364C100.453 166.623 94.3659 173.639 94.6405 182.013ZM100.407 180.93C100.255 176.354 103.871 172.495 108.447 172.328C113.055 172.175 116.884 175.79 117.052 180.365C117.205 184.972 113.619 188.8 109.012 188.968C104.435 189.12 100.575 185.536 100.407 180.93Z" fill="#F76748"/>
<path d="M239.59 127.414H233.442C231.566 127.414 230.021 125.883 230.021 123.994V68.2942C230.021 66.4187 231.553 64.8744 233.442 64.8744H239.59C241.467 64.8744 243.011 66.4059 243.011 68.2942V123.994C243.011 125.883 241.467 127.414 239.59 127.414Z" fill="white" stroke="#163560"/>
<path d="M238.603 72.5266C238.603 72.0603 238.523 71.7126 238.362 71.4837C238.2 71.2463 237.997 71.0852 237.751 71.0004C237.513 70.9156 237.28 70.8775 237.051 70.8859L236.223 70.8987C236.045 70.8987 235.892 70.9241 235.765 70.975C235.638 71.0174 235.54 71.1191 235.472 71.2802C235.405 71.4328 235.371 71.6745 235.371 72.0052V73.7858L236.134 73.7604C236.966 73.7349 237.636 73.79 238.145 73.9257C238.663 74.0614 239.057 74.2564 239.329 74.5108C239.609 74.7567 239.796 75.0407 239.889 75.3629C239.991 75.6851 240.042 76.0243 240.042 76.3804C240.042 76.94 239.906 77.4149 239.634 77.8049C239.371 78.1865 239.006 78.4747 238.54 78.6698C238.073 78.8648 237.543 78.9623 236.949 78.9623H232.621V78.1229C232.817 78.1144 232.978 78.089 233.105 78.0465C233.241 78.0041 233.343 77.9066 233.411 77.754C233.487 77.6014 233.525 77.3555 233.525 77.0163V72.1451C233.525 71.9161 233.529 71.6957 233.538 71.4837C233.555 71.2717 233.568 71.1106 233.576 71.0004C233.44 71.0089 233.271 71.0174 233.067 71.0258C232.863 71.0258 232.715 71.0301 232.621 71.0386V70.0592H239.367L239.431 72.5266H238.603ZM235.371 76.94C235.371 77.169 235.366 77.3852 235.358 77.5887C235.349 77.7922 235.337 77.949 235.32 78.0593C235.472 78.0593 235.617 78.0593 235.752 78.0593C235.888 78.0593 236.024 78.0593 236.16 78.0593C236.295 78.0508 236.427 78.0465 236.554 78.0465C237.072 78.0211 237.449 77.8515 237.687 77.5378C237.925 77.2241 238.043 76.8213 238.043 76.3295C238.043 75.8886 237.963 75.5494 237.802 75.312C237.64 75.0746 237.433 74.9093 237.178 74.816C236.932 74.7227 236.673 74.6761 236.402 74.6761C236.189 74.6761 236.007 74.6761 235.854 74.6761C235.702 74.6676 235.54 74.6719 235.371 74.6888V76.94Z" fill="#2F70D9"/>
<path d="M236.968 87.6703C236.951 87.5516 236.938 87.4541 236.929 87.3777C236.929 87.293 236.925 87.1954 236.917 87.0852C236.628 87.3735 236.323 87.577 236 87.6957C235.678 87.8144 235.351 87.8738 235.02 87.8738C234.477 87.8738 234.053 87.7127 233.748 87.3905C233.442 87.0682 233.289 86.6655 233.289 86.1822C233.289 85.7752 233.391 85.4275 233.595 85.1393C233.807 84.851 234.083 84.6178 234.422 84.4397C234.77 84.2532 235.152 84.1133 235.568 84.02C235.992 83.9183 236.416 83.8589 236.84 83.842V83.1806C236.84 82.9601 236.811 82.7609 236.751 82.5828C236.7 82.4047 236.607 82.2648 236.471 82.1631C236.344 82.0613 236.162 82.0147 235.924 82.0232C235.763 82.0317 235.606 82.0656 235.453 82.1249C235.3 82.1843 235.169 82.2691 235.058 82.3793C235.126 82.4556 235.169 82.5404 235.186 82.6337C235.203 82.7185 235.211 82.7948 235.211 82.8626C235.211 83.0322 235.143 83.2103 235.008 83.3968C234.872 83.5749 234.655 83.6596 234.358 83.6512C234.104 83.6427 233.909 83.5537 233.773 83.3841C233.637 83.2145 233.569 83.0152 233.569 82.7863C233.569 82.4471 233.688 82.1546 233.926 81.9087C234.172 81.6543 234.498 81.4593 234.906 81.3237C235.313 81.1795 235.763 81.1074 236.255 81.1074C237.002 81.1074 237.579 81.3025 237.986 81.6925C238.402 82.0741 238.609 82.6888 238.609 83.5367C238.609 83.825 238.609 84.0709 238.609 84.2744C238.609 84.4779 238.605 84.6814 238.597 84.8849C238.597 85.0884 238.597 85.3343 238.597 85.6226C238.597 85.7413 238.592 85.9108 238.584 86.1313C238.576 86.3433 238.563 86.5468 238.546 86.7418C238.69 86.7248 238.843 86.7164 239.004 86.7164C239.165 86.7079 239.288 86.7037 239.373 86.7037V87.6703H236.968ZM236.828 84.745C236.59 84.7704 236.365 84.8128 236.153 84.8722C235.941 84.9315 235.754 85.0121 235.593 85.1138C235.44 85.2156 235.317 85.3385 235.224 85.4827C235.139 85.6268 235.097 85.7879 235.097 85.966C235.105 86.2034 235.181 86.373 235.326 86.4747C235.47 86.5765 235.635 86.6273 235.822 86.6273C236.017 86.6273 236.2 86.5849 236.369 86.5002C236.539 86.4154 236.692 86.3051 236.828 86.1695C236.828 86.0847 236.828 86.0041 236.828 85.9278C236.828 85.843 236.828 85.7582 236.828 85.6734C236.828 85.5208 236.828 85.3682 236.828 85.2156C236.828 85.0545 236.828 84.8976 236.828 84.745Z" fill="#2F70D9"/>
<path d="M235.924 90.8456C235.695 90.8456 235.525 90.8922 235.415 90.9855C235.313 91.0788 235.245 91.2102 235.211 91.3798C235.186 91.5494 235.173 91.7486 235.173 91.9776V94.3305C235.173 94.4493 235.169 94.6188 235.16 94.8393C235.152 95.0513 235.139 95.2548 235.122 95.4498C235.258 95.4328 235.406 95.4243 235.568 95.4243C235.737 95.4159 235.865 95.4116 235.949 95.4116V96.3782H232.615V95.5515C232.852 95.5515 233.022 95.5049 233.124 95.4116C233.226 95.3183 233.289 95.1869 233.315 95.0173C233.349 94.8393 233.366 94.64 233.366 94.4196V92.0666C233.366 91.9479 233.37 91.7783 233.378 91.5579C233.387 91.3374 233.4 91.1339 233.417 90.9474C233.281 90.9558 233.132 90.9643 232.971 90.9728C232.81 90.9813 232.683 90.9855 232.589 90.9855V90.0189H235.924V90.8456ZM237.808 91.0873L238.419 91.7232L234.766 95.2336L234.142 94.5849L237.808 91.0873ZM240.048 90.8456C239.819 90.8456 239.649 90.8922 239.539 90.9855C239.437 91.0788 239.369 91.2102 239.335 91.3798C239.31 91.5494 239.297 91.7486 239.297 91.9776V94.3305C239.297 94.4493 239.293 94.6188 239.284 94.8393C239.276 95.0513 239.263 95.2548 239.246 95.4498C239.382 95.4328 239.53 95.4243 239.691 95.4243C239.861 95.4159 239.988 95.4116 240.073 95.4116V96.3782H236.739V95.5515C236.976 95.5515 237.146 95.5049 237.248 95.4116C237.349 95.3183 237.413 95.1869 237.439 95.0173C237.473 94.8393 237.489 94.64 237.489 94.4196V92.0666C237.489 91.9479 237.494 91.7783 237.502 91.5579C237.511 91.3374 237.523 91.1339 237.54 90.9474C237.405 90.9558 237.256 90.9643 237.095 90.9728C236.934 90.9813 236.806 90.9855 236.713 90.9855V90.0189H240.048V90.8456Z" fill="#2F70D9"/>
<path d="M232.831 104.883V104.056C233.069 104.056 233.239 104.009 233.34 103.916C233.451 103.823 233.519 103.691 233.544 103.522C233.578 103.344 233.595 103.145 233.595 102.924V100.571C233.595 100.452 233.599 100.283 233.608 100.062C233.616 99.8419 233.629 99.6384 233.646 99.4518C233.51 99.4603 233.362 99.4688 233.2 99.4773C233.039 99.4857 232.912 99.49 232.819 99.49V98.5234H236.153V99.3501C235.916 99.3501 235.742 99.3967 235.632 99.49C235.53 99.5833 235.466 99.7147 235.441 99.8843C235.415 100.054 235.402 100.253 235.402 100.482V101.08H236.013L236.93 100.024C237.04 99.9055 237.129 99.8037 237.197 99.7189C237.273 99.6341 237.35 99.5578 237.426 99.49H236.752V98.5234H239.615V99.3374C239.318 99.3713 239.055 99.4434 238.826 99.5536C238.597 99.6553 238.398 99.7783 238.228 99.9224C238.067 100.067 237.927 100.206 237.808 100.342L236.993 101.245C237.121 101.313 237.244 101.406 237.362 101.525C237.49 101.635 237.643 101.809 237.821 102.046L238.673 103.166C238.724 103.225 238.788 103.306 238.864 103.407C238.949 103.509 239.043 103.611 239.144 103.713C239.246 103.806 239.356 103.886 239.475 103.954C239.594 104.022 239.717 104.056 239.844 104.056V104.883H238.381C238.109 104.883 237.872 104.789 237.668 104.603C237.464 104.408 237.231 104.132 236.968 103.776C236.815 103.573 236.654 103.356 236.484 103.128C236.323 102.89 236.17 102.67 236.026 102.466C235.89 102.254 235.78 102.089 235.695 101.97L235.402 101.983V102.835C235.402 102.954 235.398 103.123 235.39 103.344C235.381 103.556 235.368 103.759 235.352 103.954C235.487 103.937 235.636 103.929 235.797 103.929C235.958 103.92 236.085 103.916 236.179 103.916V104.883H232.831Z" fill="#2F70D9"/>
<path d="M236.968 113.591C236.951 113.472 236.938 113.374 236.929 113.298C236.929 113.213 236.925 113.116 236.917 113.006C236.628 113.294 236.323 113.497 236 113.616C235.678 113.735 235.351 113.794 235.02 113.794C234.477 113.794 234.053 113.633 233.748 113.311C233.442 112.989 233.289 112.586 233.289 112.103C233.289 111.696 233.391 111.348 233.595 111.06C233.807 110.771 234.083 110.538 234.422 110.36C234.77 110.174 235.152 110.034 235.568 109.94C235.992 109.839 236.416 109.779 236.84 109.762V109.101C236.84 108.881 236.811 108.681 236.751 108.503C236.7 108.325 236.607 108.185 236.471 108.084C236.344 107.982 236.162 107.935 235.924 107.944C235.763 107.952 235.606 107.986 235.453 108.045C235.3 108.105 235.169 108.19 235.058 108.3C235.126 108.376 235.169 108.461 235.186 108.554C235.203 108.639 235.211 108.715 235.211 108.783C235.211 108.953 235.143 109.131 235.008 109.317C234.872 109.495 234.655 109.58 234.358 109.572C234.104 109.563 233.909 109.474 233.773 109.305C233.637 109.135 233.569 108.936 233.569 108.707C233.569 108.368 233.688 108.075 233.926 107.829C234.172 107.575 234.498 107.38 234.906 107.244C235.313 107.1 235.763 107.028 236.255 107.028C237.002 107.028 237.579 107.223 237.986 107.613C238.402 107.994 238.609 108.609 238.609 109.457C238.609 109.745 238.609 109.991 238.609 110.195C238.609 110.398 238.605 110.602 238.597 110.805C238.597 111.009 238.597 111.255 238.597 111.543C238.597 111.662 238.592 111.831 238.584 112.052C238.576 112.264 238.563 112.467 238.546 112.662C238.69 112.645 238.843 112.637 239.004 112.637C239.165 112.628 239.288 112.624 239.373 112.624V113.591H236.968ZM236.828 110.665C236.59 110.691 236.365 110.733 236.153 110.793C235.941 110.852 235.754 110.932 235.593 111.034C235.44 111.136 235.317 111.259 235.224 111.403C235.139 111.547 235.097 111.708 235.097 111.886C235.105 112.124 235.181 112.293 235.326 112.395C235.47 112.497 235.635 112.548 235.822 112.548C236.017 112.548 236.2 112.505 236.369 112.421C236.539 112.336 236.692 112.226 236.828 112.09C236.828 112.005 236.828 111.925 236.828 111.848C236.828 111.763 236.828 111.679 236.828 111.594C236.828 111.441 236.828 111.289 236.828 111.136C236.828 110.975 236.828 110.818 236.828 110.665Z" fill="#2F70D9"/>
<path d="M233.703 122.477C233.313 122.477 232.99 122.371 232.736 122.159C232.481 121.947 232.354 121.671 232.354 121.332C232.354 121.052 232.435 120.84 232.596 120.696C232.757 120.544 232.969 120.467 233.232 120.467C233.504 120.467 233.695 120.539 233.805 120.683C233.924 120.828 233.983 120.984 233.983 121.154C233.983 121.264 233.97 121.349 233.945 121.408C233.92 121.459 233.89 121.506 233.856 121.548C233.881 121.574 233.924 121.586 233.983 121.586C234.212 121.586 234.412 121.396 234.581 121.014C234.751 120.633 234.891 120.086 235.001 119.373C235.112 118.661 235.197 117.805 235.256 116.804L234.047 116.906V115.939H240.296V116.766C240.059 116.766 239.885 116.813 239.775 116.906C239.673 116.999 239.605 117.131 239.571 117.3C239.545 117.47 239.533 117.669 239.533 117.898V120.251C239.533 120.37 239.529 120.539 239.52 120.76C239.512 120.972 239.499 121.175 239.482 121.37L240.309 121.332V122.299H236.962V121.472C237.199 121.472 237.369 121.425 237.471 121.332C237.581 121.239 237.649 121.107 237.674 120.938C237.709 120.76 237.725 120.56 237.725 120.34V117.987C237.725 117.868 237.73 117.711 237.738 117.516C237.747 117.313 237.759 117.122 237.776 116.944H236.822C236.618 116.944 236.474 116.978 236.389 117.046C236.304 117.114 236.253 117.254 236.236 117.466C236.185 118.313 236.092 119.051 235.956 119.679C235.829 120.306 235.659 120.828 235.447 121.243C235.243 121.659 234.993 121.968 234.696 122.171C234.408 122.375 234.077 122.477 233.703 122.477Z" fill="#2F70D9"/>
</svg>
