<svg width="108" height="27" viewBox="0 0 108 27" fill="none" xmlns="http://www.w3.org/2000/svg">
<path d="M14.3303 11.642C14.3303 10.5633 14.1372 9.75906 13.751 9.22948C13.3648 8.6803 12.877 8.30759 12.2875 8.11147C11.7184 7.91534 11.1594 7.82708 10.6105 7.84667L8.62868 7.87609C8.20182 7.87609 7.83594 7.93494 7.53104 8.05262C7.22614 8.15071 6.9924 8.38608 6.82977 8.75874C6.66714 9.11179 6.58585 9.6708 6.58585 10.4358V14.5548L8.41525 14.4959C10.4073 14.4371 12.0131 14.5646 13.2327 14.8784C14.4726 15.1922 15.4178 15.6433 16.0683 16.2318C16.739 16.8006 17.1862 17.4576 17.4098 18.203C17.6537 18.9484 17.7757 19.7329 17.7757 20.5567C17.7757 21.8513 17.4505 22.9497 16.8 23.8519C16.1699 24.7346 15.2958 25.4014 14.1779 25.8526C13.0599 26.3037 11.7895 26.5293 10.3666 26.5293H0V24.5875C0.467516 24.5679 0.853721 24.509 1.15862 24.4109C1.48385 24.3128 1.72777 24.0873 1.89038 23.7342C2.07332 23.3812 2.16479 22.8123 2.16479 22.0278V10.7594C2.16479 10.2298 2.17496 9.71982 2.19528 9.22948C2.23594 8.73914 2.26643 8.36643 2.28675 8.11147C1.96153 8.13106 1.55499 8.15071 1.06715 8.17031C0.579311 8.17031 0.223596 8.18013 0 8.19973V5.93428H16.1597L16.3122 11.642H14.3303ZM6.58585 21.8513C6.58585 22.3808 6.57567 22.881 6.55536 23.3518C6.53505 23.8225 6.50456 24.1854 6.46389 24.4403C6.82977 24.4403 7.17535 24.4403 7.50055 24.4403C7.82576 24.4403 8.15103 24.4403 8.47623 24.4403C8.80144 24.4208 9.11653 24.4109 9.42143 24.4109C10.6613 24.3521 11.5659 23.9598 12.135 23.2341C12.7042 22.5084 12.9888 21.5766 12.9888 20.439C12.9888 19.4191 12.7956 18.6345 12.4095 18.0853C12.0233 17.5361 11.5252 17.1537 10.9154 16.9379C10.3259 16.7221 9.70602 16.6143 9.05554 16.6143C8.5474 16.6143 8.11035 16.6143 7.74447 16.6143C7.37859 16.5947 6.99241 16.6044 6.58585 16.6437V21.8513ZM28.3598 26.5293C28.3192 26.2546 28.2887 26.0291 28.2683 25.8526C28.2683 25.6565 28.2582 25.4308 28.2378 25.1759C27.5467 25.8427 26.815 26.3135 26.0425 26.5881C25.2702 26.8627 24.4875 27 23.6948 27C22.3939 27 21.3776 26.6274 20.6458 25.882C19.914 25.1366 19.5481 24.205 19.5481 23.087C19.5481 22.1455 19.7921 21.3413 20.2799 20.6744C20.7881 20.0075 21.4487 19.4681 22.2618 19.0562C23.0952 18.6247 24.0099 18.3011 25.0059 18.0853C26.0222 17.85 27.0386 17.7127 28.0549 17.6734V16.1435C28.0549 15.6335 27.9838 15.1726 27.8414 14.7607C27.7195 14.3488 27.4959 14.0252 27.1707 13.7898C26.8658 13.5544 26.4288 13.4466 25.8596 13.4662C25.4734 13.4858 25.0973 13.5643 24.7315 13.7015C24.3656 13.8388 24.0506 14.035 23.7863 14.29C23.9489 14.4665 24.0506 14.6626 24.0912 14.8784C24.1318 15.0745 24.1521 15.251 24.1521 15.408C24.1521 15.8003 23.9896 16.2122 23.6643 16.6437C23.3391 17.0556 22.8208 17.2517 22.1093 17.2321C21.4995 17.2125 21.032 17.0066 20.7068 16.6143C20.3816 16.2219 20.2189 15.761 20.2189 15.2314C20.2189 14.4469 20.5035 13.7702 21.0726 13.2014C21.6621 12.6129 22.4447 12.1618 23.4204 11.848C24.3961 11.5145 25.4734 11.3478 26.6523 11.3478C28.4411 11.3478 29.8233 11.799 30.799 12.7012C31.795 13.5838 32.293 15.0059 32.293 16.9673C32.293 17.6342 32.293 18.203 32.293 18.6738C32.293 19.1445 32.2829 19.6152 32.2625 20.086C32.2625 20.5567 32.2625 21.1256 32.2625 21.7924C32.2625 22.067 32.2524 22.4593 32.232 22.9693C32.2117 23.4596 32.1812 23.9304 32.1405 24.3815C32.4861 24.3423 32.852 24.3227 33.2382 24.3227C33.6244 24.3031 33.9191 24.2932 34.1224 24.2932V26.5293H28.3598ZM28.0244 19.7623C27.4553 19.8212 26.9166 19.9193 26.4084 20.0566C25.9003 20.1938 25.4531 20.3802 25.0668 20.6156C24.701 20.8509 24.4062 21.1353 24.1826 21.4688C23.9794 21.8022 23.8777 22.1749 23.8777 22.5868C23.8981 23.136 24.081 23.5283 24.4266 23.7637C24.7721 23.999 25.1685 24.1167 25.6157 24.1167C26.0832 24.1167 26.5202 24.0186 26.9267 23.8225C27.3333 23.6264 27.6992 23.3713 28.0244 23.0575C28.0244 22.8614 28.0244 22.6751 28.0244 22.4985C28.0244 22.3024 28.0244 22.1062 28.0244 21.9101C28.0244 21.557 28.0244 21.204 28.0244 20.8509C28.0244 20.4783 28.0244 20.1154 28.0244 19.7623ZM43.8004 13.731C43.2515 13.731 42.845 13.8388 42.5808 14.0546C42.3368 14.2704 42.1743 14.5743 42.0929 14.9667C42.0319 15.359 42.0014 15.8199 42.0014 16.3495V21.7924C42.0014 22.067 41.9913 22.4593 41.971 22.9693C41.9507 23.4596 41.9202 23.9304 41.8795 24.3815C42.2048 24.3423 42.5605 24.3227 42.9466 24.3227C43.3532 24.3031 43.6581 24.2932 43.8613 24.2932V26.5293H35.8729V24.6169C36.4421 24.6169 36.8486 24.509 37.0925 24.2932C37.3365 24.0775 37.4889 23.7735 37.5499 23.3812C37.6312 22.9693 37.6719 22.5084 37.6719 21.9984V16.5554C37.6719 16.2808 37.682 15.8885 37.7023 15.3786C37.7227 14.8686 37.7532 14.3978 37.7938 13.9663C37.4686 13.9859 37.1129 14.0056 36.7267 14.0252C36.3405 14.0448 36.0356 14.0546 35.812 14.0546V11.8186H43.8004V13.731ZM48.3129 14.29L49.7764 15.761L41.0258 23.8813L39.5318 22.3808L48.3129 14.29ZM53.6791 13.731C53.1303 13.731 52.7238 13.8388 52.4595 14.0546C52.2156 14.2704 52.053 14.5743 51.9717 14.9667C51.9107 15.359 51.8802 15.8199 51.8802 16.3495V21.7924C51.8802 22.067 51.8701 22.4593 51.8497 22.9693C51.8294 23.4596 51.7989 23.9304 51.7583 24.3815C52.0835 24.3423 52.4392 24.3227 52.8254 24.3227C53.232 24.3031 53.5369 24.2932 53.7401 24.2932V26.5293H45.7517V24.6169C46.3209 24.6169 46.7274 24.509 46.9713 24.2932C47.2152 24.0775 47.3677 23.7735 47.4287 23.3812C47.51 22.9693 47.5506 22.5084 47.5506 21.9984V16.5554C47.5506 16.2808 47.5608 15.8885 47.5811 15.3786C47.6015 14.8686 47.632 14.3978 47.6726 13.9663C47.3474 13.9859 46.9917 14.0056 46.6054 14.0252C46.2193 14.0448 45.9144 14.0546 45.6907 14.0546V11.8186H53.6791V13.731ZM55.4538 26.5293V24.6169C56.0229 24.6169 56.4295 24.509 56.6734 24.2932C56.9376 24.0775 57.1002 23.7735 57.1612 23.3812C57.2425 22.9693 57.2832 22.5084 57.2832 21.9984V16.5554C57.2832 16.2808 57.2934 15.8885 57.3137 15.3786C57.334 14.8686 57.3645 14.3978 57.4051 13.9663C57.0799 13.9859 56.7242 14.0056 56.338 14.0252C55.9518 14.0448 55.6469 14.0546 55.4233 14.0546V11.8186H63.412V13.731C62.8424 13.731 62.4259 13.8388 62.1619 14.0546C61.918 14.2704 61.7655 14.5743 61.7045 14.9667C61.6436 15.359 61.6131 15.8199 61.6131 16.3495V17.7323H63.0766L65.2719 15.2903C65.5359 15.0157 65.7494 14.7803 65.9122 14.5842C66.0951 14.3881 66.278 14.2115 66.461 14.0546H64.845V11.8186H71.7053V13.7015C70.9936 13.78 70.3637 13.9467 69.8149 14.2017C69.2661 14.4371 68.788 14.7215 68.3819 15.0549C67.9953 15.3884 67.6599 15.712 67.3757 16.0258L65.4243 18.1147C65.7292 18.2717 66.0238 18.4874 66.3085 18.762C66.6134 19.017 66.9793 19.4191 67.4062 19.9683L69.449 22.5574C69.571 22.6947 69.7234 22.881 69.9064 23.1164C70.1094 23.3518 70.3332 23.5871 70.5771 23.8225C70.8211 24.0383 71.0851 24.2246 71.3699 24.3815C71.6541 24.5384 71.9492 24.6169 72.2541 24.6169V26.5293H68.7477C68.0971 26.5293 67.5281 26.3135 67.0403 25.882C66.5525 25.4308 65.9933 24.7934 65.3634 23.9696C64.9975 23.4989 64.6109 22.9987 64.2047 22.4691C63.8181 21.9199 63.4522 21.4099 63.1071 20.9392C62.7815 20.4489 62.5174 20.0664 62.3143 19.7918L61.6131 19.8212V21.7924C61.6131 22.067 61.6027 22.4593 61.5826 22.9693C61.5618 23.4596 61.5314 23.9304 61.4911 24.3815C61.8161 24.3423 62.1716 24.3227 62.5583 24.3227C62.9443 24.3031 63.2492 24.2932 63.473 24.2932V26.5293H55.4538ZM82.4024 26.5293C82.3616 26.2546 82.3311 26.0291 82.3109 25.8526C82.3109 25.6565 82.3006 25.4308 82.2804 25.1759C81.5889 25.8427 80.8572 26.3135 80.0852 26.5881C79.3125 26.8627 78.5302 27 77.7374 27C76.4361 27 75.4202 26.6274 74.6884 25.882C73.9567 25.1366 73.5908 24.205 73.5908 23.087C73.5908 22.1455 73.8347 21.3413 74.3225 20.6744C74.8305 20.0075 75.4909 19.4681 76.3044 19.0562C77.1374 18.6247 78.0521 18.3011 79.0485 18.0853C80.0644 17.85 81.081 17.7127 82.0975 17.6734V16.1435C82.0975 15.6335 82.0262 15.1726 81.8841 14.7607C81.7621 14.3488 81.5383 14.0252 81.2133 13.7898C80.9084 13.5544 80.4712 13.4466 79.9022 13.4662C79.5156 13.4858 79.14 13.5643 78.7741 13.7015C78.4082 13.8388 78.0929 14.035 77.8289 14.29C77.9911 14.4665 78.0929 14.6626 78.1338 14.8784C78.1741 15.0745 78.1948 15.251 78.1948 15.408C78.1948 15.8003 78.032 16.2122 77.7069 16.6437C77.3813 17.0556 76.863 17.2517 76.1519 17.2321C75.5421 17.2125 75.0744 17.0066 74.7494 16.6143C74.4238 16.2219 74.2616 15.761 74.2616 15.2314C74.2616 14.4469 74.5457 13.7702 75.1153 13.2014C75.7044 12.6129 76.4873 12.1618 77.463 11.848C78.4387 11.5145 79.5156 11.3478 80.695 11.3478C82.4835 11.3478 83.8659 11.799 84.8416 12.7012C85.8374 13.5838 86.3356 15.0059 86.3356 16.9673C86.3356 17.6342 86.3356 18.203 86.3356 18.6738C86.3356 19.1445 86.3253 19.6152 86.3051 20.086C86.3051 20.5567 86.3051 21.1256 86.3051 21.7924C86.3051 22.067 86.2948 22.4593 86.2746 22.9693C86.2539 23.4596 86.2234 23.9304 86.1832 24.3815C86.5283 24.3423 86.8942 24.3227 87.2808 24.3227C87.6668 24.3031 87.9614 24.2932 88.165 24.2932V26.5293H82.4024ZM82.067 19.7623C81.4975 19.8212 80.959 19.9193 80.451 20.0566C79.9425 20.1938 79.4955 20.3802 79.1095 20.6156C78.7436 20.8509 78.4485 21.1353 78.2253 21.4688C78.0216 21.8022 77.9204 22.1749 77.9204 22.5868C77.9405 23.136 78.1234 23.5283 78.4692 23.7637C78.8143 23.999 79.2107 24.1167 79.6583 24.1167C80.1254 24.1167 80.5626 24.0186 80.9694 23.8225C81.3755 23.6264 81.7414 23.3713 82.067 23.0575C82.067 22.8614 82.067 22.6751 82.067 22.4985C82.067 22.3024 82.067 22.1062 82.067 21.9101C82.067 21.557 82.067 21.204 82.067 20.8509C82.067 20.4783 82.067 20.1154 82.067 19.7623ZM92.0495 26.9412C91.1146 26.9412 90.342 26.696 89.7322 26.2056C89.1224 25.7153 88.8175 25.0778 88.8175 24.2932C88.8175 23.646 89.0108 23.1556 89.3968 22.8222C89.7834 22.4691 90.2914 22.2926 90.9213 22.2926C91.572 22.2926 92.0293 22.4593 92.2934 22.7927C92.5782 23.1262 92.7202 23.489 92.7202 23.8813C92.7202 24.1363 92.6897 24.3325 92.6288 24.4698C92.5678 24.5875 92.4971 24.6953 92.4153 24.7934C92.4763 24.8522 92.5782 24.8817 92.7202 24.8817C93.2691 24.8817 93.7471 24.4403 94.1533 23.5577C94.56 22.6751 94.8954 21.4099 95.1594 19.7623C95.4241 18.1147 95.6272 16.1337 95.7692 13.8192L92.8727 14.0546V11.8186H107.843V13.731C107.274 13.731 106.858 13.8388 106.593 14.0546C106.349 14.2704 106.187 14.5743 106.105 14.9667C106.044 15.359 106.014 15.8199 106.014 16.3495V21.7924C106.014 22.067 106.004 22.4593 105.983 22.9693C105.963 23.4596 105.933 23.9304 105.892 24.3815L107.874 24.2932V26.5293H99.8549V24.6169C100.424 24.6169 100.831 24.509 101.075 24.2932C101.339 24.0775 101.501 23.7735 101.562 23.3812C101.644 22.9693 101.684 22.5084 101.684 21.9984V16.5554C101.684 16.2808 101.695 15.918 101.715 15.4668C101.736 14.9961 101.766 14.5548 101.806 14.1429H99.5195C99.0317 14.1429 98.6865 14.2213 98.4829 14.3782C98.2798 14.5352 98.1578 14.8588 98.117 15.3491C97.995 17.3105 97.7718 19.017 97.4462 20.4685C97.1413 21.9199 96.7352 23.1262 96.2266 24.0873C95.7388 25.0484 95.1393 25.7643 94.4277 26.2351C93.7368 26.7058 92.944 26.9412 92.0495 26.9412Z" fill="#2F70D9"/>
<path d="M33.8833 0.132167V1.96526H30.4412V8.53336H28.0771V0.132167H33.8833ZM43.2744 4.32127C43.2744 4.96872 43.1931 5.55867 43.0303 6.09114C42.8715 6.61979 42.6214 7.0757 42.28 7.45877C41.9385 7.84189 41.4998 8.13687 40.9639 8.34371C40.4279 8.54677 39.7867 8.64828 39.0404 8.64828C38.3099 8.64828 37.6767 8.54677 37.1407 8.34371C36.6088 8.13687 36.1701 7.84378 35.8246 7.46453C35.4792 7.08147 35.2232 6.62367 35.0564 6.09114C34.8897 5.55867 34.8063 4.96483 34.8063 4.3098C34.8063 3.43633 34.9552 2.67779 35.2529 2.03421C35.5547 1.38679 36.0192 0.886855 36.6464 0.53441C37.2737 0.178135 38.0757 0 39.0523 0C40.0448 0 40.8507 0.178135 41.4701 0.53441C42.0934 0.890686 42.5499 1.39253 42.8398 2.03996C43.1295 2.68738 43.2744 3.44781 43.2744 4.32127ZM37.2836 4.32127C37.2836 4.82696 37.3432 5.26175 37.4623 5.6257C37.5814 5.98964 37.77 6.26926 38.028 6.46468C38.2861 6.66004 38.6235 6.75772 39.0404 6.75772C39.4731 6.75772 39.8165 6.66004 40.0706 6.46468C40.3287 6.26926 40.5132 5.98964 40.6244 5.6257C40.7395 5.26175 40.7971 4.82696 40.7971 4.32127C40.7971 3.56273 40.6661 2.96324 40.4041 2.52268C40.1421 2.08212 39.6915 1.86182 39.0523 1.86182C38.6275 1.86182 38.2841 1.96143 38.0221 2.16062C37.764 2.35986 37.5754 2.64331 37.4563 3.01108C37.3412 3.37884 37.2836 3.81557 37.2836 4.32127ZM48.7234 1.87331C48.4455 1.87331 48.1973 1.93078 47.979 2.04571C47.7606 2.1568 47.574 2.31961 47.4192 2.53415C47.2644 2.7487 47.1453 3.01108 47.0619 3.32141C46.9825 3.62787 46.9428 3.97651 46.9428 4.36723C46.9428 4.89593 47.0123 5.34031 47.1512 5.70037C47.2901 6.06049 47.5006 6.33252 47.7824 6.5164C48.0683 6.70028 48.4256 6.7922 48.8543 6.7922C49.2435 6.7922 49.6166 6.74047 49.9739 6.63703C50.3352 6.53364 50.6984 6.40913 51.0637 6.26355V8.18283C50.6786 8.34753 50.2836 8.46633 49.8786 8.53912C49.4777 8.61191 49.0509 8.64828 48.5983 8.64828C47.6534 8.64828 46.8793 8.46822 46.2758 8.1081C45.6763 7.74421 45.2337 7.2404 44.9478 6.59684C44.6659 5.95322 44.525 5.20621 44.525 4.35575C44.525 3.71984 44.6164 3.13753 44.7989 2.60883C44.9855 2.08018 45.2575 1.62239 45.6148 1.23547C45.9721 0.844712 46.4128 0.54399 46.9368 0.333285C47.4649 0.118756 48.0683 0.0114919 48.7472 0.0114919C49.168 0.0114919 49.6107 0.0593783 50.0752 0.155151C50.5436 0.247093 51.0002 0.3965 51.4448 0.603368L50.7242 2.39046C50.4067 2.24494 50.0851 2.12231 49.7595 2.02272C49.434 1.92312 49.0886 1.87331 48.7234 1.87331ZM56.6079 8.53336H54.2557V1.98824H52.1296V0.132167H58.7279V1.98824H56.6079V8.53336ZM59.9727 0.132167H62.1637V3.97651C62.1637 4.14886 62.1619 4.33086 62.1583 4.52239C62.154 4.7101 62.1479 4.89593 62.14 5.07981C62.132 5.2637 62.1223 5.43799 62.1107 5.60269C62.0985 5.76745 62.0845 5.91303 62.0686 6.03942H62.1162L65.7012 0.132167H68.399V8.53336H66.2012V4.89593C66.2012 4.73882 66.2037 4.5607 66.2073 4.36152C66.2153 4.16228 66.2232 3.95733 66.2311 3.74661C66.2433 3.53595 66.2549 3.33289 66.2671 3.13753C66.2829 2.94211 66.2988 2.77164 66.3147 2.62607H66.261L62.676 8.53336H59.9727V0.132167ZM77.7484 8.53336H75.3842V5.10853H72.6511V8.53336H70.2869V0.132167H72.6511V3.24668H75.3842V0.132167H77.7484V8.53336ZM79.6364 0.132167H81.828V3.97651C81.828 4.14886 81.8255 4.33086 81.8219 4.52239C81.8176 4.7101 81.8115 4.89593 81.8036 5.07981C81.7957 5.2637 81.7859 5.43799 81.7743 5.60269C81.7621 5.76745 81.7481 5.91303 81.7323 6.03942H81.7798L85.3648 0.132167H88.0626V8.53336H85.8655V4.89593C85.8655 4.73882 85.8673 4.5607 85.871 4.36152C85.8789 4.16228 85.8868 3.95733 85.8948 3.74661C85.9069 3.53595 85.9185 3.33289 85.9307 3.13753C85.9466 2.94211 85.9624 2.77164 85.9783 2.62607H85.9246L82.3396 8.53336H79.6364V0.132167ZM98.925 6.67151V11.148H96.6321V8.53336H89.9505V0.132167H92.3147V6.67151H94.7326V0.132167H97.0968V6.67151H98.925ZM105.428 8.53336L104.999 6.95884H102.17L101.729 8.53336H99.1451L101.986 0.0976849H105.124L108 8.53336H105.428ZM104.511 5.09705L104.136 3.71789C104.095 3.56849 104.038 3.35589 103.963 3.08004C103.888 2.80042 103.812 2.51309 103.736 2.21811C103.665 1.91929 103.609 1.67411 103.57 1.48256C103.534 1.67411 103.483 1.91162 103.415 2.1951C103.352 2.47478 103.284 2.75252 103.212 3.02832C103.145 3.30417 103.086 3.53401 103.034 3.71789L102.659 5.09705H104.511Z" fill="#686868"/>
</svg>
