<svg width="20" height="20" viewBox="0 0 20 20" fill="none" xmlns="http://www.w3.org/2000/svg">
<path d="M0.833403 8.33236C0.612371 8.33236 0.400392 8.24456 0.244098 8.08826C0.0878048 7.93197 0 7.71999 0 7.49896V0.833403C0 0.612371 0.0878048 0.400391 0.244098 0.244098C0.400392 0.0878048 0.612371 0 0.833403 0H7.50063C7.72166 0 7.93364 0.0878048 8.08993 0.244098C8.24622 0.400391 8.33403 0.612371 8.33403 0.833403V7.49896C8.33403 7.71999 8.24622 7.93197 8.08993 8.08826C7.93364 8.24456 7.72166 8.33236 7.50063 8.33236H0.833403ZM12.501 8.33236C12.28 8.33236 12.068 8.24456 11.9117 8.08826C11.7554 7.93197 11.6676 7.71999 11.6676 7.49896V0.833403C11.6676 0.612371 11.7554 0.400391 11.9117 0.244098C12.068 0.0878048 12.28 0 12.501 0H19.1666C19.3876 0 19.5996 0.0878048 19.7559 0.244098C19.9122 0.400391 20 0.612371 20 0.833403V7.49896C20 7.71999 19.9122 7.93197 19.7559 8.08826C19.5996 8.24456 19.3876 8.33236 19.1666 8.33236H12.501ZM0.833403 20C0.612371 20 0.400392 19.9122 0.244098 19.7559C0.0878048 19.5996 0 19.3876 0 19.1666V12.4994C0 12.2783 0.0878048 12.0664 0.244098 11.9101C0.400392 11.7538 0.612371 11.666 0.833403 11.666H7.50063C7.72166 11.666 7.93364 11.7538 8.08993 11.9101C8.24622 12.0664 8.33403 12.2783 8.33403 12.4994V19.1666C8.33403 19.3876 8.24622 19.5996 8.08993 19.7559C7.93364 19.9122 7.72166 20 7.50063 20H0.833403ZM12.501 20C12.28 20 12.068 19.9122 11.9117 19.7559C11.7554 19.5996 11.6676 19.3876 11.6676 19.1666V12.4994C11.6676 12.2783 11.7554 12.0664 11.9117 11.9101C12.068 11.7538 12.28 11.666 12.501 11.666H19.1666C19.3876 11.666 19.5996 11.7538 19.7559 11.9101C19.9122 12.0664 20 12.2783 20 12.4994V19.1666C20 19.3876 19.9122 19.5996 19.7559 19.7559C19.5996 19.9122 19.3876 20 19.1666 20H12.501Z" fill="#2F70D9"/>
</svg>
