<svg width="285" height="414" viewBox="0 0 285 414" fill="none" xmlns="http://www.w3.org/2000/svg">
<path d="M130.982 399.852C130.982 399.852 143.149 383.715 146.585 376.358L156.053 356.075L168.465 359.612L152.722 385.463L136.276 401.6L130.982 399.852Z" fill="#FFB27D"/>
<path d="M209.385 3.66589C212.261 1.79613 215.662 1.59292 218.081 1.75551C217.45 1.02386 216.258 0.739331 216.258 0.739331C217.731 0.495449 221.062 2.20261 221.062 2.20261C241.75 -7.02425 244.976 28.2573 244.555 36.468C244.134 44.6787 251.498 47.3614 262.262 53.8243C282.775 66.1403 284.598 82.643 284.598 82.643C284.423 82.765 284.283 82.8869 284.107 83.0088C283.091 81.0171 280.987 77.237 279.233 76.6679C279.304 76.8305 281.337 81.8301 282.074 84.716C276.008 90.0408 264.682 101.869 256.792 110.283C256.827 108.657 256.757 106.3 256.266 105.08L255.285 111.909C251.077 116.421 248.131 119.591 248.131 119.591C248.657 112.966 222.289 78.0093 208.509 67.5223C205.143 61.7911 203.986 51.7106 203.88 50.8977C204.441 58.9052 205.634 63.417 206.685 65.9371C195.009 53.4585 201.812 8.62483 209.385 3.66589Z" fill="#163560"/>
<path d="M209.315 67.9694C209.245 68.0101 215.942 72.0341 220.992 70.4489C225.725 68.945 228.846 61.7911 228.776 61.7911C226.777 61.3439 226.181 58.1328 226.216 44.3535L225.305 44.5568L210.017 48.0524C210.017 48.0524 210.367 53.621 210.367 58.8645C210.402 63.3357 210.157 67.5223 209.315 67.9694Z" fill="#FFB27D"/>
<path d="M226.602 9.43771C226.602 9.43771 219.063 0.129541 209.596 8.94994C209.561 8.94994 215.101 7.85248 226.602 9.43771Z" fill="#E37970"/>
<path d="M210.017 48.0929C210.017 48.0929 210.367 53.6616 210.367 58.905C218.923 58.6205 223.446 49.5969 225.305 44.5566L210.017 48.0929Z" fill="#D68D5D"/>
<path d="M226.918 42.6465C226.918 42.6465 231.406 34.4358 232.493 27.4039C233.264 22.4043 231.055 3.78796 214.961 6.47066C214.961 6.47066 210.297 6.99907 205.879 10.4541C202.373 13.1774 197.323 19.1119 202.969 35.33L204.441 40.8174L226.918 42.6465Z" fill="#163560"/>
<path d="M149.075 369.286L157.175 369.57L165.941 369.895C165.941 369.895 186.208 343.759 197.569 301.812C197.849 300.836 198.13 299.861 198.41 298.844C204.617 277.83 217.52 251.409 224.323 227.55C225.41 223.729 226.392 220.152 227.233 216.778C227.514 215.681 227.794 214.624 228.04 213.567C233.054 193.406 234.492 180.155 235.824 166.01L186.769 166.457C186.804 166.457 178.88 263.075 149.075 369.286Z" fill="#80BDCC"/>
<path d="M190.24 172.473C190.24 172.473 211.244 184.829 236.21 175.725C236.49 175.603 234.562 63.8234 227.479 60.7342C225.866 63.0917 221.027 65.4493 216.714 65.3273C211.735 65.2054 210.122 62.7259 210.402 60.0432C205.108 63.4576 200.865 66.7093 200.865 66.7093C196.377 75.7736 190.24 172.473 190.24 172.473Z" fill="#F1A34F"/>
<path d="M235.894 136.785C238.033 140.321 242.136 161.702 252.374 164.384C247.115 149.142 243.082 142.435 242.486 137.76C241.329 129.021 241.294 119.957 241.89 111.421C238.454 104.471 235.894 99.6742 235.894 99.6742C235.614 98.5361 230.459 80.0011 228.776 96.585C227.128 113.21 233.475 132.883 235.894 136.785Z" fill="#5F9AA8"/>
<path d="M207.176 53.052C207.176 53.052 227.408 53.4584 227.444 38.8255C227.444 24.1926 230.073 14.3967 217.17 13.5431C204.231 12.6895 201.741 18.2582 200.689 23.1358C199.638 28.0134 201.917 52.5642 207.176 53.052Z" fill="#FFB27D"/>
<path d="M207.913 13.1773C207.913 13.1773 213.453 30.3304 221.973 32.8505C230.494 35.3706 234.176 32.7285 234.176 32.7285C234.176 32.7285 227.654 26.7128 226.286 16.2258C226.286 16.2665 212.12 5.04792 207.913 13.1773Z" fill="#163560"/>
<path d="M209.315 14.6C209.315 14.6 205.178 18.4208 204.161 22.1603C203.144 25.8998 202.688 33.5415 200.76 33.2976C200.76 33.2976 196.587 21.6319 201.286 15.0471C206.265 8.01517 209.315 14.6 209.315 14.6Z" fill="#163560"/>
<path d="M125.722 77.3182C125.722 77.3182 122.882 65.4087 111.556 67.0752C110.259 67.5629 106.472 69.3108 108.891 73.9852C110.679 77.4402 111.451 75.6517 114.256 80.3261C117.061 85.0005 120.112 86.0573 123.618 85.4883L125.722 77.3182Z" fill="#FFB27D"/>
<path d="M222.324 397.454C223.026 393.064 224.323 385.463 224.323 385.463L224.007 358.514H238.138L232.844 384.325C232.738 385.504 232.458 390.178 233.93 395.096C233.93 395.096 235.298 402.25 229.197 402.372C223.131 402.494 221.658 401.844 222.324 397.454Z" fill="#FFB27D"/>
<path d="M221.763 405.868H234.421C235.052 402.047 233.965 395.096 233.965 395.096C227.093 402.819 222.78 394.893 222.78 394.893C221.728 397.942 221.763 404.73 221.763 405.868Z" fill="#C45446"/>
<path d="M125.056 405.949H140.659C142.027 404.486 143.324 401.6 144.902 397.86C145.814 395.706 147.883 394.487 149.986 393.836V405.949H153.212L156.193 393.064C158.191 388.715 156.649 384.813 155.246 381.398C153.633 381.398 148.935 382.699 140.659 393.796C137.924 397.454 134.944 398.755 131.928 398.633C131.893 398.673 131.858 398.673 131.788 398.714C127.125 401.153 125.582 404.201 125.056 405.949Z" fill="#C45446"/>
<path d="M125.722 77.3183C125.722 77.3183 139.011 85.9355 143.745 88.4149C146.445 89.8376 152.686 93.2113 157.069 95.6094C159.875 97.1134 163.171 96.3004 165.169 93.5771C172.358 83.8218 191.117 62.6854 210.367 60.084C210.367 60.084 198.656 93.6177 198.305 100.406C197.954 107.194 196.938 211.413 196.938 211.413C196.938 211.413 197.639 216.209 189.714 214.217C181.79 212.226 179.721 210.234 179.721 210.234C179.721 210.234 187.295 145.93 185.226 123.575C184.805 119.185 185.191 114.226 186.033 109.104C174.286 117.396 160.401 121.054 160.401 121.054C160.401 121.054 150.022 115.811 135.821 103.739C131.367 99.9587 123.548 85.529 123.548 85.529L125.722 77.3183Z" fill="#B64C41"/>
<path d="M157.21 369.57L165.976 369.895C165.976 369.895 186.243 343.759 197.604 301.812C197.884 300.836 198.165 299.861 198.445 298.844C204.652 277.83 217.555 251.409 224.358 227.55C225.445 223.729 226.427 220.152 227.268 216.778C227.549 215.681 227.829 214.624 228.075 213.567L220.851 207.226C220.851 207.226 199.147 247.954 192.449 286.284C186.629 319.574 163.241 359.612 157.21 369.57Z" fill="#5F9AA8"/>
<path d="M220.115 289.861C219.975 308.518 220.816 351.36 222.885 369.082H230.669C234.947 369.082 237.121 369.001 237.121 369.001C242.381 338.15 246.098 312.624 248.833 290.634C251.077 272.587 253.041 257.1 254.583 243.808C256.126 230.395 257.178 219.176 257.564 209.706C257.634 208.202 257.669 206.779 257.704 205.356C257.739 203.934 257.739 202.552 257.739 201.21L215.346 196.414C215.802 229.054 220.185 279.009 220.115 289.861Z" fill="#80BDCC"/>
<path d="M230.669 369.082C234.947 369.082 237.121 369.001 237.121 369.001C242.381 338.15 246.098 312.624 248.833 290.634C251.077 272.586 253.041 257.1 254.583 243.808C256.126 230.395 257.178 219.176 257.564 209.706L241.995 220.314C241.995 220.314 251.918 224.379 248.132 255.108C244.345 285.837 235.929 364.733 230.669 369.082Z" fill="#5F9AA8"/>
<path d="M228.671 209.38C228.671 209.38 231.651 221.9 241.995 220.274C252.339 218.689 267.031 211.494 267.031 211.494C267.031 211.494 262.613 195.317 257.143 174.058C257.073 173.855 257.038 173.611 256.967 173.367C250.481 148.288 242.556 116.339 238.629 95.5689C238.559 95.1217 238.454 94.6746 238.383 94.2681C237.296 88.415 236.56 83.4967 236.28 80.0011L227.549 60.7344C227.549 60.7344 214.925 93.9836 214.224 102.357C213.488 110.771 228.671 209.38 228.671 209.38Z" fill="#B64C41"/>
<path d="M238.98 101.137L227.514 60.7749C227.549 60.7749 241.96 65.6932 249.148 69.8798C249.148 69.8798 253.636 76.5866 256.407 92.0324C256.407 92.0324 259.352 129.143 252.795 142.719C252.795 142.719 232.142 147.516 199.076 134.346V125.566C199.076 125.566 235.228 127.761 242.661 128.777L238.98 101.137Z" fill="#FFB27D"/>
<path d="M230.108 119.957C230.564 133.37 233.264 159.181 256.933 173.408C250.446 148.329 242.521 116.38 238.594 95.6094C234.281 103.251 229.863 112.884 230.108 119.957Z" fill="#A53D38"/>
<path d="M227.513 60.7749C227.513 60.7749 248.657 62.4821 253.707 75.5298C258.756 88.5775 260.369 131.948 253.952 144.752C253.952 144.752 245.116 147.678 229.442 144.264C229.267 144.223 229.056 144.183 228.846 144.142C228.846 144.142 223.867 129.956 228.32 127.192C228.32 127.192 241.539 128.005 240.137 122.924C238.769 117.843 227.513 60.7749 227.513 60.7749Z" fill="#B64C41"/>
<path d="M202.758 127.883C202.758 127.883 199.883 123.818 199.252 119.713C198.621 115.567 196.727 112.519 191.748 111.746C186.769 110.974 184.63 110.893 184.665 112.519C184.665 114.145 188.732 125.485 195.85 132.273C203.004 139.061 202.758 127.883 202.758 127.883Z" fill="#FFB27D"/>
<path d="M117.934 333.168C117.934 333.168 105.311 318.169 117.135 308.617C117.135 308.617 125.803 303.292 132.874 303.699C132.874 303.699 122.847 320.771 126.083 322.478C129.318 324.185 135.869 302.642 135.869 302.642C135.869 302.642 155.602 300.691 161.914 303.78C161.914 303.78 145.057 317.803 148.612 318.657C152.167 319.511 170.382 305.731 170.382 305.731C170.382 305.731 188.717 308.902 187.758 320.283C186.8 331.664 180.448 335.2 177.692 334.875C174.896 334.59 158.678 328.25 158.319 330.566C157.959 332.883 167.746 340.444 174.616 340.81C174.616 340.81 161.674 355.32 153.086 351.134C144.498 346.947 143.739 340.322 138.386 337.802C133.033 335.322 128.44 335.322 130.677 337.842C132.914 340.362 142.58 342.842 145.656 348.37C148.732 353.898 151.488 357.597 142.58 356.255C133.672 354.873 119.212 348.289 118.573 340.688C117.934 333.168 117.934 333.168 117.934 333.168Z" fill="#82B378"/>
<path d="M178.771 320.608C178.771 320.608 128.919 318.657 117.934 333.168C117.934 333.168 115.497 340.566 108.028 347.354L106.869 350.605C106.869 350.605 115.497 341.338 118.613 340.769C118.573 340.769 113.74 322.762 178.771 320.608Z" fill="#82B378"/>
<path d="M107.988 347.354C107.988 347.354 97.2824 355.402 96.5634 369.791L98.5206 369.953C98.5206 369.953 101.956 355.076 108.107 349.264C114.259 343.451 107.988 347.354 107.988 347.354Z" fill="#82B378"/>
<path d="M73.7545 314.308C73.7545 314.308 93.847 302.845 84.4599 287.318C84.4599 287.318 76.9502 277.766 68.9212 275.327C68.9212 275.327 73.1954 298.496 68.9212 299.065C64.6471 299.594 65.9652 272.888 65.9652 272.888C65.9652 272.888 44.7943 262.523 36.4856 263.336C36.4856 263.336 49.6277 285.977 45.3136 285.448C41.0394 284.92 26.2996 261.995 26.2996 261.995C26.2996 261.995 4.56949 257.89 1.09425 270.978C-2.38098 284.066 3.25125 290.611 6.44687 291.424C9.68243 292.236 30.2942 291.952 29.7749 294.716C29.2556 297.439 15.3147 301.789 7.52537 299.35C7.52537 299.35 16.1137 320.893 27.3782 319.795C38.6428 318.698 42.118 311.625 49.1084 311.056C56.0588 310.528 61.1718 312.438 57.6966 314.348C54.2214 316.259 42.3976 314.958 36.8052 319.836C31.173 324.713 26.6192 327.721 37.0848 329.876C47.5505 332.071 66.3247 330.689 70.0396 322.518C73.7545 314.308 73.7545 314.308 73.7545 314.308Z" fill="#A8D29F"/>
<path d="M11.0007 275.002C11.0007 275.002 67.2835 293.537 73.7147 314.267C73.7147 314.267 73.4351 323.534 79.0673 334.184V338.289C79.0673 338.289 73.1554 324.388 69.9598 322.478C69.9997 322.478 82.5825 304.471 11.0007 275.002Z" fill="#82B378"/>
<path d="M79.1073 334.225C79.1073 334.225 87.7753 347.638 82.8221 363.978L80.5852 363.369C80.5852 363.369 82.7422 345.362 78.2284 336.338C73.7146 327.315 79.1073 334.225 79.1073 334.225Z" fill="#82B378"/>
<path d="M105.711 298.496C105.711 298.496 79.2271 283.375 91.5702 262.889C91.5702 262.889 101.477 250.289 112.062 247.077C112.062 247.077 106.39 277.644 112.062 278.376C117.734 279.107 115.937 243.866 115.937 243.866C115.937 243.866 143.858 230.209 154.803 231.266C154.803 231.266 137.507 261.101 143.139 260.41C148.772 259.719 168.225 229.477 168.225 229.477C168.225 229.477 196.866 224.071 201.459 241.346C206.053 258.621 198.623 267.238 194.389 268.295C190.155 269.393 162.952 269.027 163.631 272.604C164.35 276.181 182.725 281.953 192.951 278.701C192.951 278.701 181.647 307.113 166.787 305.65C151.927 304.227 147.334 294.878 138.146 294.147C128.959 293.415 122.248 295.935 126.842 298.455C131.436 300.975 146.974 299.268 154.404 305.69C161.834 312.113 167.826 316.055 154.044 318.941C140.263 321.827 115.537 320.039 110.584 309.227C105.711 298.496 105.711 298.496 105.711 298.496Z" fill="#A8D29F"/>
<path d="M188.397 246.712C188.397 246.712 114.179 271.181 105.711 298.496C105.711 298.496 106.07 310.731 98.6404 324.754V330.16C98.6404 330.16 106.43 311.828 110.664 309.308C110.664 309.268 94.0467 285.53 188.397 246.712Z" fill="#82B378"/>
<path d="M98.6404 324.754C98.6404 324.754 87.2161 342.435 93.7271 363.978L96.6831 363.165C96.6831 363.165 93.807 339.468 99.7988 327.518C105.791 315.608 98.6404 324.754 98.6404 324.754Z" fill="#82B378"/>
<path d="M104.832 410.641C133.513 410.641 156.761 386.985 156.761 357.8H52.9032C52.9032 386.985 76.1513 410.641 104.832 410.641Z" fill="#F1A34F"/>
<path d="M117.615 410.235C115.497 410.519 113.34 410.641 111.183 410.641C82.5026 410.641 59.2545 386.985 59.2545 357.8H72.1568C72.1568 384.749 91.9697 406.983 117.615 410.235Z" fill="#FFB973"/>
<path d="M157.48 413.324H52.2242C52.2242 409.706 55.1003 406.82 58.6155 406.82H151.089C154.604 406.82 157.48 409.706 157.48 413.324Z" fill="#F1A34F"/>
<path d="M157.959 357.8H51.2256V359.426H157.959V357.8Z" fill="#D86713"/>
</svg>
