<svg width="285" height="410" viewBox="0 0 285 410" fill="none" xmlns="http://www.w3.org/2000/svg">
<path d="M23.4731 378.548C23.4731 383.167 19.7911 386.877 15.2799 386.877C10.7686 386.877 7.08662 383.134 7.08662 378.548C7.08662 373.962 10.7686 370.219 15.2799 370.219C19.7911 370.219 23.4731 373.962 23.4731 378.548Z" fill="#D86713"/>
<path d="M26.6907 378.548C26.6907 383.167 23.0087 386.877 18.4975 386.877C13.953 386.877 10.3042 383.134 10.3042 378.548C10.3042 373.962 13.9862 370.219 18.4975 370.219C23.0087 370.219 26.6907 373.962 26.6907 378.548Z" fill="#F1A34F"/>
<path d="M69.9458 409.131C74.4708 409.131 78.139 405.402 78.139 400.802C78.139 396.203 74.4708 392.474 69.9458 392.474C65.4208 392.474 61.7525 396.203 61.7525 400.802C61.7525 405.402 65.4208 409.131 69.9458 409.131Z" fill="#D86713"/>
<path d="M73.1633 409.131C77.6883 409.131 81.3566 405.402 81.3566 400.803C81.3566 396.203 77.6883 392.474 73.1633 392.474C68.6383 392.474 64.9701 396.203 64.9701 400.803C64.9701 405.402 68.6383 409.131 73.1633 409.131Z" fill="#F1A34F"/>
<path d="M8.81151 369.511L17.9004 378.11C18.8292 378.986 19.8906 379.661 21.0516 380.167L82.1858 406.029L93.5635 397.734L8.81151 369.511Z" fill="#D86713"/>
<path d="M137.548 276.313L134.629 274.256C148.03 254.531 173.937 215.687 176.093 209.786C177.453 206.077 177.453 202.975 176.126 200.581C174.003 196.737 169.028 195.692 168.995 195.692L168.795 195.658L155.229 191.41C139.671 185.104 133.037 197.513 132.739 198.052L132.639 198.221L96.3499 253.924L93.3977 251.935L129.654 196.265C129.985 195.624 132.042 192.084 136.056 189.319C140.069 186.588 146.836 184.126 156.456 188.004L169.757 192.185C170.653 192.387 176.425 193.804 179.178 198.794C181.069 202.166 181.135 206.28 179.41 211.034C176.591 218.823 139.141 273.987 137.548 276.313Z" fill="#D86713"/>
<path d="M133.468 262.32L163.521 283.293C163.521 283.293 171.449 291.419 162.36 307.671C154.366 321.968 111.575 403.028 111.575 403.028C111.575 403.028 102.652 419.887 67.9555 398.779L133.468 262.32Z" fill="#D86713"/>
<path d="M141.894 293.408L93.3313 383.909C91.3743 387.585 88.5547 390.484 85.2708 392.541C79.2005 396.351 71.4716 397.161 64.4393 394.16L33.8888 381.111L33.1259 380.773L13.9862 372.58C12.0623 371.771 10.3042 370.691 8.74517 369.478C8.38028 369.174 8.01542 368.904 7.68371 368.567C2.01146 363.476 -0.774942 355.788 0.187018 348.235C0.585071 345.032 1.67972 341.828 3.47096 338.895L55.3173 254.632C60.8568 245.663 71.6707 241.616 81.5888 244.853L87.1947 246.674L88.5215 247.113L89.6493 247.484L108.391 253.553L110.68 254.295L128.758 260.162C131.578 261.072 134.099 262.488 136.255 264.275C136.387 264.377 136.52 264.511 136.686 264.646L137.548 265.422C144.813 272.435 147.068 283.832 141.894 293.408Z" fill="#F1A34F"/>
<path opacity="0.4" d="M85.304 392.575C79.2337 396.385 71.5048 397.194 64.4725 394.193L33.922 381.144L33.1591 380.807L14.0194 372.613C12.0955 371.804 10.3374 370.725 8.77835 369.511C8.41347 369.208 8.0486 368.938 7.71689 368.601C2.04464 363.509 -2.1349 352.045 1.38123 343.379C1.38123 343.379 66.1975 370.557 78.7693 378.548C85.304 382.662 85.304 388.529 85.304 392.575Z" fill="#D86713"/>
<path d="M89.7157 247.517C89.5499 247.551 71.737 250.147 66.6287 257.026C61.3876 264.107 9.83984 350.696 9.34228 351.539C9.30911 351.607 5.1959 360.374 9.67399 370.152L8.81151 369.511C8.44663 369.208 8.08176 368.938 7.75005 368.601C3.83587 358.755 8.08175 351.202 8.28078 350.899C10.4037 347.324 60.3925 263.399 65.6667 256.25C70.2775 250.012 83.181 247.382 87.2942 246.708L88.6211 247.146L89.7157 247.517Z" fill="#D86713"/>
<path d="M110.746 254.328C108.126 254.834 97.8426 257.464 91.5401 267.816C84.143 279.954 36.8411 370.961 36.3767 371.871L36.3435 371.939L36.3103 372.006C36.2771 372.04 33.0596 376.66 34.7181 381.481L33.9552 381.144L33.1922 380.807C31.7659 375.817 34.8508 371.77 35.3152 371.197C36.7747 368.398 83.1478 279.179 90.4786 267.141C95.9187 258.24 104.178 254.8 108.457 253.586L110.746 254.328Z" fill="#D86713"/>
<path d="M137.615 265.489C137.548 265.489 133.9 265.894 130.151 267.715C126.403 269.536 121.759 272.84 118.143 278.775C110.746 290.913 65.1691 382.257 64.7047 383.168L64.6716 383.235L64.6052 383.302C64.572 383.336 61.8852 388.967 63.5437 393.789L61.6198 392.98C60.5583 388.799 63.1125 383.134 63.6101 382.527C65.0696 379.593 109.718 290.138 117.082 278.1C123.981 266.771 134.231 264.68 136.354 264.343C136.487 264.444 136.62 264.579 136.785 264.714L137.615 265.489Z" fill="#D86713"/>
<path d="M137.899 378.009C137.899 378.009 131.364 384.145 132.657 388.529C133.918 392.879 139.822 395.812 140.619 401.14C141.415 406.467 144.599 409.367 147.452 409.367C150.304 409.367 161.085 409.367 161.085 409.367C161.085 409.367 163.208 405.624 158.1 404.478C153.024 403.331 151.101 397.093 151.399 391.26C151.731 385.427 150.935 377.672 150.935 377.672L140.121 375.075L137.899 378.009Z" fill="#233862"/>
<path d="M256.087 409.367H219.864C219.566 409.3 219.3 409.232 219.168 409.165C216.746 407.951 217.509 398.543 217.808 395.644C217.874 395.104 217.907 394.801 217.907 394.801C217.907 394.801 230.645 384.449 232.37 392.373C232.436 392.609 232.502 392.879 232.569 393.115C234.758 400.533 244.643 403.905 250.348 404.815C254.661 405.489 255.788 408.086 256.087 409.367Z" fill="#233862"/>
<path d="M248.789 197.344C248.789 197.344 246.865 221.858 244.577 251.294C241.492 291.284 237.777 340.446 237.412 349.752C236.781 365.904 234.227 391.766 234.227 391.766C234.227 391.766 228.19 397.903 216.116 395.306C216.116 395.306 205.335 358.384 202.283 319.338C202.25 318.697 202.184 318.057 202.151 317.416C199.298 277.662 194.853 193.938 194.853 193.938L248.789 197.344Z" fill="#2B478B"/>
<path d="M248.789 197.344C248.789 197.344 246.865 221.858 244.577 251.294L202.283 319.338C202.25 318.697 202.184 318.057 202.151 317.416C199.298 277.662 194.853 193.938 194.853 193.938L248.789 197.344Z" fill="#233862"/>
<path d="M239.966 200.244C239.966 200.244 205.136 288.958 182.248 330.668C159.36 372.378 152.195 384.011 152.195 384.011C152.195 384.011 139.093 378.683 137.898 375.041C137.898 375.041 146.656 294.555 161.981 274.931C170.638 263.837 180.822 230.557 181.286 218.924C181.751 207.291 184.371 184.261 184.371 184.261L239.966 200.244Z" fill="#2B478B"/>
<path d="M275.193 175.764L277.184 179.81C277.184 179.81 287.301 181.26 284.515 191.983C284.515 191.983 283.022 196.4 280.235 194.984C277.449 193.601 278.809 193.703 274.828 191.814C270.815 189.926 268.526 186.318 269.422 183.014L268.791 179.507L275.193 175.764Z" fill="#FFB27D"/>
<path d="M222.12 63.3125C223.679 54.0061 223.712 48.51 223.712 48.51L206.032 34.0447C206.695 53.9387 194.157 63.5148 194.157 63.5148C194.157 63.5148 217.708 75.2826 231.308 70.9329C231.308 70.8992 227.958 66.5495 222.12 63.3125Z" fill="#FFB27D"/>
<path d="M227.891 48.173C227.891 48.173 205.402 51.9832 203.312 37.7202C201.189 23.4572 196.877 14.3532 211.14 11.3185C225.404 8.2838 228.986 13.3079 230.844 17.8936C232.668 22.4456 233.663 46.8242 227.891 48.173Z" fill="#FFB27D"/>
<path d="M203.444 38.6978C203.444 38.6978 203.909 19.5793 224.375 16.5109C238.407 14.4204 229.915 2.48395 228.29 0.595703C228.29 0.595703 217.575 2.68625 206.596 5.11399C183.575 10.2729 201.023 35.8317 203.444 38.6978Z" fill="#233862"/>
<path d="M272.838 181.362C275.857 178.226 278.079 174.146 278.079 174.146C278.079 174.146 252.538 141.911 250.481 138.539C248.391 135.201 232.9 81.5544 232.9 81.5544L193.692 73.4956C193.692 73.4956 226.432 142.147 231.839 150.509C240.795 164.334 267.597 184.936 267.597 184.936C267.597 184.936 270.483 183.823 272.838 181.362Z" fill="#4A75CB"/>
<path d="M250.315 199.367C249.917 199.704 249.419 199.907 248.889 199.907C243.78 199.839 228.887 202.705 216.282 201.39C205.667 200.345 196.246 197.142 186.129 192.556C184.802 191.949 181.684 190.263 181.784 188.746C181.817 187.094 181.983 184.666 182.182 181.598C182.912 171.01 184.139 152.768 182.912 131.728C182.679 127.816 182.58 123.939 182.58 120.095C182.48 91.6025 187.954 66.3809 199.099 57.8838C200.061 57.1757 205.999 60.2441 211.405 62.9416C216.381 65.4368 219.864 65.3694 224.541 64.4252L230.744 68.9772C236.483 74.3722 242.752 81.7229 245.472 92.8838C247.794 102.359 249.154 119.488 249.917 137.224C250.249 145.249 250.547 153.375 250.614 161.063V161.333C250.68 162.108 250.68 162.917 250.68 163.693C250.912 183.452 250.647 199.098 250.315 199.367Z" fill="#739AF0"/>
<path d="M182.182 181.631C182.912 171.043 184.139 152.802 182.912 131.761C182.679 127.85 182.58 123.972 182.58 120.128C187.224 108.664 191.038 100.335 191.038 100.335H202.781C202.748 100.369 211.372 160.085 182.182 181.631Z" fill="#4A75CB"/>
<path d="M159.36 185.374L157.138 189.285C157.138 189.285 161.516 198.693 151.134 202.2C151.134 202.2 146.689 203.346 146.291 200.21C145.926 197.074 146.556 198.322 145.926 193.871C145.296 189.454 146.987 185.509 150.205 184.43L152.726 181.969L159.36 185.374Z" fill="#FFB27D"/>
<path d="M153.456 186.419C157.668 187.262 162.246 186.925 162.246 186.925C162.246 186.925 174.785 147.542 176.41 143.934C178.035 140.326 213.661 97.7393 213.661 97.7393L198.8 59.9744C198.8 59.9744 160.256 125.422 156.342 134.627C149.873 149.835 147.618 183.89 147.618 183.89C147.618 183.89 150.139 185.779 153.456 186.419Z" fill="#739AF0"/>
</svg>
