<svg width="40" height="40" viewBox="0 0 40 40" fill="none" xmlns="http://www.w3.org/2000/svg">
<rect width="40" height="40" rx="10" fill="#C652EE"/>
<path d="M19.4736 10.0029C17.7825 10.0223 14.1469 10.2861 12.1134 12.0569C10.6008 13.4796 10.0726 15.583 10.0107 18.1839C9.95936 20.7755 9.89746 25.6423 14.8396 26.9675V28.9859C14.8396 28.9859 14.8087 29.7935 15.3711 29.9591C16.0638 30.1673 16.4583 29.5459 17.1168 28.8784L18.3449 27.5601C21.7264 27.827 24.3163 27.2119 24.6147 27.1206C25.3008 26.9125 29.1657 26.4437 29.7972 21.5762C30.4452 16.5493 29.4818 13.3821 27.7426 11.9494H27.7321C27.2072 11.4906 25.098 10.0317 20.3857 10.0154C20.3857 10.0154 20.036 9.99291 19.4736 10.0023V10.0029ZM19.5316 11.4162C20.0116 11.4131 20.3033 11.4325 20.3033 11.4325C24.292 11.4425 26.1958 12.582 26.6449 12.9658C28.1094 14.1572 28.8641 17.0125 28.3116 21.2093C27.7867 25.2785 24.6522 25.5361 24.072 25.7117C23.8251 25.7867 21.544 26.3205 18.6702 26.1449C18.6702 26.1449 16.53 28.5965 15.861 29.2278C15.755 29.3384 15.6312 29.3709 15.5521 29.3547C15.4389 29.3284 15.4046 29.1953 15.4112 29.0128L15.4316 25.663C11.2402 24.5628 11.4871 20.4117 11.5319 18.2433C11.5833 16.0749 12.012 14.3009 13.2882 13.0995C15.0062 11.625 18.0934 11.4262 19.5302 11.4162H19.5316ZM19.8477 13.584C19.8132 13.5836 19.7789 13.5898 19.747 13.6021C19.715 13.6144 19.6859 13.6325 19.6613 13.6556C19.6368 13.6786 19.6173 13.706 19.6039 13.7362C19.5906 13.7664 19.5837 13.7988 19.5836 13.8315C19.5836 13.9715 19.7034 14.0822 19.8477 14.0822C20.5006 14.0704 21.1495 14.1814 21.757 14.4088C22.3645 14.6363 22.9185 14.9756 23.3872 15.4073C24.344 16.2893 24.8102 17.4745 24.828 19.024C24.828 19.1609 24.9446 19.2747 25.0921 19.2747V19.2647C25.1616 19.2648 25.2284 19.2389 25.2778 19.1926C25.3273 19.1462 25.3555 19.0831 25.3561 19.0171C25.3881 18.2878 25.2635 17.5598 24.9899 16.8776C24.7163 16.1954 24.2994 15.5731 23.7645 15.0485C22.7221 14.0815 21.4011 13.5834 19.8477 13.5834V13.584ZM16.3766 14.1572C16.1902 14.1313 16.0001 14.1668 15.8379 14.2578H15.8241C15.4476 14.4673 15.1084 14.7321 14.8192 15.0423C14.5789 15.3061 14.4485 15.573 14.4142 15.8299C14.3938 15.983 14.4076 16.1362 14.4557 16.2824L14.4728 16.2924C14.7435 17.0475 15.0971 17.7739 15.5291 18.4577C16.0856 19.4184 16.7704 20.3069 17.5666 21.1012L17.5903 21.1337L17.6278 21.1599L17.6515 21.1862L17.6792 21.2087C18.5189 21.9666 19.4572 22.6197 20.4713 23.152C21.6303 23.7509 22.3336 24.034 22.7557 24.1515V24.1578C22.8795 24.1934 22.9921 24.2097 23.1053 24.2097C23.4651 24.1846 23.8056 24.046 24.0727 23.8159C24.398 23.5413 24.6739 23.218 24.8893 22.8589V22.8526C25.0914 22.4913 25.0229 22.1494 24.7312 21.9181C24.147 21.4334 23.5152 21.0028 22.8446 20.6323C22.3955 20.4011 21.9391 20.5411 21.7541 20.7755L21.3596 21.2474C21.1574 21.4818 20.79 21.4493 20.79 21.4493L20.7795 21.4556C18.0394 20.7911 17.3084 18.1577 17.3084 18.1577C17.3084 18.1577 17.2742 17.7995 17.5277 17.617L18.0216 17.2394C18.258 17.0569 18.4226 16.6244 18.1691 16.1974C17.7815 15.5599 17.3289 14.9601 16.8178 14.4066C16.7061 14.2761 16.5493 14.1873 16.3753 14.1559L16.3766 14.1572ZM20.3033 14.8998C19.9537 14.8998 19.9537 15.4011 20.3066 15.4011C20.7414 15.4078 21.1706 15.4957 21.5696 15.6599C21.9685 15.8241 22.3295 16.0614 22.6319 16.3581C22.9077 16.6469 23.1196 16.9853 23.2551 17.3532C23.3906 17.7212 23.447 18.1112 23.4208 18.5002C23.422 18.566 23.4503 18.6288 23.4996 18.6751C23.549 18.7213 23.6155 18.7474 23.6848 18.7477L23.6954 18.7609C23.7652 18.7604 23.8321 18.7338 23.8815 18.6869C23.9309 18.64 23.9589 18.5765 23.9594 18.5102C23.9831 17.517 23.6578 16.6837 23.0197 16.0162C22.3783 15.3486 21.4834 14.9741 20.3409 14.8998H20.3033ZM20.736 16.2474C20.3758 16.2374 20.362 16.7487 20.7189 16.7587C21.5868 16.8012 22.0082 17.2176 22.0636 18.0739C22.0648 18.1389 22.0927 18.2009 22.1415 18.2466C22.1902 18.2922 22.2558 18.318 22.3243 18.3183H22.3349C22.3701 18.3169 22.4046 18.3088 22.4365 18.2946C22.4684 18.2803 22.497 18.2602 22.5206 18.2353C22.5442 18.2105 22.5624 18.1814 22.574 18.1498C22.5856 18.1183 22.5905 18.0848 22.5884 18.0514C22.5265 16.935 21.8851 16.3062 20.7465 16.2481H20.736V16.2474Z" fill="white"/>
</svg>
