<svg width="62" height="6" viewBox="0 0 62 6" fill="none" xmlns="http://www.w3.org/2000/svg">
<path d="M1 4.33333L3.67891 2.53987C5.0628 1.61339 6.87593 1.64129 8.23066 2.60992L9.24693 3.33656C10.6384 4.33145 12.5085 4.33145 13.8999 3.33656L14.8413 2.66344C16.2328 1.66855 18.1029 1.66855 19.4943 2.66344L20.4357 3.33656C21.8272 4.33145 23.6973 4.33145 25.0887 3.33656L26.0302 2.66344C27.4216 1.66855 29.2917 1.66855 30.6831 2.66344L31.6246 3.33656C33.016 4.33145 34.8861 4.33145 36.2775 3.33656L37.219 2.66344C38.6104 1.66855 40.4805 1.66855 41.8719 2.66344L42.8134 3.33656C44.2048 4.33144 46.0749 4.33145 47.4664 3.33656L48.4078 2.66344C49.7992 1.66855 51.6693 1.66855 53.0608 2.66344L54.0045 3.33822C55.3948 4.3323 57.2632 4.33318 58.6544 3.34042L61 1.66667" stroke="#686868" stroke-width="2" stroke-linecap="round"/>
</svg>
