<svg width="101" height="9" viewBox="0 0 101 9" fill="none" xmlns="http://www.w3.org/2000/svg">
<path d="M2 7.5L7.28063 2.60503C8.85183 1.14858 11.2916 1.18867 12.8141 2.69595L16.3676 6.21396C17.9264 7.75716 20.4372 7.75716 21.996 6.21396L25.4585 2.78604C27.0173 1.24284 29.5281 1.24284 31.0869 2.78604L34.5495 6.21396C36.1082 7.75716 38.619 7.75716 40.1778 6.21396L43.6404 2.78604C45.1991 1.24284 47.7099 1.24284 49.2687 2.78604L52.7313 6.21396C54.2901 7.75716 56.8008 7.75716 58.3596 6.21396L61.8222 2.78604C63.381 1.24284 65.8918 1.24284 67.4505 2.78604L70.9131 6.21396C72.4719 7.75715 74.9827 7.75716 76.5414 6.21396L80.004 2.78604C81.5628 1.24284 84.0736 1.24284 85.6324 2.78604L89.0977 6.21674C90.6554 7.75884 93.164 7.7601 94.7232 6.21956L99.5 1.5" stroke="#2F70D9" stroke-width="3" stroke-linecap="round"/>
</svg>
