<svg width="181" height="33" viewBox="0 0 181 33" fill="none" xmlns="http://www.w3.org/2000/svg">
<path d="M141 3L142.402 1.91732C143.475 1.08834 144.994 1.12465 146.04 1.98761V1.98761C147.095 2.85854 148.635 2.87093 149.691 2V2C150.747 1.12907 152.272 1.12907 153.327 2V2C154.383 2.87093 155.908 2.87093 156.964 2V2C158.019 1.12907 159.544 1.12907 160.6 2V2C161.656 2.87093 163.181 2.87093 164.236 2V2C165.292 1.12907 166.817 1.12907 167.873 2V2C168.928 2.87093 170.453 2.87093 171.509 2V2C172.565 1.12907 174.09 1.12944 175.146 2.00037V2.00037C176.201 2.87107 177.726 2.87219 178.782 2.00253L180 1" stroke="#2F70D9" stroke-width="2" stroke-linecap="round"/>
<path d="M13.0766 8.78454V12.7309H5.32444V26.8711H0V8.78454H13.0766ZM34.227 17.8031C34.227 19.1969 34.0438 20.467 33.6772 21.6134C33.3195 22.7515 32.7562 23.733 31.9873 24.5577C31.2183 25.3825 30.2303 26.0175 29.0233 26.4628C27.8162 26.9 26.3721 27.1185 24.6912 27.1185C23.0461 27.1185 21.6199 26.9 20.4127 26.4628C19.2148 26.0175 18.2267 25.3865 17.4487 24.5701C16.6709 23.7454 16.0942 22.7598 15.7187 21.6134C15.3431 20.467 15.1553 19.1886 15.1553 17.7784C15.1553 15.8979 15.4907 14.2649 16.1612 12.8794C16.8407 11.4856 17.887 10.4093 19.2996 9.65051C20.7123 8.8835 22.5185 8.5 24.718 8.5C26.9533 8.5 28.7684 8.8835 30.1633 9.65051C31.567 10.4175 32.5953 11.4979 33.248 12.8917C33.9007 14.2855 34.227 15.9226 34.227 17.8031ZM20.7347 17.8031C20.7347 18.8918 20.8688 19.8278 21.1371 20.6113C21.4053 21.3948 21.8301 21.9968 22.4111 22.4175C22.9924 22.8381 23.7524 23.0484 24.6912 23.0484C25.6658 23.0484 26.4393 22.8381 27.0114 22.4175C27.5926 21.9968 28.0083 21.3948 28.2587 20.6113C28.518 19.8278 28.6476 18.8918 28.6476 17.8031C28.6476 16.17 28.3526 14.8794 27.7625 13.931C27.1724 12.9825 26.1576 12.5082 24.718 12.5082C23.7613 12.5082 22.9878 12.7227 22.3978 13.1515C21.8166 13.5804 21.3918 14.1907 21.1236 14.9824C20.8643 15.7742 20.7347 16.7144 20.7347 17.8031ZM46.4989 12.533C45.8731 12.533 45.3142 12.6567 44.8224 12.9041C44.3306 13.1433 43.9104 13.4938 43.5617 13.9557C43.213 14.4175 42.9447 14.9824 42.757 15.6505C42.5782 16.3103 42.4888 17.0609 42.4888 17.902C42.4888 19.0402 42.6452 19.9969 42.9582 20.7721C43.2711 21.5474 43.745 22.133 44.3798 22.5289C45.0236 22.9248 45.8283 23.1226 46.7939 23.1226C47.6703 23.1226 48.5106 23.0113 49.3154 22.7886C50.129 22.566 50.9471 22.2979 51.7698 21.9845V26.1165C50.9025 26.471 50.0128 26.7268 49.1008 26.8835C48.1978 27.0402 47.2365 27.1185 46.2172 27.1185C44.0892 27.1185 42.3457 26.7309 40.9866 25.9556C39.6364 25.1722 38.6395 24.0876 37.9958 22.702C37.3609 21.3164 37.0435 19.7082 37.0435 17.8773C37.0435 16.5083 37.2492 15.2546 37.6604 14.1164C38.0807 12.9783 38.6932 11.9928 39.4978 11.1598C40.3026 10.3185 41.2951 9.67113 42.4753 9.21752C43.6645 8.75567 45.0236 8.52474 46.5526 8.52474C47.5004 8.52474 48.4973 8.62783 49.5434 8.83402C50.5984 9.03196 51.6267 9.35361 52.6281 9.79897L51.0052 13.6463C50.29 13.333 49.5658 13.069 48.8325 12.8546C48.0994 12.6402 47.3214 12.533 46.4989 12.533ZM64.2562 26.8711H58.9586V12.7804H54.1704V8.78454H69.0308V12.7804H64.2562V26.8711ZM71.8344 8.78454H76.7689V17.0609C76.7689 17.4319 76.7648 17.8237 76.7566 18.2361C76.7469 18.6402 76.7332 19.0402 76.7154 19.4361C76.6975 19.832 76.6755 20.2072 76.6494 20.5618C76.622 20.9165 76.5904 21.2299 76.5547 21.502H76.6618L84.7359 8.78454H90.8117V26.8711H85.862V19.0402C85.862 18.702 85.8675 18.3185 85.8758 17.8897C85.8936 17.4608 85.9115 17.0196 85.9293 16.5659C85.9568 16.1124 85.9829 15.6752 86.0104 15.2547C86.0461 14.8339 86.0818 14.467 86.1175 14.1535H85.9966L77.9225 26.8711H71.8344V8.78454ZM111.868 26.8711H106.544V19.4979H100.388V26.8711H95.0636V8.78454H100.388V15.4896H106.544V8.78454H111.868V26.8711ZM116.12 8.78454H121.056V17.0609C121.056 17.4319 121.051 17.8237 121.042 18.2361C121.033 18.6402 121.019 19.0402 121.001 19.4361C120.983 19.832 120.961 20.2072 120.935 20.5618C120.908 20.9165 120.876 21.2299 120.841 21.502H120.948L129.022 8.78454H135.098V26.8711H130.149V19.0402C130.149 18.702 130.153 18.3185 130.162 17.8897C130.179 17.4608 130.197 17.0196 130.215 16.5659C130.243 16.1124 130.269 15.6752 130.296 15.2547C130.332 14.8339 130.368 14.467 130.403 14.1535H130.282L122.208 26.8711H116.12V8.78454ZM159.561 22.8628V32.5H154.398V26.8711H139.349V8.78454H144.674V22.8628H150.12V8.78454H155.444V22.8628H159.561ZM174.207 26.8711L173.242 23.4814H166.871L165.878 26.8711H160.057L166.454 8.7103H173.523L180 26.8711H174.207ZM172.142 19.4732L171.297 16.5041C171.206 16.1825 171.077 15.7248 170.907 15.1309C170.738 14.5289 170.568 13.9103 170.397 13.2753C170.237 12.632 170.112 12.1041 170.022 11.6917C169.941 12.1041 169.826 12.6154 169.674 13.2257C169.531 13.8279 169.378 14.4258 169.218 15.0195C169.065 15.6134 168.932 16.1082 168.815 16.5041L167.971 19.4732H172.142Z" fill="#686868"/>
</svg>
