<svg width="40" height="40" viewBox="0 0 40 40" fill="none" xmlns="http://www.w3.org/2000/svg">
<rect width="40" height="40" rx="10" fill="#A7D91A"/>
<mask id="mask0_50_991" style="mask-type:alpha" maskUnits="userSpaceOnUse" x="10" y="10" width="20" height="20">
<path d="M10 10H30V30H10V10Z" fill="white"/>
</mask>
<g mask="url(#mask0_50_991)">
<path fill-rule="evenodd" clip-rule="evenodd" d="M24.5125 21.985C24.2642 21.8609 23.0467 21.2625 22.82 21.1792C22.5933 21.0967 22.4283 21.0559 22.2625 21.3042C22.0975 21.5509 21.6233 22.1092 21.4792 22.2742C21.3342 22.44 21.19 22.46 20.9425 22.3367C20.695 22.2117 19.8967 21.9509 18.9508 21.1075C18.215 20.4509 17.7175 19.64 17.5733 19.3917C17.4292 19.1442 17.5575 19.01 17.6817 18.8867C17.7933 18.7759 17.9292 18.5975 18.0533 18.4534C18.1775 18.3084 18.2183 18.205 18.3008 18.0392C18.3842 17.8742 18.3425 17.73 18.28 17.6059C18.2183 17.4817 17.7233 16.2625 17.5167 15.7667C17.3158 15.2842 17.1117 15.35 16.96 15.3417C16.815 15.335 16.65 15.3334 16.485 15.3334C16.32 15.3334 16.0517 15.395 15.825 15.6434C15.5975 15.8909 14.9583 16.49 14.9583 17.7092C14.9583 18.9275 15.845 20.105 15.9692 20.2709C16.0933 20.4359 17.715 22.9375 20.1992 24.01C20.7908 24.265 21.2517 24.4175 21.6108 24.5309C22.2042 24.72 22.7442 24.6934 23.1708 24.6292C23.6458 24.5584 24.6358 24.03 24.8425 23.4517C25.0483 22.8734 25.0483 22.3775 24.9867 22.2742C24.925 22.1709 24.76 22.1092 24.5117 21.985H24.5125ZM19.9942 28.1542H19.9908C18.5154 28.1545 17.067 27.7578 15.7975 27.0059L15.4975 26.8275L12.3792 27.6459L13.2117 24.6059L13.0158 24.2942C12.1909 22.9812 11.7544 21.4615 11.7567 19.9109C11.7583 15.3692 15.4533 11.6742 19.9975 11.6742C22.1975 11.6742 24.2658 12.5325 25.8208 14.0892C26.5878 14.853 27.1957 15.7613 27.6094 16.7616C28.0231 17.7619 28.2343 18.8343 28.2308 19.9167C28.2292 24.4584 24.5342 28.1542 19.9942 28.1542ZM27.0042 12.9067C26.086 11.9825 24.9935 11.2496 23.7901 10.7507C22.5866 10.2518 21.2961 9.9966 19.9933 10C14.5317 10 10.085 14.4459 10.0833 19.91C10.0808 21.649 10.537 23.3579 11.4058 24.8642L10 30L15.2533 28.6217C16.7066 29.4135 18.3351 29.8283 19.99 29.8284H19.9942C25.4558 29.8284 29.9025 25.3825 29.9042 19.9175C29.9082 18.6153 29.654 17.3251 29.1562 16.1217C28.6584 14.9183 27.927 13.8256 27.0042 12.9067Z" fill="white"/>
</g>
</svg>
